<?xml version="1.0" standalone="no"?>
<!DOCTYPE svg PUBLIC "-//W3C//DTD SVG 1.1//EN" "http://www.w3.org/Graphics/SVG/1.1/DTD/svg11.dtd" >
<svg xmlns="http://www.w3.org/2000/svg" xmlns:xlink="http://www.w3.org/1999/xlink" version="1.1">
<metadata>
Created by FontForge 20170731 at Fri Mar 13 16:23:29 2015
 By Aleksey,,,
Copyright (c) 2015 by Fontfabric LLC. All rights reserved.
</metadata>
<defs>
<font id="MullerMediumItalic" horiz-adv-x="636" >
  <font-face 
    font-family="Muller Medium Italic"
    font-weight="500"
    font-style="italic"
    font-stretch="normal"
    units-per-em="1000"
    panose-1="0 0 0 0 0 0 0 0 0 0"
    ascent="780"
    descent="-220"
    x-height="480"
    cap-height="700"
    bbox="-209 -250 1255.32 969"
    underline-thickness="50"
    underline-position="-225"
    slope="-9"
    unicode-range="U+0020-25CA"
  />
<missing-glyph horiz-adv-x="238" 
 />
    <glyph glyph-name="f_f" unicode="ff" horiz-adv-x="709" 
d="M775 614q-40 18 -87 18q-100 0 -115 -94l-10 -58h165l-15 -94h-165l-61 -386h-107l61 386h-210l-61 -386h-107l61 386h-87l15 94h87l7 46q14 87 76.5 132t149.5 45q76 0 145 -38q54 61 152 61q68 0 119 -22zM245 480h211l10 68q5 22 10 38q-44 25 -101 25
q-50 0 -83.5 -23.5t-40.5 -69.5z" />
    <glyph glyph-name="f_f_i" unicode="ffi" horiz-adv-x="909" 
d="M170 0h-107l61 386h-87l15 94h87l7 46q14 87 76 132t150 45q80 0 152 -42q65 65 173 65q78 0 153 -35l-15 -95q-60 36 -131 36q-115 0 -132 -101l-9 -51h307l-76 -480h-107l61 386h-200l-61 -386h-107l61 386h-210zM251 518l-6 -38h211l9 58q5 31 12 46q-45 27 -102 27
q-50 0 -83.5 -23.5t-40.5 -69.5z" />
    <glyph glyph-name="f_f_l" unicode="ffl" horiz-adv-x="919" 
d="M684 723q76 0 139 -30l94 19l-113 -712h-107l96 608q-43 21 -95 21q-110 0 -127 -99l-8 -50h141l-15 -94h-141l-61 -386h-107l61 386h-210l-61 -386h-107l61 386h-87l15 94h87l7 46q14 86 76 131.5t147 45.5q81 0 155 -42q61 62 160 62zM456 480l9 58q5 31 12 46
q-43 27 -102 27q-48 0 -82.5 -23.5t-41.5 -69.5l-6 -38h211z" />
    <glyph glyph-name=".notdef" horiz-adv-x="238" 
 />
    <glyph glyph-name=".null" horiz-adv-x="0" 
 />
    <glyph glyph-name="nonmarkingreturn" horiz-adv-x="333" 
 />
    <glyph glyph-name="space" unicode=" " horiz-adv-x="238" 
 />
    <glyph glyph-name="exclam" unicode="!" horiz-adv-x="249" 
d="M162 220h-97l68 480h113zM153 46q-4 -28 -23.5 -43t-46.5 -15q-30 0 -48 19t-13 53q5 28 24.5 43t45.5 15q30 0 48 -19t13 -53z" />
    <glyph glyph-name="quotedbl" unicode="&#x22;" horiz-adv-x="358" 
d="M322 502h-75l32 198h98zM165 502h-75l32 198h98z" />
    <glyph glyph-name="numbersign" unicode="#" horiz-adv-x="671" 
d="M131 0h-104l63 162h-74l13 85h95l74 187h-88l13 85h108l64 161h104l-62 -161h156l63 161h105l-64 -161h73l-14 -85h-93l-74 -187h87l-13 -85h-107l-64 -162h-105l64 162h-156zM302 434l-74 -187h156l74 187h-156z" />
    <glyph glyph-name="dollar" unicode="$" horiz-adv-x="598" 
d="M278 -130h-88l19 120q-115 11 -197 60l17 108q92 -67 232 -67q155 0 169 87q6 40 -31 68t-93 47.5t-111 43.5t-89.5 70.5t-23.5 114.5q13 76 80 119.5t157 49.5l19 119h88l-19 -120q98 -13 160 -52l-16 -104q-79 55 -204 55q-61 0 -102.5 -18.5t-47.5 -57.5
q-5 -30 13.5 -53.5t51.5 -39.5t73.5 -30.5t80.5 -32.5t72 -41t48.5 -60t8.5 -85q-14 -90 -82.5 -134t-165.5 -49z" />
    <glyph glyph-name="percent" unicode="%" horiz-adv-x="909" 
d="M240 -60h-91l539 820h91zM415 542q-11 -74 -66 -115.5t-125 -41.5q-72 0 -117.5 46t-33.5 125q12 74 67 115.5t125 41.5q71 0 116.5 -46t33.5 -125zM163 546q-4 -32 12 -54t53 -22q40 0 65 23.5t31 58.5q3 32 -13 54t-51 22q-41 0 -66.5 -23.5t-30.5 -58.5zM854 144
q-11 -74 -66 -115.5t-125 -41.5q-71 0 -117 46.5t-34 124.5q12 74 67 115.5t126 41.5t116 -46.5t33 -124.5zM603 148q-4 -32 12 -54t53 -22q40 0 65 23.5t30 58.5q4 32 -12 54t-51 22q-41 0 -66.5 -23.5t-30.5 -58.5z" />
    <glyph glyph-name="ampersand" unicode="&#x26;" horiz-adv-x="707" 
d="M555 121l111 -121h-121l-57 61q-105 -74 -239 -74q-112 0 -173.5 55.5t-47.5 139.5q16 109 175 188q-70 87 -56 171q12 75 80 123.5t161 48.5q84 0 140 -49.5t44 -121.5q-5 -29 -21.5 -56t-36 -45.5t-52 -39.5t-53 -31.5t-55.5 -27.5l136 -149q48 66 57 141h107
q-16 -119 -99 -213zM382 621q-59 0 -93 -27t-40 -70q-8 -49 43 -113q33 13 57 25t52 29.5t45 38.5t21 43q6 31 -20 52.5t-65 21.5zM138 178q-8 -43 27.5 -70t101.5 -27q87 0 157 50l-158 170q-118 -54 -128 -123z" />
    <glyph glyph-name="quotesingle" unicode="'" horiz-adv-x="201" 
d="M165 502h-75l32 198h98z" />
    <glyph glyph-name="parenleft" unicode="(" horiz-adv-x="301" 
d="M269 810h95q-163 -216 -201 -461q-20 -117 -5.5 -241.5t58.5 -217.5h-90q-53 100 -73.5 223t-2.5 244q19 118 77.5 238.5t141.5 214.5z" />
    <glyph glyph-name="parenright" unicode=")" horiz-adv-x="301" 
d="M104 810h90q53 -100 73.5 -224.5t1.5 -245.5q-18 -117 -76.5 -236t-141.5 -214h-96q76 99 129.5 221t72.5 243q19 117 4.5 239.5t-57.5 216.5z" />
    <glyph glyph-name="asterisk" unicode="*" horiz-adv-x="457" 
d="M260 471l-89 -121l-76 57l101 98l-121 29l48 93l112 -52l9 125h99l-32 -125l127 52l20 -93l-133 -29l73 -98l-88 -57z" />
    <glyph glyph-name="plus" unicode="+" horiz-adv-x="535" 
d="M332 398h180l-15 -96h-181l-28 -180h-95l28 180h-180l15 96h181l28 180h95z" />
    <glyph glyph-name="comma" unicode="," horiz-adv-x="239" 
d="M32 -148h-88l99 248h114z" />
    <glyph glyph-name="hyphen" unicode="-" horiz-adv-x="485" 
d="M61 294h364l-15 -96h-364z" />
    <glyph glyph-name="period" unicode="." horiz-adv-x="229" 
d="M146 48q-4 -29 -24 -44t-47 -15q-30 0 -48.5 19t-12.5 53q4 29 24 43.5t47 14.5q31 0 49 -18.5t12 -52.5z" />
    <glyph glyph-name="slash" unicode="/" horiz-adv-x="440" 
d="M54 -59h-81l431 818h81z" />
    <glyph glyph-name="zero" unicode="0" horiz-adv-x="703" 
d="M56 347q25 156 115 251t239 95q148 0 213 -101t40 -259q-25 -155 -115 -250.5t-240 -95.5q-147 0 -212 101t-40 259zM551 340q18 119 -17.5 184t-129.5 65q-196 0 -236 -249q-18 -119 17.5 -184t128.5 -65q197 0 237 249z" />
    <glyph glyph-name="one" unicode="1" horiz-adv-x="443" 
d="M280 680h84l-92 -577h121l-17 -103h-370l17 103h136l73 460l-144 -51l17 105z" />
    <glyph glyph-name="two" unicode="2" horiz-adv-x="585" 
d="M120 625q108 68 232 68q103 0 165.5 -52.5t47.5 -145.5q-7 -41 -24.5 -73.5t-49 -60.5t-61.5 -47.5t-79 -46.5q-12 -6 -42 -22.5t-42 -23.5t-35.5 -20.5t-33.5 -22.5t-24 -22t-20 -26t-9 -27h363l-17 -103h-493l9 56q9 59 33.5 104.5t67 80.5t75.5 55t92 49q40 21 53 28
t43 25.5t41.5 31t24.5 33t16 42.5q6 42 -24.5 63.5t-92.5 21.5q-113 0 -234 -79z" />
    <glyph glyph-name="three" unicode="3" horiz-adv-x="592" 
d="M551 500q-8 -51 -41 -89.5t-84 -54.5q51 -16 82 -60.5t20 -116.5q-16 -95 -96.5 -143.5t-189.5 -48.5q-129 0 -231 47l16 104q89 -49 212 -48q72 0 123 27.5t60 84.5q8 52 -25 74.5t-99 22.5h-113l17 101h92q63 0 101.5 26t45.5 70q7 45 -25 69.5t-100 24.5
q-105 0 -217 -57l17 111q101 49 222 49q102 0 164 -53t49 -140z" />
    <glyph glyph-name="four" unicode="4" horiz-adv-x="648" 
d="M448 680h119l-71 -442h116l-15 -99h-116l-22 -139h-111l22 139h-369l15 97zM386 238l46 292l-284 -292h238z" />
    <glyph glyph-name="five" unicode="5" horiz-adv-x="583" 
d="M152 680h418l-16 -102h-315l-37 -163q47 11 102 11q48 0 90.5 -13t76.5 -39t49.5 -71t6.5 -104q-16 -103 -101.5 -157.5t-202.5 -54.5q-124 0 -213 47l16 102q75 -46 190 -46q82 0 135.5 30.5t62.5 91.5q11 62 -32 91t-124 29q-93 0 -186 -32z" />
    <glyph glyph-name="six" unicode="6" horiz-adv-x="631" 
d="M178 380q97 52 200 52q91 0 156 -60.5t49 -163.5q-17 -105 -95.5 -163t-185.5 -58q-146 0 -209.5 94t-36.5 260q28 176 128 264t238 88q94 0 172 -42l-16 -99q-65 40 -152 40q-85 0 -152 -50.5t-96 -161.5zM300 85q66 0 112.5 31.5t56.5 97.5q10 62 -27 90t-101 28
q-95 0 -181 -60q-12 -187 140 -187z" />
    <glyph glyph-name="seven" unicode="7" horiz-adv-x="552" 
d="M86 680h505l-14 -90l-375 -590h-125l368 578h-376z" />
    <glyph glyph-name="eight" unicode="8" horiz-adv-x="652" 
d="M587 166q-12 -77 -87 -128t-209 -51q-136 0 -205 62t-55 149q7 47 42.5 92.5t95.5 78.5q-78 60 -63 149q12 72 81 123.5t191 51.5q113 0 179.5 -61.5t56.5 -140.5q-12 -91 -115 -156q105 -59 88 -169zM144 201q-8 -53 34 -85t125 -32q68 0 115.5 26t54.5 67q3 22 -4 39.5
t-15.5 27.5t-33.5 21.5t-36.5 15.5t-46.5 15q-53 15 -89 29q-92 -51 -104 -124zM338 394q34 -9 76 -23q77 53 88 120q6 43 -29 74t-103 31q-64 0 -106 -24t-48 -63q-4 -25 4 -44t30 -33t39 -20.5t49 -17.5z" />
    <glyph glyph-name="nine" unicode="9" horiz-adv-x="630" 
d="M63 472q17 105 96 163t186 58q145 0 208.5 -94t36.5 -260q-28 -176 -127.5 -264t-238.5 -88q-95 0 -172 41l15 100q64 -40 153 -40q88 0 153.5 50t95.5 162q-99 -51 -198 -51q-43 0 -83.5 14.5t-72 41t-46.5 70.5t-6 97zM343 594q-65 0 -110 -31t-56 -95q-10 -64 27 -92
t102 -28q94 0 180 60q11 186 -143 186z" />
    <glyph glyph-name="colon" unicode=":" horiz-adv-x="253" 
d="M207 375q-10 -58 -72 -58q-30 0 -48 19t-12 53q4 29 24 43.5t46 14.5q32 0 50 -19t12 -53zM155 48q-4 -29 -24 -44t-47 -15q-30 0 -48.5 19t-12.5 53q4 29 24 43.5t47 14.5q31 0 49 -18.5t12 -52.5z" />
    <glyph glyph-name="semicolon" unicode=";" horiz-adv-x="284" 
d="M53 -148h-88l99 248h114zM226 408q-4 -30 -23.5 -44.5t-47.5 -14.5q-30 0 -48.5 19t-13.5 53q5 29 25 43.5t47 14.5q31 0 49 -18.5t12 -52.5z" />
    <glyph glyph-name="less" unicode="&#x3c;" horiz-adv-x="504" 
d="M421 247l-15 -100l-363 150l17 107l410 149l-16 -101l-302 -103z" />
    <glyph glyph-name="equal" unicode="=" horiz-adv-x="568" 
d="M521 397h-440l15 96h440zM491 208h-440l15 95h440z" />
    <glyph glyph-name="greater" unicode="&#x3e;" horiz-adv-x="504" 
d="M462 297l-410 -150l16 100l303 105l-270 101l15 100l363 -149z" />
    <glyph glyph-name="question" unicode="?" horiz-adv-x="494" 
d="M268 218h-104q6 39 29 76t53 65.5t59.5 56t52 56.5t26.5 57q7 44 -24 62t-94 18q-88 0 -189 -55l17 107q94 52 197 52q62 0 111.5 -18.5t78 -60t18.5 -100.5q-6 -38 -30.5 -75t-56 -66t-63 -57t-54.5 -58.5t-27 -59.5zM257 48q-4 -29 -24 -44t-47 -15q-30 0 -48.5 19
t-12.5 53q4 29 24 43.5t47 14.5q31 0 49 -18.5t12 -52.5z" />
    <glyph glyph-name="at" unicode="@" horiz-adv-x="1051" 
d="M35 254q14 91 60 173t116.5 146t170.5 102t214 38q110 0 196.5 -41t134 -106t68 -141.5t8.5 -151.5q-21 -132 -85.5 -199t-159.5 -67q-60 0 -99.5 27.5t-47.5 75.5q-57 -80 -155 -80q-84 0 -131 63.5t-33 150.5q13 85 74 143.5t147 58.5q45 0 80 -22.5t51 -55.5l11 68h91
l-41 -259q-13 -85 60 -85q54 0 88 52t48 139q9 59 -6 117t-51.5 106.5t-102.5 79t-150 30.5q-182 0 -306 -108t-149 -265q-14 -89 9 -162t74.5 -119.5t122 -72t153.5 -25.5q111 0 227 37l-14 -100q-101 -34 -221 -34q-102 0 -191.5 32.5t-154.5 92.5t-94.5 154t-11.5 208z
M625 278q-5 35 -30.5 59t-67.5 24q-52 0 -91 -35t-48 -90q-8 -51 17.5 -85.5t72.5 -34.5q45 0 82.5 26t52.5 61z" />
    <glyph glyph-name="A" unicode="A" horiz-adv-x="728" 
d="M676 0h-117l-38 151h-352l-86 -151h-124l407 700h126zM395 547l-170 -296h272l-75 297q-4 15 -7 43q-10 -27 -20 -44z" />
    <glyph glyph-name="B" unicode="B" horiz-adv-x="690" 
d="M150 700h290q105 0 168 -48.5t49 -136.5q-10 -59 -46 -96t-87 -51q24 -7 44 -20.5t38 -34.5t25.5 -53.5t1.5 -72.5q-9 -55 -39 -94t-74 -58t-87.5 -27t-93.5 -8h-300zM521 209q5 26 -1.5 46t-18.5 30.5t-31.5 17t-36.5 8.5t-38 2h-192l-34 -213h171q33 0 58.5 3.5t53 14
t45.5 33.5t24 58zM542 507q9 50 -22.5 72t-96.5 22h-174l-30 -191l185 -1q55 0 92.5 24.5t45.5 73.5z" />
    <glyph glyph-name="C" unicode="C" horiz-adv-x="647" 
d="M52 367q13 82 56.5 150t103.5 109.5t127.5 64t133.5 22.5q111 0 191 -49l-16 -106q-61 50 -161 50q-112 0 -206 -65.5t-114 -187.5q-11 -66 5.5 -118t51.5 -82.5t79.5 -46.5t92.5 -16q107 0 191 54l-18 -118q-83 -41 -200 -41q-67 0 -128.5 24t-110 69.5t-71 120
t-7.5 166.5z" />
    <glyph glyph-name="D" unicode="D" horiz-adv-x="740" 
d="M150 700h242q174 0 257 -99t58 -258q-25 -157 -130.5 -250t-287.5 -93h-250zM592 357q19 116 -34.5 177.5t-176.5 61.5h-133l-78 -492h128q123 0 199 66t95 187z" />
    <glyph glyph-name="E" unicode="E" horiz-adv-x="620" 
d="M150 700h482l-17 -104h-368l-30 -191h338l-16 -104h-338l-31 -197h373l-16 -104h-488z" />
    <glyph glyph-name="F" unicode="F" horiz-adv-x="606" 
d="M150 700h483l-17 -105h-369l-32 -205h340l-17 -106h-340l-45 -284h-114z" />
    <glyph glyph-name="G" unicode="G" horiz-adv-x="704" 
d="M51 364q14 88 58 157t105 109.5t128 61.5t136 21q119 0 207 -47l-16 -107q-64 49 -181 49q-52 0 -102.5 -14.5t-97 -44t-79.5 -81t-43 -118.5q-11 -70 5.5 -122.5t53 -81t79 -42t89.5 -13.5q67 0 113 21l42 264h113l-54 -343q-109 -46 -227 -46q-71 0 -134.5 22.5
t-114 66.5t-73 118.5t-7.5 169.5z" />
    <glyph glyph-name="H" unicode="H" horiz-adv-x="767" 
d="M633 700h114l-111 -700h-114l47 298h-369l-47 -298h-114l111 700h114l-47 -297h369z" />
    <glyph glyph-name="I" unicode="I" horiz-adv-x="284" 
d="M150 700h114l-111 -700h-114z" />
    <glyph glyph-name="J" unicode="J" horiz-adv-x="510" 
d="M185 700h311l-78 -493q-18 -115 -89.5 -167t-178.5 -52q-111 0 -177 42l17 106q56 -40 144 -40q151 0 172 128l58 371h-196z" />
    <glyph glyph-name="K" unicode="K" horiz-adv-x="675" 
d="M597 700h128l-284 -348l188 -352h-121l-163 303h-144l-48 -303h-114l111 700h114l-46 -292h139z" />
    <glyph glyph-name="L" unicode="L" horiz-adv-x="577" 
d="M150 700h114l-94 -594h368l-17 -106h-482z" />
    <glyph glyph-name="M" unicode="M" horiz-adv-x="907" 
d="M770 700h117l-111 -700h-114l79 497l-269 -335h-75l-164 336l-80 -498h-114l111 700h103l196 -401z" />
    <glyph glyph-name="N" unicode="N" horiz-adv-x="767" 
d="M153 0h-114l111 700h96l308 -516q5 49 10 83l69 433h114l-111 -700h-96l-308 516q-3 -42 -9 -80z" />
    <glyph glyph-name="O" unicode="O" horiz-adv-x="817" 
d="M786 343q-12 -70 -44 -132.5t-83.5 -113.5t-127.5 -80.5t-166 -29.5q-112 0 -190.5 53.5t-109 137t-15.5 179.5q11 70 44.5 133t85 113t127 80t163.5 30q165 0 252.5 -111t63.5 -259zM165 348q-16 -102 37 -178t170 -76q123 0 202 74t97 184q10 65 -7 121t-69 94.5
t-132 38.5q-123 0 -201.5 -74t-96.5 -184z" />
    <glyph glyph-name="P" unicode="P" horiz-adv-x="665" 
d="M150 700h255q59 0 107 -12t87 -38t56 -74t7 -113q-10 -63 -39 -108t-74.5 -69.5t-98 -35t-118.5 -10.5h-141l-38 -240h-114zM548 474q6 37 -4.5 62t-34 37.5t-50 17.5t-60.5 5h-151l-40 -252h141q179 0 199 130z" />
    <glyph glyph-name="Q" unicode="Q" horiz-adv-x="817" 
d="M733 10l-83 -68l-79 94q-92 -49 -206 -49q-112 0 -190.5 53.5t-109 137t-15.5 179.5q11 70 44.5 133t85 113t127 80t163.5 30q165 0 252.5 -111t63.5 -259q-25 -149 -128 -245zM165 348q-16 -102 37 -178t170 -76q71 0 125 28l-88 104l81 69l96 -113q69 67 85 170
q10 65 -7 121t-69 94.5t-132 38.5q-123 0 -201.5 -74t-96.5 -184z" />
    <glyph glyph-name="R" unicode="R" horiz-adv-x="701" 
d="M153 0h-114l111 700h278q51 0 95 -11.5t80.5 -36.5t53.5 -71t7 -107q-25 -160 -201 -200l177 -274h-128l-167 262h-150zM249 596l-37 -233h169q65 0 111.5 29t57.5 91q10 62 -27 87.5t-102 25.5h-172z" />
    <glyph glyph-name="S" unicode="S" horiz-adv-x="590" 
d="M86 532q14 89 91.5 135t179.5 46q127 0 212 -58l-16 -105q-77 61 -194 59q-146 0 -158 -86q-6 -40 30.5 -68t91.5 -48.5t109.5 -45t87.5 -72t22 -115.5q-8 -52 -35 -89.5t-67 -58t-84.5 -30t-96.5 -9.5q-145 0 -248 63l17 107q95 -66 229 -66q156 0 169 87q5 32 -12.5 57
t-50 41.5t-72 32t-79 34t-70.5 41.5t-47.5 61t-8.5 87z" />
    <glyph glyph-name="T" unicode="T" horiz-adv-x="602" 
d="M77 700h577l-17 -105h-231l-94 -595h-114l94 595h-232z" />
    <glyph glyph-name="U" unicode="U" horiz-adv-x="753" 
d="M626 700h114l-70 -444q-12 -74 -43.5 -127.5t-77.5 -83.5t-98 -44t-113 -14t-112 15t-91 46.5t-57.5 86.5t-5.5 128l70 437h114l-69 -438q-28 -169 153 -169q189 0 218 176z" />
    <glyph glyph-name="V" unicode="V" horiz-adv-x="698" 
d="M362 0h-118l-171 700h119l127 -568l309 568h127z" />
    <glyph glyph-name="W" unicode="W" horiz-adv-x="1029" 
d="M958 700h124l-325 -700h-129l-76 513l-240 -513h-130l-107 700h118l75 -563l262 563h97l82 -556z" />
    <glyph glyph-name="X" unicode="X" horiz-adv-x="658" 
d="M89 0h-140l325 363l-193 337h127l143 -251l223 251h140l-307 -343l205 -357h-127l-154 271z" />
    <glyph glyph-name="Y" unicode="Y" horiz-adv-x="676" 
d="M348 0h-114l42 257l-204 443h122l151 -336l258 336h132l-345 -443z" />
    <glyph glyph-name="Z" unicode="Z" horiz-adv-x="599" 
d="M520 0h-532l13 90l449 505h-355l16 105h506l-14 -91l-448 -503h382z" />
    <glyph glyph-name="bracketleft" unicode="[" horiz-adv-x="307" 
d="M215 -110h-212l146 920h211l-15 -101h-102l-115 -718h102z" />
    <glyph glyph-name="backslash" unicode="\" horiz-adv-x="434" 
d="M351 -59h-77l-172 818h77z" />
    <glyph glyph-name="bracketright" unicode="]" horiz-adv-x="307" 
d="M178 -110h-212l15 101h103l114 718h-102l15 101h212z" />
    <glyph glyph-name="asciicircum" unicode="^" horiz-adv-x="557" 
d="M174 368h-121l245 332h94l141 -332h-112l-88 220z" />
    <glyph glyph-name="underscore" unicode="_" horiz-adv-x="468" 
d="M397 -160h-468l15 95h468z" />
    <glyph glyph-name="grave" unicode="`" horiz-adv-x="217" 
d="M306 767h-109l-83 148h125z" />
    <glyph glyph-name="a" unicode="a" horiz-adv-x="620" 
d="M425 77q-77 -90 -194 -90q-106 0 -162.5 76t-39.5 184q17 104 92.5 175t179.5 71q116 0 175 -94l12 81h96l-76 -480h-96zM135 239q-11 -68 23.5 -113t97.5 -45q54 0 100.5 30t72.5 73l19 117q-10 42 -45.5 70t-86.5 28q-68 0 -118.5 -44t-62.5 -116z" />
    <glyph glyph-name="b" unicode="b" horiz-adv-x="619" 
d="M131 700h107l-46 -284q77 77 181 77q105 0 162 -76t39 -184q-16 -105 -89.5 -175.5t-181.5 -70.5q-116 0 -173 92l-15 -79h-95zM469 240q10 69 -24 114t-96 45q-56 0 -101.5 -29.5t-72.5 -73.5l-20 -117q13 -43 47 -70.5t85 -27.5q72 0 121 43t61 116z" />
    <glyph glyph-name="c" unicode="c" horiz-adv-x="495" 
d="M30 247q10 64 41 113t74 77t90 42t95 14q86 0 150 -42l-16 -94q-48 41 -124 41q-74 0 -132 -39.5t-71 -120.5q-12 -77 30 -116.5t115 -39.5q70 0 150 40l-16 -102q-74 -33 -159 -33q-52 0 -96.5 16t-78 47t-48 82t-4.5 115z" />
    <glyph glyph-name="d" unicode="d" horiz-adv-x="620" 
d="M512 700h107l-111 -700h-95l12 79q-71 -92 -194 -92q-106 0 -162.5 76t-39.5 184q17 104 91.5 175t176.5 71q116 0 168 -83zM449 302q-11 41 -46.5 69t-86.5 28q-68 0 -118.5 -44t-62.5 -117q-11 -68 23.5 -112.5t97.5 -44.5q54 0 100.5 30t72.5 73z" />
    <glyph glyph-name="e" unicode="e" horiz-adv-x="545" 
d="M29 246q18 118 100 182.5t177 64.5q55 0 96.5 -17.5t65.5 -46.5t35 -67t8 -80t-19 -84h-362q-1 -61 46.5 -90.5t114.5 -29.5q94 0 165 37l-16 -96q-70 -32 -172 -32q-110 0 -183.5 69t-55.5 190zM409 278q12 44 -11.5 85t-92.5 41q-58 0 -104.5 -34.5t-58.5 -91.5h267z
" />
    <glyph glyph-name="f" unicode="f" horiz-adv-x="391" 
d="M149 544q8 47 28.5 81.5t50 53t60.5 26.5t66 8q64 0 114 -22l-15 -90q-36 18 -82 18q-104 0 -117 -87l-8 -52h164l-15 -94h-164l-61 -386h-107l61 386h-87l15 94h87z" />
    <glyph glyph-name="g" unicode="g" horiz-adv-x="621" 
d="M509 2q-12 -81 -57.5 -135.5t-105 -77t-130.5 -22.5q-124 0 -202 49l15 95q71 -50 178 -50q77 0 130.5 36t64.5 110l10 57q-69 -77 -181 -77q-106 0 -162.5 76t-39.5 184q17 104 93 175t179 71q117 0 173 -95l14 82h97zM135 238q-11 -68 23.5 -112.5t97.5 -44.5
q54 0 100.5 28.5t72.5 70.5l21 123q-12 41 -47.5 68.5t-86.5 27.5q-68 0 -118.5 -44t-62.5 -117z" />
    <glyph glyph-name="h" unicode="h" horiz-adv-x="587" 
d="M131 700h107l-44 -277q77 70 167 70q89 0 134.5 -56.5t31.5 -143.5l-46 -293h-108l45 286q9 56 -15.5 84t-73.5 28q-42 0 -83 -24.5t-70 -59.5l-49 -314h-107z" />
    <glyph glyph-name="i" unicode="i" horiz-adv-x="245" 
d="M130 0h-107l76 480h107zM242 629q-10 -57 -70 -57q-30 0 -47.5 18.5t-12.5 51.5q4 29 24 43.5t47 14.5q29 0 46.5 -19t12.5 -52z" />
    <glyph glyph-name="j" unicode="j" horiz-adv-x="244" 
d="M116 -86q-23 -147 -170 -147q-45 0 -84 16l15 91q20 -11 50 -11q74 0 86 78l86 539h107zM241 629q-10 -57 -70 -57q-30 0 -47.5 18.5t-12.5 51.5q4 29 24 43.5t47 14.5q29 0 46.5 -19t12.5 -52z" />
    <glyph glyph-name="k" unicode="k" horiz-adv-x="530" 
d="M419 480h125l-213 -237l151 -243h-115l-127 206h-80l-33 -206h-107l111 700h107l-64 -403h82z" />
    <glyph glyph-name="l" unicode="l" horiz-adv-x="245" 
d="M139 730h107l-116 -730h-107z" />
    <glyph glyph-name="m" unicode="m" horiz-adv-x="882" 
d="M488 418q90 75 179 75t128 -57.5t27 -139.5l-47 -296h-107l48 302q7 45 -14 70.5t-63 25.5q-69 0 -133 -69q0 -17 -3 -33l-47 -296h-107l48 302q7 45 -14 70.5t-63 25.5q-73 0 -142 -78l-51 -320h-107l76 480h95l-11 -63q29 30 74.5 53t96.5 23q100 0 137 -75z" />
    <glyph glyph-name="n" unicode="n" horiz-adv-x="587" 
d="M180 411q84 82 184 82q87 0 132 -56.5t31 -142.5l-47 -294h-107l45 286q9 57 -15.5 84.5t-73.5 27.5q-42 0 -83 -24.5t-70 -58.5l-49 -315h-107l76 480h95z" />
    <glyph glyph-name="o" unicode="o" horiz-adv-x="591" 
d="M546 232q-18 -116 -104 -180.5t-191 -64.5q-107 0 -174 70t-48 191q19 116 104 180.5t191 64.5t174 -70.5t48 -190.5zM135 236q-11 -68 23.5 -109.5t101.5 -41.5q69 0 119 43.5t62 115.5q10 68 -24 109.5t-101 41.5q-68 0 -118.5 -43.5t-62.5 -115.5z" />
    <glyph glyph-name="p" unicode="p" horiz-adv-x="619" 
d="M179 402q76 91 194 91q105 0 162 -76t39 -184q-15 -104 -91 -175t-180 -71q-113 0 -165 86l-46 -293h-107l111 700h95zM469 242q11 68 -23.5 112.5t-97.5 44.5q-55 0 -101 -30t-73 -74l-19 -117q12 -42 47 -69.5t86 -27.5q67 0 118 44.5t63 116.5z" />
    <glyph glyph-name="q" unicode="q" horiz-adv-x="620" 
d="M29 247q17 104 92.5 175t179.5 71q119 0 174 -97l13 84h96l-111 -700h-107l45 284q-70 -77 -180 -77q-106 0 -162.5 76t-39.5 184zM449 303q-11 41 -46.5 68.5t-86.5 27.5q-68 0 -118.5 -44.5t-62.5 -116.5q-11 -68 23.5 -112.5t97.5 -44.5q55 0 101.5 30t71.5 73z" />
    <glyph glyph-name="r" unicode="r" horiz-adv-x="379" 
d="M179 403q71 100 216 87l-17 -107q-64 12 -119.5 -14.5t-85.5 -80.5l-46 -288h-107l76 480h95z" />
    <glyph glyph-name="s" unicode="s" horiz-adv-x="471" 
d="M49 358q10 70 71.5 102.5t139.5 32.5q96 0 171 -42l-14 -92q-68 46 -157 46q-40 0 -69 -13t-33 -40q-3 -25 25 -41.5t69 -28.5t81.5 -28.5t65.5 -49.5t17 -82q-22 -135 -224 -135q-113 0 -184 48l15 95q70 -53 172 -53q104 0 113 52q4 24 -24 40.5t-69 29t-81.5 29
t-66 49.5t-18.5 81z" />
    <glyph glyph-name="t" unicode="t" horiz-adv-x="411" 
d="M152 623l110 29l-27 -172h174l-15 -94h-174l-36 -224q-7 -46 11 -63.5t64 -17.5q52 0 103 23l-15 -94q-52 -23 -126 -23q-73 0 -115 41t-30 121l38 237h-86l15 94h86z" />
    <glyph glyph-name="u" unicode="u" horiz-adv-x="586" 
d="M442 480h107l-76 -480h-94l11 69q-32 -37 -78.5 -59.5t-97.5 -22.5q-90 0 -137.5 57t-33.5 144l46 292h107l-45 -286q-17 -112 90 -112q87 0 151 83z" />
    <glyph glyph-name="v" unicode="v" horiz-adv-x="549" 
d="M449 480h120l-285 -480h-113l-129 480h111l89 -363z" />
    <glyph glyph-name="w" unicode="w" horiz-adv-x="803" 
d="M702 480h117l-237 -480h-114l-58 343l-171 -343h-113l-84 480h107l56 -351l173 351h100l60 -351z" />
    <glyph glyph-name="x" unicode="x" horiz-adv-x="507" 
d="M86 0h-126l227 249l-138 231h117l91 -159l140 159h126l-217 -237l148 -243h-117l-100 171z" />
    <glyph glyph-name="y" unicode="y" horiz-adv-x="548" 
d="M251 116l194 364h121l-311 -548q-94 -164 -216 -164q-35 0 -68 11l14 88q21 -7 44 -7q40 0 72.5 28.5t66.5 88.5l18 27l-150 476h110z" />
    <glyph glyph-name="z" unicode="z" horiz-adv-x="472" 
d="M76 480h380l-13 -80l-305 -309h270l-14 -91h-407l13 80l305 309h-243z" />
    <glyph glyph-name="braceleft" unicode="{" horiz-adv-x="329" 
d="M240 -16l-15 -95q-89 -20 -132.5 18t-31.5 114l34 213q7 41 -10 54.5t-56 13.5l16 96q38 -1 59.5 16t28.5 61l34 214q12 77 64.5 108t139.5 12l-15 -93q-40 7 -60 -13.5t-28 -70.5l-29 -184q-13 -86 -86 -99q29 -3 45.5 -28.5t8.5 -76.5l-30 -184q-7 -46 6.5 -64
t56.5 -12z" />
    <glyph glyph-name="bar" unicode="|" horiz-adv-x="242" 
d="M114 -100h-110l144 910h110z" />
    <glyph glyph-name="braceright" unicode="}" horiz-adv-x="329" 
d="M181 13q-26 -164 -204 -122l15 96q40 -9 60 8.5t27 64.5l32 198q14 89 92 96q-31 3 -49.5 30.5t-11.5 73.5l30 185q8 47 -5.5 64.5t-58.5 10.5l15 93q89 20 132.5 -18.5t31.5 -113.5l-33 -212q-7 -41 11.5 -56t52.5 -15l-15 -95q-75 3 -88 -76z" />
    <glyph glyph-name="asciitilde" unicode="~" horiz-adv-x="599" 
d="M550 397q-1 -68 -38 -104t-94 -36q-39 0 -112.5 27t-100.5 27q-20 0 -33 -12t-13 -34h-95q2 69 39.5 104.5t91.5 35.5q42 0 113.5 -26.5t100.5 -26.5q46 0 46 45h95z" />
    <glyph glyph-name="exclamdown" unicode="&#xa1;" horiz-adv-x="237" 
d="M94 -219h-113l84 480h97zM204 421q-5 -28 -24.5 -42.5t-45.5 -14.5q-30 0 -48 18.5t-12 52.5q4 29 24 43.5t46 14.5q30 0 48 -19t12 -53z" />
    <glyph glyph-name="cent" unicode="&#xa2;" horiz-adv-x="512" 
d="M485 451l-16 -94q-41 35 -103 40l-50 -313q61 7 121 38l-16 -102q-56 -25 -120 -31l-17 -109h-79l17 109q-95 13 -150 79t-37 179q12 77 55.5 132t97 80.5t114.5 31.5l17 109h79l-17 -110q58 -9 104 -39zM286 391q-55 -13 -94.5 -51t-49.5 -102q-10 -62 17 -100t79 -51z
" />
    <glyph glyph-name="sterling" unicode="&#xa3;" horiz-adv-x="604" 
d="M521 0h-527l16 100h29q32 0 56 25t29 62l16 101h-82l14 94h83l12 78q20 121 94 177t175 56q84 0 153 -39l-14 -95q-58 40 -135 40q-62 0 -106.5 -36.5t-57.5 -112.5l-11 -68h208l-14 -94h-209l-17 -108q-11 -64 -52 -82l356 2z" />
    <glyph glyph-name="currency" unicode="&#xa4;" horiz-adv-x="575" 
d="M168 183l-75 -65l-55 64l71 62q-26 48 -16 113q11 64 49 106l-49 57l69 61l53 -62q49 25 107 25q57 0 104 -27l75 65l55 -63l-72 -63q25 -48 15 -113q-11 -62 -49 -106l50 -57l-69 -61l-54 62q-46 -25 -106 -25t-103 27zM190 343q-6 -44 17 -70t70 -26q51 0 85 30.5
t40 79.5q8 44 -15.5 70.5t-70.5 26.5q-51 0 -85 -30.5t-41 -80.5z" />
    <glyph glyph-name="yen" unicode="&#xa5;" horiz-adv-x="694" 
d="M595 680h127l-268 -344h120l-13 -82h-165l-9 -54h165l-13 -82h-165l-19 -118h-114l19 118h-165l13 82h165l9 54h-165l13 82h120l-159 344h120l140 -324z" />
    <glyph glyph-name="brokenbar" unicode="&#xa6;" horiz-adv-x="256" 
d="M208 446h-110l57 364h110zM121 -100h-110l58 364h110z" />
    <glyph glyph-name="section" unicode="&#xa7;" horiz-adv-x="511" 
d="M420 100q-11 -71 -72.5 -102.5t-149.5 -31.5q-102 0 -175 47l14 89q33 -23 77 -36t81 -13q109 0 119 55q2 14 -4.5 25t-25.5 20.5t-34.5 15t-48.5 15.5q-35 11 -57.5 21t-46.5 27.5t-33.5 43.5t-4.5 61q10 72 96 127q-60 38 -48 113q11 70 72 103t140 33q86 0 163 -43
l-13 -88q-60 44 -146 44q-42 0 -73 -14t-35 -43q-2 -14 4 -24.5t24.5 -20.5t31 -14.5t43.5 -14.5q4 -1 5.5 -1.5l4.5 -1.5t5 -2q36 -12 58 -21.5t45.5 -27t32.5 -43t4 -59.5q-11 -71 -95 -126q55 -39 42 -113zM240 271q8 -3 28 -8t29 -8q29 13 48.5 35t22.5 44
q4 29 -15.5 43.5t-62.5 29.5q-10 4 -29.5 9.5t-26.5 7.5q-30 -12 -50 -34.5t-23 -44.5q-3 -15 2 -27t18.5 -20.5t25 -13.5t33.5 -13z" />
    <glyph glyph-name="dieresis" unicode="&#xa8;" horiz-adv-x="322" 
d="M440 828q-4 -23 -23.5 -40t-44.5 -17q-28 0 -45 21.5t-13 49.5q5 24 24.5 40.5t43.5 16.5q28 0 45.5 -21t12.5 -50zM232 828q-4 -23 -23.5 -40t-44.5 -17q-28 0 -45 21.5t-13 49.5q5 24 24.5 40.5t43.5 16.5q28 0 45.5 -21t12.5 -50z" />
    <glyph glyph-name="copyright" unicode="&#xa9;" horiz-adv-x="849" 
d="M813 343q-14 -86 -57.5 -155.5t-104 -112.5t-129.5 -65.5t-140 -22.5q-69 0 -132.5 24t-112.5 68.5t-72.5 117t-9.5 160.5q18 114 87.5 197t159 121t185.5 38q69 0 132 -24t112 -68.5t72.5 -117t9.5 -160.5zM561 179q-65 -32 -141 -32q-79 0 -136 52.5t-42 149.5
q16 101 88 152.5t156 51.5q75 0 125 -36l-8 -70q-46 30 -103 30q-61 0 -109.5 -32t-59.5 -102q-10 -64 23.5 -92t89.5 -28q62 0 126 33zM93 350q-12 -77 8 -140t62.5 -102.5t98.5 -61t118 -21.5q65 0 128.5 20.5t119.5 59t95.5 102.5t51.5 143q12 77 -8 140t-62.5 102.5
t-98.5 61t-119 21.5q-88 0 -169.5 -34t-145.5 -110t-79 -181z" />
    <glyph glyph-name="guillemotleft" unicode="&#xab;" horiz-adv-x="523" 
d="M440 53h-109l-97 177l4 23l150 174h114l-163 -187zM234 53h-109l-97 177l4 23l150 174h114l-164 -187z" />
    <glyph glyph-name="logicalnot" unicode="&#xac;" horiz-adv-x="575" 
d="M501 256h-98l20 129h-358l15 95h456z" />
    <glyph glyph-name="registered" unicode="&#xae;" horiz-adv-x="849" 
d="M813 343q-14 -86 -57.5 -155.5t-104 -112.5t-129.5 -65.5t-140 -22.5q-69 0 -132.5 24t-112.5 68.5t-72.5 117t-9.5 160.5q18 114 87.5 197t159 121t185.5 38q69 0 132 -24t112 -68.5t72.5 -117t9.5 -160.5zM93 350q-12 -77 8 -140t62.5 -102.5t98.5 -61t118 -21.5
q65 0 128.5 20.5t119.5 59t95.5 102.5t51.5 143q12 77 -8 140t-62.5 102.5t-98.5 61t-119 21.5q-88 0 -169.5 -34t-145.5 -110t-79 -181zM332 156h-77l62 393h172q28 0 53 -7t47 -22t32.5 -42.5t4.5 -64.5q-13 -85 -102 -110l84 -147h-85l-76 139h-11h-83zM382 477l-18 -114
h90q23 0 39 2.5t34 17t23 41.5q4 24 -9 36.5t-27 14.5t-36 2h-96z" />
    <glyph glyph-name="macron" unicode="&#xaf;" horiz-adv-x="360" 
d="M141 869h312l-15 -90h-312z" />
    <glyph glyph-name="degree" unicode="&#xb0;" horiz-adv-x="403" 
d="M406 548q-12 -72 -64 -112.5t-120 -40.5t-112 45.5t-32 121.5q12 69 65 110t119 41q69 0 112.5 -45.5t31.5 -119.5zM155 552q-5 -37 14.5 -59t56.5 -22q41 0 69 23.5t33 63.5q5 36 -14 57.5t-56 21.5q-40 0 -68.5 -23t-34.5 -62z" />
    <glyph glyph-name="plusminus" unicode="&#xb1;" horiz-adv-x="576" 
d="M390 626l-28 -181h180l-15 -95h-180l-29 -180h-95l29 180h-181l15 95h181l28 181h95zM472 0h-456l15 95h456z" />
    <glyph glyph-name="acute" unicode="&#xb4;" horiz-adv-x="211" 
d="M231 767h-114l114 148h129z" />
    <glyph glyph-name="paragraph" unicode="&#xb6;" horiz-adv-x="682" 
d="M287 -220h-110l78 494q-105 0 -156.5 59t-35.5 161q16 98 83 152t173 54h349l-146 -920h-111l129 815h-124z" />
    <glyph glyph-name="periodcentered" unicode="&#xb7;" horiz-adv-x="249" 
d="M182 232q-10 -58 -71 -58q-31 0 -49 19t-12 53q4 29 24 43.5t47 14.5q31 0 49 -19t12 -53z" />
    <glyph glyph-name="cedilla" unicode="&#xb8;" horiz-adv-x="218" 
d="M40 0h81l-23 -54q46 -1 70 -24.5t18 -64.5q-6 -45 -46.5 -67.5t-96.5 -22.5t-107 19l13 75q38 -19 84 -19q67 0 71 30q2 14 -12 22t-37.5 8.5t-51.5 -3.5z" />
    <glyph glyph-name="guillemotright" unicode="&#xbb;" horiz-adv-x="524" 
d="M324 53h-113l163 187l-101 187h108l98 -177l-3 -23zM118 53h-113l163 187l-101 187h108l98 -177l-3 -23z" />
    <glyph glyph-name="onequarter" unicode="&#xbc;" horiz-adv-x="939" 
d="M774 408h85l-41 -257h66l-12 -72h-65l-12 -79h-79l12 79h-216l11 71zM740 151l24 149l-145 -149h121zM203 -14h-41l573 727h42zM219 680h60l-53 -334h72l-11 -74h-240l12 74h87l39 251l-89 -32l13 77z" />
    <glyph glyph-name="onehalf" unicode="&#xbd;" horiz-adv-x="899" 
d="M198 -14h-41l573 727h42zM590 376q64 40 140 40q61 0 101.5 -33.5t29.5 -91.5q-8 -43 -40.5 -74.5t-89.5 -61.5q-35 -19 -51.5 -28.5t-33.5 -24.5t-20 -28h202l-12 -74h-300l6 41q5 35 19 62t40.5 48.5t44.5 32.5t53 29q48 24 72.5 44t28.5 44q4 21 -12 31t-44 10
q-72 0 -147 -49zM214 680h60l-53 -334h72l-11 -74h-240l12 74h87l39 251l-89 -32l13 77z" />
    <glyph glyph-name="threequarters" unicode="&#xbe;" horiz-adv-x="992" 
d="M263 -14h-41l573 727h42zM827 408h85l-41 -257h66l-12 -72h-65l-12 -79h-79l12 79h-216l11 71zM793 151l24 149l-145 -149h121zM374 574q-9 -60 -72 -84q29 -10 47 -37t11 -70q-9 -57 -56.5 -85.5t-116.5 -28.5q-81 0 -140 29l13 77q53 -31 122 -31q94 0 103 57
q4 27 -13 38t-52 11h-70l12 74h54q72 0 81 51q4 21 -15 32t-52 11q-67 0 -131 -34l12 80q61 29 130 29q61 0 101.5 -33t31.5 -86z" />
    <glyph glyph-name="questiondown" unicode="&#xbf;" horiz-adv-x="490" 
d="M382 -183q-97 -50 -196 -50t-161 46t-49 133q6 38 31 75.5t56.5 67.5t62.5 58t54.5 58t27.5 57h103q-7 -45 -41 -90.5t-70.5 -77t-69.5 -71t-38 -72.5q-6 -44 24.5 -62t93.5 -18q96 0 190 56zM351 421q-10 -58 -72 -58q-30 0 -48 19t-12 52q4 30 23.5 44.5t47.5 14.5
q30 0 48.5 -19t12.5 -53z" />
    <glyph glyph-name="Agrave" unicode="&#xc0;" horiz-adv-x="728" 
d="M676 0h-117l-38 151h-352l-86 -151h-124l407 700h126zM395 547l-170 -296h272l-75 297q-4 15 -7 43q-10 -27 -20 -44zM514 767h-109l-83 148h125z" />
    <glyph glyph-name="Aacute" unicode="&#xc1;" horiz-adv-x="728" 
d="M676 0h-117l-38 151h-352l-86 -151h-124l407 700h126zM395 547l-170 -296h272l-75 297q-4 15 -7 43q-10 -27 -20 -44zM483 767h-114l114 148h129z" />
    <glyph glyph-name="Acircumflex" unicode="&#xc2;" horiz-adv-x="728" 
d="M676 0h-117l-38 151h-352l-86 -151h-124l407 700h126zM395 547l-170 -296h272l-75 297q-4 15 -7 43q-10 -27 -20 -44zM413 915h95l105 -150h-105l-54 76l-79 -76h-114z" />
    <glyph glyph-name="Atilde" unicode="&#xc3;" horiz-adv-x="728" 
d="M676 0h-117l-38 151h-352l-86 -151h-124l407 700h126zM395 547l-170 -296h272l-75 297q-4 15 -7 43q-10 -27 -20 -44zM620 880q2 -58 -27.5 -90t-72.5 -32q-34 0 -81.5 21t-61.5 21q-17 0 -25.5 -11t-7.5 -25h-83q-1 57 28 89.5t72 32.5q34 0 81.5 -21t61.5 -21
q18 0 26.5 10.5t6.5 25.5h83z" />
    <glyph glyph-name="Adieresis" unicode="&#xc4;" horiz-adv-x="728" 
d="M676 0h-117l-38 151h-352l-86 -151h-124l407 700h126zM395 547l-170 -296h272l-75 297q-4 15 -7 43q-10 -27 -20 -44zM614 828q-4 -23 -23.5 -40t-44.5 -17q-28 0 -45 21.5t-13 49.5q5 24 24.5 40.5t43.5 16.5q28 0 45.5 -21t12.5 -50zM406 828q-4 -23 -23.5 -40
t-44.5 -17q-28 0 -45 21.5t-13 49.5q5 24 24.5 40.5t43.5 16.5q28 0 45.5 -21t12.5 -50z" />
    <glyph glyph-name="Aring" unicode="&#xc5;" horiz-adv-x="728" 
d="M676 0h-117l-38 151h-352l-86 -151h-124l407 700h126zM395 547l-170 -296h272l-75 297q-4 15 -7 43q-10 -27 -20 -44zM575 849q-9 -51 -46.5 -80t-85.5 -29q-49 0 -82 34t-24 88q8 49 46 78t86 29t81 -34t25 -86zM406 855q-4 -22 8.5 -36t31.5 -14q22 0 38.5 12.5
t20.5 35.5q4 22 -8.5 36t-31.5 14q-22 0 -38.5 -12.5t-20.5 -35.5z" />
    <glyph glyph-name="AE" unicode="&#xc6;" horiz-adv-x="1017" 
d="M1029 700l-16 -104h-339l-31 -191h310l-17 -104h-309l-32 -197h346l-16 -104h-461l25 154h-286l-128 -154h-128l583 700h499zM281 251h222l53 332z" />
    <glyph glyph-name="Ccedilla" unicode="&#xc7;" horiz-adv-x="647" 
d="M647 558q-61 50 -161 50q-71 0 -136.5 -26t-118 -85t-65.5 -142q-10 -66 6 -118t51.5 -82.5t79.5 -46.5t93 -16q107 0 191 54l-19 -118q-72 -36 -177 -41l-18 -41q46 -1 70 -24.5t18 -64.5q-6 -45 -46.5 -67.5t-96.5 -22.5t-107 19l13 75q38 -19 84 -19q67 0 71 30
q2 14 -12 22t-37.5 8.5t-51.5 -3.5l34 93q-60 9 -111 37t-90 73.5t-55.5 114t-3.5 150.5t56.5 150t103.5 109.5t127.5 64t133.5 22.5q111 0 191 -49z" />
    <glyph glyph-name="Egrave" unicode="&#xc8;" horiz-adv-x="620" 
d="M150 700h482l-17 -104h-368l-30 -191h338l-16 -104h-338l-31 -197h373l-16 -104h-488zM476 767h-109l-83 148h125z" />
    <glyph glyph-name="Eacute" unicode="&#xc9;" horiz-adv-x="620" 
d="M150 700h482l-17 -104h-368l-30 -191h338l-16 -104h-338l-31 -197h373l-16 -104h-488zM445 767h-114l114 148h129z" />
    <glyph glyph-name="Ecircumflex" unicode="&#xca;" horiz-adv-x="620" 
d="M150 700h482l-17 -104h-368l-30 -191h338l-16 -104h-338l-31 -197h373l-16 -104h-488zM375 915h95l105 -150h-105l-54 76l-79 -76h-114z" />
    <glyph glyph-name="Edieresis" unicode="&#xcb;" horiz-adv-x="620" 
d="M150 700h482l-17 -104h-368l-30 -191h338l-16 -104h-338l-31 -197h373l-16 -104h-488zM576 828q-4 -23 -23.5 -40t-44.5 -17q-28 0 -45 21.5t-13 49.5q5 24 24.5 40.5t43.5 16.5q28 0 45.5 -21t12.5 -50zM368 828q-4 -23 -23.5 -40t-44.5 -17q-28 0 -45 21.5t-13 49.5
q5 24 24.5 40.5t43.5 16.5q28 0 45.5 -21t12.5 -50z" />
    <glyph glyph-name="Igrave" unicode="&#xcc;" horiz-adv-x="284" 
d="M150 700h114l-111 -700h-114zM292 767h-109l-83 148h125z" />
    <glyph glyph-name="Iacute" unicode="&#xcd;" horiz-adv-x="284" 
d="M150 700h114l-111 -700h-114zM261 767h-114l114 148h129z" />
    <glyph glyph-name="Icircumflex" unicode="&#xce;" horiz-adv-x="284" 
d="M150 700h114l-111 -700h-114zM191 915h95l105 -150h-105l-54 76l-79 -76h-114z" />
    <glyph glyph-name="Idieresis" unicode="&#xcf;" horiz-adv-x="284" 
d="M150 700h114l-111 -700h-114zM392 828q-4 -23 -23.5 -40t-44.5 -17q-28 0 -45 21.5t-13 49.5q5 24 24.5 40.5t43.5 16.5q28 0 45.5 -21t12.5 -50zM184 828q-4 -23 -23.5 -40t-44.5 -17q-28 0 -45 21.5t-13 49.5q5 24 24.5 40.5t43.5 16.5q28 0 45.5 -21t12.5 -50z" />
    <glyph glyph-name="Eth" unicode="&#xd0;" horiz-adv-x="746" 
d="M156 700h242q174 0 257 -99t58 -258q-25 -157 -130.5 -250t-287.5 -93h-250l47 303h-77l15 92h77zM303 104q123 0 199 66t95 187q19 116 -34.5 177.5t-176.5 61.5h-133l-32 -201h186l-15 -92h-186l-31 -199h128z" />
    <glyph glyph-name="Ntilde" unicode="&#xd1;" horiz-adv-x="767" 
d="M153 0h-114l111 700h96l308 -516q5 49 10 83l69 433h114l-111 -700h-96l-308 516q-3 -42 -9 -80zM637 880q2 -58 -27.5 -90t-72.5 -32q-34 0 -81.5 21t-61.5 21q-17 0 -25.5 -11t-7.5 -25h-83q-1 57 28 89.5t72 32.5q34 0 81.5 -21t61.5 -21q18 0 26.5 10.5t6.5 25.5h83z
" />
    <glyph glyph-name="Ograve" unicode="&#xd2;" horiz-adv-x="817" 
d="M786 343q-12 -70 -44 -132.5t-83.5 -113.5t-127.5 -80.5t-166 -29.5q-112 0 -190.5 53.5t-109 137t-15.5 179.5q11 70 44.5 133t85 113t127 80t163.5 30q165 0 252.5 -111t63.5 -259zM165 348q-16 -102 37 -178t170 -76q123 0 202 74t97 184q10 65 -7 121t-69 94.5
t-132 38.5q-123 0 -201.5 -74t-96.5 -184zM555 767h-109l-83 148h125z" />
    <glyph glyph-name="Oacute" unicode="&#xd3;" horiz-adv-x="817" 
d="M786 343q-12 -70 -44 -132.5t-83.5 -113.5t-127.5 -80.5t-166 -29.5q-112 0 -190.5 53.5t-109 137t-15.5 179.5q11 70 44.5 133t85 113t127 80t163.5 30q165 0 252.5 -111t63.5 -259zM165 348q-16 -102 37 -178t170 -76q123 0 202 74t97 184q10 65 -7 121t-69 94.5
t-132 38.5q-123 0 -201.5 -74t-96.5 -184zM524 767h-114l114 148h129z" />
    <glyph glyph-name="Ocircumflex" unicode="&#xd4;" horiz-adv-x="817" 
d="M786 343q-12 -70 -44 -132.5t-83.5 -113.5t-127.5 -80.5t-166 -29.5q-112 0 -190.5 53.5t-109 137t-15.5 179.5q11 70 44.5 133t85 113t127 80t163.5 30q165 0 252.5 -111t63.5 -259zM165 348q-16 -102 37 -178t170 -76q123 0 202 74t97 184q10 65 -7 121t-69 94.5
t-132 38.5q-123 0 -201.5 -74t-96.5 -184zM454 915h95l105 -150h-105l-54 76l-79 -76h-114z" />
    <glyph glyph-name="Otilde" unicode="&#xd5;" horiz-adv-x="817" 
d="M786 343q-12 -70 -44 -132.5t-83.5 -113.5t-127.5 -80.5t-166 -29.5q-112 0 -190.5 53.5t-109 137t-15.5 179.5q11 70 44.5 133t85 113t127 80t163.5 30q165 0 252.5 -111t63.5 -259zM165 348q-16 -102 37 -178t170 -76q123 0 202 74t97 184q10 65 -7 121t-69 94.5
t-132 38.5q-123 0 -201.5 -74t-96.5 -184zM661 880q2 -58 -27.5 -90t-72.5 -32q-34 0 -81.5 21t-61.5 21q-17 0 -25.5 -11t-7.5 -25h-83q-1 57 28 89.5t72 32.5q34 0 81.5 -21t61.5 -21q18 0 26.5 10.5t6.5 25.5h83z" />
    <glyph glyph-name="Odieresis" unicode="&#xd6;" horiz-adv-x="817" 
d="M786 343q-12 -70 -44 -132.5t-83.5 -113.5t-127.5 -80.5t-166 -29.5q-112 0 -190.5 53.5t-109 137t-15.5 179.5q11 70 44.5 133t85 113t127 80t163.5 30q165 0 252.5 -111t63.5 -259zM165 348q-16 -102 37 -178t170 -76q123 0 202 74t97 184q10 65 -7 121t-69 94.5
t-132 38.5q-123 0 -201.5 -74t-96.5 -184zM655 828q-4 -23 -23.5 -40t-44.5 -17q-28 0 -45 21.5t-13 49.5q5 24 24.5 40.5t43.5 16.5q28 0 45.5 -21t12.5 -50zM447 828q-4 -23 -23.5 -40t-44.5 -17q-28 0 -45 21.5t-13 49.5q5 24 24.5 40.5t43.5 16.5q28 0 45.5 -21
t12.5 -50z" />
    <glyph glyph-name="multiply" unicode="&#xd7;" horiz-adv-x="494" 
d="M249 288l-147 -127l-55 64l147 126l-107 127l72 63l106 -126l146 126l55 -63l-146 -127l107 -126l-72 -64z" />
    <glyph glyph-name="Oslash" unicode="&#xd8;" horiz-adv-x="817" 
d="M113 -48h-92l110 125q-51 52 -72.5 126t-8.5 154q11 70 44.5 133t85 113t127 80t163.5 30q102 0 180 -47l73 82h92l-111 -125q51 -53 72.5 -126.5t9.5 -153.5q-12 -70 -44 -132.5t-83 -113.5t-127 -80.5t-166 -29.5q-102 0 -181 47zM165 348q-18 -111 43 -184l367 416
q-49 26 -112 26q-123 0 -201.5 -74t-96.5 -184zM260 120q49 -26 112 -26q123 0 202 74t96 184q18 110 -42 184z" />
    <glyph glyph-name="Ugrave" unicode="&#xd9;" horiz-adv-x="753" 
d="M626 700h114l-70 -444q-12 -74 -43.5 -127.5t-77.5 -83.5t-98 -44t-113 -14t-112 15t-91 46.5t-57.5 86.5t-5.5 128l70 437h114l-69 -438q-28 -169 153 -169q189 0 218 176zM516 767h-109l-83 148h125z" />
    <glyph glyph-name="Uacute" unicode="&#xda;" horiz-adv-x="753" 
d="M626 700h114l-70 -444q-12 -74 -43.5 -127.5t-77.5 -83.5t-98 -44t-113 -14t-112 15t-91 46.5t-57.5 86.5t-5.5 128l70 437h114l-69 -438q-28 -169 153 -169q189 0 218 176zM485 767h-114l114 148h129z" />
    <glyph glyph-name="Ucircumflex" unicode="&#xdb;" horiz-adv-x="753" 
d="M626 700h114l-70 -444q-12 -74 -43.5 -127.5t-77.5 -83.5t-98 -44t-113 -14t-112 15t-91 46.5t-57.5 86.5t-5.5 128l70 437h114l-69 -438q-28 -169 153 -169q189 0 218 176zM415 915h95l105 -150h-105l-54 76l-79 -76h-114z" />
    <glyph glyph-name="Udieresis" unicode="&#xdc;" horiz-adv-x="753" 
d="M626 700h114l-70 -444q-12 -74 -43.5 -127.5t-77.5 -83.5t-98 -44t-113 -14t-112 15t-91 46.5t-57.5 86.5t-5.5 128l70 437h114l-69 -438q-28 -169 153 -169q189 0 218 176zM616 828q-4 -23 -23.5 -40t-44.5 -17q-28 0 -45 21.5t-13 49.5q5 24 24.5 40.5t43.5 16.5
q28 0 45.5 -21t12.5 -50zM408 828q-4 -23 -23.5 -40t-44.5 -17q-28 0 -45 21.5t-13 49.5q5 24 24.5 40.5t43.5 16.5q28 0 45.5 -21t12.5 -50z" />
    <glyph glyph-name="Yacute" unicode="&#xdd;" horiz-adv-x="676" 
d="M348 0h-114l42 257l-204 443h122l151 -336l258 336h132l-345 -443zM448 767h-114l114 148h129z" />
    <glyph glyph-name="Thorn" unicode="&#xde;" horiz-adv-x="661" 
d="M245 580h137q47 0 87.5 -7t77 -24.5t60.5 -44t34.5 -67.5t2.5 -94q-20 -122 -106.5 -172.5t-226.5 -50.5h-138l-20 -120h-114l111 700h114zM189 224h139q85 0 137 29t64 102q6 36 -4.5 60.5t-33.5 37t-50 18t-62 5.5h-150z" />
    <glyph glyph-name="germandbls" unicode="&#xdf;" horiz-adv-x="591" 
d="M539 135q-12 -73 -74 -110.5t-141 -37.5q-67 0 -124 25l14 86q41 -23 91 -23q49 0 85.5 21t42.5 61q4 27 -14 56.5t-42 52.5t-42 52.5t-14 56.5q5 33 49 85.5t51 91.5q6 34 -16 53.5t-65 19.5q-53 0 -88 -30t-43 -82l-82 -513h-107l79 497q16 105 78.5 160t164.5 56
q67 0 112.5 -25t61.5 -60t10 -72q-8 -45 -54.5 -100.5t-49.5 -78.5q-3 -17 10 -36t32.5 -39t38.5 -42.5t30.5 -55.5t5.5 -69z" />
    <glyph glyph-name="agrave" unicode="&#xe0;" horiz-adv-x="620" 
d="M425 77q-77 -90 -194 -90q-106 0 -162.5 76t-39.5 184q17 104 92.5 175t179.5 71q116 0 175 -94l12 81h96l-76 -480h-96zM135 239q-11 -68 23.5 -113t97.5 -45q54 0 100.5 30t72.5 73l19 117q-10 42 -45.5 70t-86.5 28q-68 0 -118.5 -44t-62.5 -116zM414 550h-109
l-83 148h125z" />
    <glyph glyph-name="aacute" unicode="&#xe1;" horiz-adv-x="620" 
d="M425 77q-77 -90 -194 -90q-106 0 -162.5 76t-39.5 184q17 104 92.5 175t179.5 71q116 0 175 -94l12 81h96l-76 -480h-96zM135 239q-11 -68 23.5 -113t97.5 -45q54 0 100.5 30t72.5 73l19 117q-10 42 -45.5 70t-86.5 28q-68 0 -118.5 -44t-62.5 -116zM383 550h-114
l114 148h129z" />
    <glyph glyph-name="acircumflex" unicode="&#xe2;" horiz-adv-x="620" 
d="M425 77q-77 -90 -194 -90q-106 0 -162.5 76t-39.5 184q17 104 92.5 175t179.5 71q116 0 175 -94l12 81h96l-76 -480h-96zM135 239q-11 -68 23.5 -113t97.5 -45q54 0 100.5 30t72.5 73l19 117q-10 42 -45.5 70t-86.5 28q-68 0 -118.5 -44t-62.5 -116zM313 698h95l105 -150
h-105l-54 76l-79 -76h-114z" />
    <glyph glyph-name="atilde" unicode="&#xe3;" horiz-adv-x="620" 
d="M425 77q-77 -90 -194 -90q-106 0 -162.5 76t-39.5 184q17 104 92.5 175t179.5 71q116 0 175 -94l12 81h96l-76 -480h-96zM135 239q-11 -68 23.5 -113t97.5 -45q54 0 100.5 30t72.5 73l19 117q-10 42 -45.5 70t-86.5 28q-68 0 -118.5 -44t-62.5 -116zM520 663
q2 -58 -27.5 -90t-72.5 -32q-34 0 -81.5 21t-61.5 21q-17 0 -25.5 -11t-7.5 -25h-83q-1 57 28 89.5t72 32.5q34 0 81.5 -21t61.5 -21q18 0 26.5 10.5t6.5 25.5h83z" />
    <glyph glyph-name="adieresis" unicode="&#xe4;" horiz-adv-x="620" 
d="M425 77q-77 -90 -194 -90q-106 0 -162.5 76t-39.5 184q17 104 92.5 175t179.5 71q116 0 175 -94l12 81h96l-76 -480h-96zM135 239q-11 -68 23.5 -113t97.5 -45q54 0 100.5 30t72.5 73l19 117q-10 42 -45.5 70t-86.5 28q-68 0 -118.5 -44t-62.5 -116zM514 611
q-4 -23 -23.5 -40t-44.5 -17q-28 0 -45 21.5t-13 49.5q5 24 24.5 40.5t43.5 16.5q28 0 45.5 -21t12.5 -50zM306 611q-4 -23 -23.5 -40t-44.5 -17q-28 0 -45 21.5t-13 49.5q5 24 24.5 40.5t43.5 16.5q28 0 45.5 -21t12.5 -50z" />
    <glyph glyph-name="aring" unicode="&#xe5;" horiz-adv-x="620" 
d="M425 77q-77 -90 -194 -90q-106 0 -162.5 76t-39.5 184q17 104 92.5 175t179.5 71q116 0 175 -94l12 81h96l-76 -480h-96zM135 239q-11 -68 23.5 -113t97.5 -45q54 0 100.5 30t72.5 73l19 117q-10 42 -45.5 70t-86.5 28q-68 0 -118.5 -44t-62.5 -116zM475 632
q-9 -51 -46.5 -80t-85.5 -29q-49 0 -82 34t-24 88q8 49 46 78t86 29t81 -34t25 -86zM306 638q-4 -22 8.5 -36t31.5 -14q22 0 38.5 12.5t20.5 35.5q4 22 -8.5 36t-31.5 14q-22 0 -38.5 -12.5t-20.5 -35.5z" />
    <glyph glyph-name="ae" unicode="&#xe6;" horiz-adv-x="969" 
d="M425 77q-77 -90 -194 -90q-106 0 -162.5 76t-39.5 184q17 104 92.5 175t179.5 71q116 0 175 -94l12 81h93l-13 -78q68 91 182 91q65 0 108.5 -26t61.5 -69t17 -94.5t-21 -105.5h-366q0 -61 47.5 -90.5t116.5 -29.5q89 0 158 37l-15 -95q-69 -33 -158 -33q-58 0 -108 25.5
t-73 72.5l-13 -85h-93zM134 239q-11 -68 23.5 -113t97.5 -45q54 0 100.5 30t72.5 73l19 117q-10 42 -45.5 70t-86.5 28q-68 0 -118.5 -44t-62.5 -116zM728 404q-60 0 -105 -34t-58 -92h267q12 44 -11.5 85t-92.5 41z" />
    <glyph glyph-name="ccedilla" unicode="&#xe7;" horiz-adv-x="494" 
d="M463 357q-47 41 -124 41q-74 0 -132 -39.5t-71 -120.5q-11 -77 31 -116.5t115 -39.5q69 0 149 40l-16 -102q-59 -27 -133 -32l-17 -42q46 -1 70 -24.5t18 -64.5q-7 -45 -47 -67.5t-96 -22.5t-107 19l12 75q38 -19 84 -19q67 0 72 30q2 14 -12 22t-37.5 8.5t-51.5 -3.5
l34 93q-90 15 -141 81t-33 174q19 123 106.5 184.5t192.5 61.5q85 0 150 -42z" />
    <glyph glyph-name="egrave" unicode="&#xe8;" horiz-adv-x="545" 
d="M29 246q18 118 100 182.5t177 64.5q55 0 96.5 -17.5t65.5 -46.5t35 -67t8 -80t-19 -84h-362q-1 -61 46.5 -90.5t114.5 -29.5q94 0 165 37l-16 -96q-70 -32 -172 -32q-110 0 -183.5 69t-55.5 190zM409 278q12 44 -11.5 85t-92.5 41q-58 0 -104.5 -34.5t-58.5 -91.5h267z
M389 547h-109l-83 148h125z" />
    <glyph glyph-name="eacute" unicode="&#xe9;" horiz-adv-x="545" 
d="M29 246q18 118 100 182.5t177 64.5q55 0 96.5 -17.5t65.5 -46.5t35 -67t8 -80t-19 -84h-362q-1 -61 46.5 -90.5t114.5 -29.5q94 0 165 37l-16 -96q-70 -32 -172 -32q-110 0 -183.5 69t-55.5 190zM409 278q12 44 -11.5 85t-92.5 41q-58 0 -104.5 -34.5t-58.5 -91.5h267z
M358 547h-114l114 148h129z" />
    <glyph glyph-name="ecircumflex" unicode="&#xea;" horiz-adv-x="545" 
d="M29 246q18 118 100 182.5t177 64.5q55 0 96.5 -17.5t65.5 -46.5t35 -67t8 -80t-19 -84h-362q-1 -61 46.5 -90.5t114.5 -29.5q94 0 165 37l-16 -96q-70 -32 -172 -32q-110 0 -183.5 69t-55.5 190zM409 278q12 44 -11.5 85t-92.5 41q-58 0 -104.5 -34.5t-58.5 -91.5h267z
M288 695h95l105 -150h-105l-54 76l-79 -76h-114z" />
    <glyph glyph-name="edieresis" unicode="&#xeb;" horiz-adv-x="545" 
d="M29 246q18 118 100 182.5t177 64.5q55 0 96.5 -17.5t65.5 -46.5t35 -67t8 -80t-19 -84h-362q-1 -61 46.5 -90.5t114.5 -29.5q94 0 165 37l-16 -96q-70 -32 -172 -32q-110 0 -183.5 69t-55.5 190zM409 278q12 44 -11.5 85t-92.5 41q-58 0 -104.5 -34.5t-58.5 -91.5h267z
M489 608q-4 -23 -23.5 -40t-44.5 -17q-28 0 -45 21.5t-13 49.5q5 24 24.5 40.5t43.5 16.5q28 0 45.5 -21t12.5 -50zM281 608q-4 -23 -23.5 -40t-44.5 -17q-28 0 -45 21.5t-13 49.5q5 24 24.5 40.5t43.5 16.5q28 0 45.5 -21t12.5 -50z" />
    <glyph glyph-name="igrave" unicode="&#xec;" horiz-adv-x="245" 
d="M226 547h-106l-56 148h125zM130 0h-107l76 480h107z" />
    <glyph glyph-name="iacute" unicode="&#xed;" horiz-adv-x="245" 
d="M130 0h-107l76 480h107zM207 547h-114l114 148h129z" />
    <glyph glyph-name="icircumflex" unicode="&#xee;" horiz-adv-x="245" 
d="M130 0h-107l76 480h107zM115 545h-111l132 150h95l85 -150h-105l-36 76z" />
    <glyph glyph-name="idieresis" unicode="&#xef;" horiz-adv-x="245" 
d="M130 0h-107l76 480h107zM142 609q-3 -22 -21.5 -37.5t-41.5 -15.5q-26 0 -41.5 19.5t-11.5 46.5q4 21 22 36.5t41 15.5q26 0 42 -19.5t11 -45.5zM315 609q-3 -22 -21.5 -37.5t-41.5 -15.5q-26 0 -41.5 19.5t-11.5 46.5q5 22 22.5 37t40.5 15q26 0 42 -19.5t11 -45.5z" />
    <glyph glyph-name="eth" unicode="&#xf0;" horiz-adv-x="587" 
d="M540 267q-22 -140 -101 -210t-191 -70q-109 0 -172.5 66t-47.5 173q15 96 86.5 155.5t161.5 59.5q62 0 110 -26t67 -70q2 12 2 34q-6 136 -112 196l-102 -89l-47 54l75 64q-43 11 -113 11l9 90q99 0 179 -33l96 82l47 -54l-75 -64q170 -112 128 -369zM135 216
q-9 -62 23.5 -98t97.5 -36q64 0 105.5 35t57.5 95q8 62 -26 100.5t-97 38.5t-107 -37.5t-54 -97.5z" />
    <glyph glyph-name="ntilde" unicode="&#xf1;" horiz-adv-x="587" 
d="M180 411q84 82 184 82q87 0 132 -56.5t31 -142.5l-47 -294h-107l45 286q9 57 -15.5 84.5t-73.5 27.5q-42 0 -83 -24.5t-70 -58.5l-49 -315h-107l76 480h95zM521 660q2 -58 -27.5 -90t-72.5 -32q-34 0 -81.5 21t-61.5 21q-17 0 -25.5 -11t-7.5 -25h-83q-1 57 28 89.5
t72 32.5q34 0 81.5 -21t61.5 -21q18 0 26.5 10.5t6.5 25.5h83z" />
    <glyph glyph-name="ograve" unicode="&#xf2;" horiz-adv-x="591" 
d="M546 232q-18 -116 -104 -180.5t-191 -64.5q-107 0 -174 70t-48 191q19 116 104 180.5t191 64.5t174 -70.5t48 -190.5zM135 236q-11 -68 23.5 -109.5t101.5 -41.5q69 0 119 43.5t62 115.5q10 68 -24 109.5t-101 41.5q-68 0 -118.5 -43.5t-62.5 -115.5zM404 544h-109
l-83 148h125z" />
    <glyph glyph-name="oacute" unicode="&#xf3;" horiz-adv-x="591" 
d="M546 232q-18 -116 -104 -180.5t-191 -64.5q-107 0 -174 70t-48 191q19 116 104 180.5t191 64.5t174 -70.5t48 -190.5zM135 236q-11 -68 23.5 -109.5t101.5 -41.5q69 0 119 43.5t62 115.5q10 68 -24 109.5t-101 41.5q-68 0 -118.5 -43.5t-62.5 -115.5zM373 544h-114
l114 148h129z" />
    <glyph glyph-name="ocircumflex" unicode="&#xf4;" horiz-adv-x="591" 
d="M546 232q-18 -116 -104 -180.5t-191 -64.5q-107 0 -174 70t-48 191q19 116 104 180.5t191 64.5t174 -70.5t48 -190.5zM135 236q-11 -68 23.5 -109.5t101.5 -41.5q69 0 119 43.5t62 115.5q10 68 -24 109.5t-101 41.5q-68 0 -118.5 -43.5t-62.5 -115.5zM303 692h95
l105 -150h-105l-54 76l-79 -76h-114z" />
    <glyph glyph-name="otilde" unicode="&#xf5;" horiz-adv-x="591" 
d="M546 232q-18 -116 -104 -180.5t-191 -64.5q-107 0 -174 70t-48 191q19 116 104 180.5t191 64.5t174 -70.5t48 -190.5zM135 236q-11 -68 23.5 -109.5t101.5 -41.5q69 0 119 43.5t62 115.5q10 68 -24 109.5t-101 41.5q-68 0 -118.5 -43.5t-62.5 -115.5zM510 657
q2 -58 -27.5 -90t-72.5 -32q-34 0 -81.5 21t-61.5 21q-17 0 -25.5 -11t-7.5 -25h-83q-1 57 28 89.5t72 32.5q34 0 81.5 -21t61.5 -21q18 0 26.5 10.5t6.5 25.5h83z" />
    <glyph glyph-name="odieresis" unicode="&#xf6;" horiz-adv-x="591" 
d="M546 232q-18 -116 -104 -180.5t-191 -64.5q-107 0 -174 70t-48 191q19 116 104 180.5t191 64.5t174 -70.5t48 -190.5zM135 236q-11 -68 23.5 -109.5t101.5 -41.5q69 0 119 43.5t62 115.5q10 68 -24 109.5t-101 41.5q-68 0 -118.5 -43.5t-62.5 -115.5zM504 605
q-4 -23 -23.5 -40t-44.5 -17q-28 0 -45 21.5t-13 49.5q5 24 24.5 40.5t43.5 16.5q28 0 45.5 -21t12.5 -50zM296 605q-4 -23 -23.5 -40t-44.5 -17q-28 0 -45 21.5t-13 49.5q5 24 24.5 40.5t43.5 16.5q28 0 45.5 -21t12.5 -50z" />
    <glyph glyph-name="divide" unicode="&#xf7;" horiz-adv-x="584" 
d="M534 302h-480l15 96h480zM333 120q-10 -59 -71 -59q-31 0 -49 19t-12 53q4 29 24 43.5t47 14.5q31 0 48.5 -18.5t12.5 -52.5zM403 567q-8 -59 -71 -59q-30 0 -48 19t-12 53q4 29 24 43.5t47 14.5q31 0 48.5 -18.5t11.5 -52.5z" />
    <glyph glyph-name="oslash" unicode="&#xf8;" horiz-adv-x="591" 
d="M567 543l-85 -105q85 -75 65 -206q-12 -78 -59 -135t-108.5 -83.5t-128.5 -26.5q-63 0 -115 27l-59 -75h-68l84 104q-86 72 -64 205q19 116 104 180.5t191 64.5q62 0 114 -26l61 76h68zM316 395q-69 0 -119.5 -43.5t-61.5 -115.5q-12 -68 25 -110l212 259q-28 10 -56 10z
M260 85q69 0 119 43.5t62 115.5q12 70 -26 111l-212 -260q28 -10 57 -10z" />
    <glyph glyph-name="ugrave" unicode="&#xf9;" horiz-adv-x="586" 
d="M442 480h107l-76 -480h-94l11 69q-32 -37 -78.5 -59.5t-97.5 -22.5q-90 0 -137.5 57t-33.5 144l46 292h107l-45 -286q-17 -112 90 -112q87 0 151 83zM400 547h-109l-83 148h125z" />
    <glyph glyph-name="uacute" unicode="&#xfa;" horiz-adv-x="586" 
d="M442 480h107l-76 -480h-94l11 69q-32 -37 -78.5 -59.5t-97.5 -22.5q-90 0 -137.5 57t-33.5 144l46 292h107l-45 -286q-17 -112 90 -112q87 0 151 83zM369 547h-114l114 148h129z" />
    <glyph glyph-name="ucircumflex" unicode="&#xfb;" horiz-adv-x="586" 
d="M442 480h107l-76 -480h-94l11 69q-32 -37 -78.5 -59.5t-97.5 -22.5q-90 0 -137.5 57t-33.5 144l46 292h107l-45 -286q-17 -112 90 -112q87 0 151 83zM299 695h95l105 -150h-105l-54 76l-79 -76h-114z" />
    <glyph glyph-name="udieresis" unicode="&#xfc;" horiz-adv-x="586" 
d="M442 480h107l-76 -480h-94l11 69q-32 -37 -78.5 -59.5t-97.5 -22.5q-90 0 -137.5 57t-33.5 144l46 292h107l-45 -286q-17 -112 90 -112q87 0 151 83zM500 608q-4 -23 -23.5 -40t-44.5 -17q-28 0 -45 21.5t-13 49.5q5 24 24.5 40.5t43.5 16.5q28 0 45.5 -21t12.5 -50z
M292 608q-4 -23 -23.5 -40t-44.5 -17q-28 0 -45 21.5t-13 49.5q5 24 24.5 40.5t43.5 16.5q28 0 45.5 -21t12.5 -50z" />
    <glyph glyph-name="yacute" unicode="&#xfd;" horiz-adv-x="548" 
d="M251 116l194 364h121l-311 -548q-94 -164 -216 -164q-35 0 -68 11l14 88q21 -7 44 -7q40 0 72.5 28.5t66.5 88.5l18 27l-150 476h110zM343 547h-114l114 148h129z" />
    <glyph glyph-name="thorn" unicode="&#xfe;" horiz-adv-x="619" 
d="M92 -220h-107l146 920h107l-46 -285q74 78 181 78q105 0 162 -76t39 -184q-15 -104 -91 -175t-180 -71q-113 0 -165 86zM155 178q12 -42 47 -69.5t86 -27.5q67 0 118 44.5t63 116.5q11 68 -23.5 112.5t-97.5 44.5q-55 0 -101 -30t-73 -74z" />
    <glyph glyph-name="ydieresis" unicode="&#xff;" horiz-adv-x="548" 
d="M251 116l194 364h121l-311 -548q-94 -164 -216 -164q-35 0 -68 11l14 88q21 -7 44 -7q40 0 72.5 28.5t66.5 88.5l18 27l-150 476h110zM474 608q-4 -23 -23.5 -40t-44.5 -17q-28 0 -45 21.5t-13 49.5q5 24 24.5 40.5t43.5 16.5q28 0 45.5 -21t12.5 -50zM266 608
q-4 -23 -23.5 -40t-44.5 -17q-28 0 -45 21.5t-13 49.5q5 24 24.5 40.5t43.5 16.5q28 0 45.5 -21t12.5 -50z" />
    <glyph glyph-name="Amacron" unicode="&#x100;" horiz-adv-x="728" 
d="M676 0h-117l-38 151h-352l-86 -151h-124l407 700h126zM395 547l-170 -296h272l-75 297q-4 15 -7 43q-10 -27 -20 -44zM304 869h312l-15 -90h-312z" />
    <glyph glyph-name="amacron" unicode="&#x101;" horiz-adv-x="620" 
d="M425 77q-77 -90 -194 -90q-106 0 -162.5 76t-39.5 184q17 104 92.5 175t179.5 71q116 0 175 -94l12 81h96l-76 -480h-96zM135 239q-11 -68 23.5 -113t97.5 -45q54 0 100.5 30t72.5 73l19 117q-10 42 -45.5 70t-86.5 28q-68 0 -118.5 -44t-62.5 -116zM204 652h312l-15 -90
h-312z" />
    <glyph glyph-name="Abreve" unicode="&#x102;" horiz-adv-x="728" 
d="M676 0h-117l-38 151h-352l-86 -151h-124l407 700h126zM395 547l-170 -296h272l-75 297q-4 15 -7 43q-10 -27 -20 -44zM594 805q-68 -43 -151 -43q-89 0 -144 43l14 93q63 -44 138 -44q82 0 157 44z" />
    <glyph glyph-name="abreve" unicode="&#x103;" horiz-adv-x="620" 
d="M425 77q-77 -90 -194 -90q-106 0 -162.5 76t-39.5 184q17 104 92.5 175t179.5 71q116 0 175 -94l12 81h96l-76 -480h-96zM135 239q-11 -68 23.5 -113t97.5 -45q54 0 100.5 30t72.5 73l19 117q-10 42 -45.5 70t-86.5 28q-68 0 -118.5 -44t-62.5 -116zM494 588
q-68 -43 -151 -43q-89 0 -144 43l14 93q63 -44 138 -44q82 0 157 44z" />
    <glyph glyph-name="Aogonek" unicode="&#x104;" horiz-adv-x="728" 
d="M676 0q-42 -25 -71 -58.5t-31 -59.5q-2 -15 6 -23t26 -8q22 0 48 14l-13 -82q-31 -15 -72 -15q-53 0 -77.5 28.5t-17.5 72.5q10 62 85 131l-38 151h-352l-86 -151h-124l407 700h126zM395 547l-170 -296h272l-75 297q-4 15 -7 43q-10 -27 -20 -44z" />
    <glyph glyph-name="aogonek" unicode="&#x105;" horiz-adv-x="620" 
d="M584 480l-76 -480q-42 -25 -71 -59t-31 -59q-5 -32 32 -32q23 0 48 10l-13 -81q-30 -12 -71 -12q-52 0 -77.5 28.5t-18.5 72.5q13 77 109 148l10 61q-77 -90 -194 -90q-106 0 -162.5 76t-39.5 184q17 104 92.5 175t179.5 71q116 0 175 -94l12 81h96zM135 239
q-11 -68 23.5 -113t97.5 -45q54 0 100.5 30t72.5 73l19 117q-10 42 -45.5 70t-86.5 28q-68 0 -118.5 -44t-62.5 -116z" />
    <glyph glyph-name="Cacute" unicode="&#x106;" horiz-adv-x="647" 
d="M52 367q13 82 56.5 150t103.5 109.5t127.5 64t133.5 22.5q111 0 191 -49l-16 -106q-61 50 -161 50q-112 0 -206 -65.5t-114 -187.5q-11 -66 5.5 -118t51.5 -82.5t79.5 -46.5t92.5 -16q107 0 191 54l-18 -118q-83 -41 -200 -41q-67 0 -128.5 24t-110 69.5t-71 120
t-7.5 166.5zM528 767h-114l114 148h129z" />
    <glyph glyph-name="cacute" unicode="&#x107;" horiz-adv-x="495" 
d="M30 247q10 64 41 113t74 77t90 42t95 14q86 0 150 -42l-16 -94q-48 41 -124 41q-74 0 -132 -39.5t-71 -120.5q-12 -77 30 -116.5t115 -39.5q70 0 150 40l-16 -102q-74 -33 -159 -33q-52 0 -96.5 16t-78 47t-48 82t-4.5 115zM369 547h-114l114 148h129z" />
    <glyph glyph-name="Cdotaccent" unicode="&#x10a;" horiz-adv-x="647" 
d="M52 367q13 82 56.5 150t103.5 109.5t127.5 64t133.5 22.5q111 0 191 -49l-16 -106q-61 50 -161 50q-112 0 -206 -65.5t-114 -187.5q-11 -66 5.5 -118t51.5 -82.5t79.5 -46.5t92.5 -16q107 0 191 54l-18 -118q-83 -41 -200 -41q-67 0 -128.5 24t-110 69.5t-71 120
t-7.5 166.5zM557 826q-5 -31 -25.5 -46.5t-48.5 -15.5q-32 0 -51 20t-13 56q5 30 25.5 45t48.5 15q32 0 51 -19.5t13 -54.5z" />
    <glyph glyph-name="cdotaccent" unicode="&#x10b;" horiz-adv-x="495" 
d="M30 247q10 64 41 113t74 77t90 42t95 14q86 0 150 -42l-16 -94q-48 41 -124 41q-74 0 -132 -39.5t-71 -120.5q-12 -77 30 -116.5t115 -39.5q70 0 150 40l-16 -102q-74 -33 -159 -33q-52 0 -96.5 16t-78 47t-48 82t-4.5 115zM398 606q-5 -31 -25.5 -46.5t-48.5 -15.5
q-32 0 -51 20t-13 56q5 30 25.5 45t48.5 15q32 0 51 -19.5t13 -54.5z" />
    <glyph glyph-name="Ccaron" unicode="&#x10c;" horiz-adv-x="647" 
d="M52 367q13 82 56.5 150t103.5 109.5t127.5 64t133.5 22.5q111 0 191 -49l-16 -106q-61 50 -161 50q-112 0 -206 -65.5t-114 -187.5q-11 -66 5.5 -118t51.5 -82.5t79.5 -46.5t92.5 -16q107 0 191 54l-18 -118q-83 -41 -200 -41q-67 0 -128.5 24t-110 69.5t-71 120
t-7.5 166.5zM684 911l-155 -150h-95l-108 150h107l55 -80l81 80h115z" />
    <glyph glyph-name="ccaron" unicode="&#x10d;" horiz-adv-x="495" 
d="M30 247q10 64 41 113t74 77t90 42t95 14q86 0 150 -42l-16 -94q-48 41 -124 41q-74 0 -132 -39.5t-71 -120.5q-12 -77 30 -116.5t115 -39.5q70 0 150 40l-16 -102q-74 -33 -159 -33q-52 0 -96.5 16t-78 47t-48 82t-4.5 115zM525 691l-155 -150h-95l-108 150h107l55 -80
l81 80h115z" />
    <glyph glyph-name="Dcaron" unicode="&#x10e;" horiz-adv-x="740" 
d="M150 700h242q174 0 257 -99t58 -258q-25 -157 -130.5 -250t-287.5 -93h-250zM592 357q19 116 -34.5 177.5t-176.5 61.5h-133l-78 -492h128q123 0 199 66t95 187zM605 911l-155 -150h-95l-108 150h107l55 -80l81 80h115z" />
    <glyph glyph-name="dcaron" unicode="&#x10f;" horiz-adv-x="620" 
d="M688 700h102l-61 -192h-88zM512 700h107l-111 -700h-95l12 79q-71 -92 -194 -92q-106 0 -162.5 76t-39.5 184q17 104 91.5 175t176.5 71q116 0 168 -83zM449 302q-11 41 -46.5 69t-86.5 28q-68 0 -118.5 -44t-62.5 -117q-11 -68 23.5 -112.5t97.5 -44.5q54 0 100.5 30
t72.5 73z" />
    <glyph glyph-name="Dcroat" unicode="&#x110;" horiz-adv-x="746" 
d="M156 700h242q174 0 257 -99t58 -258q-25 -157 -130.5 -250t-287.5 -93h-250l47 303h-77l15 92h77zM303 104q123 0 199 66t95 187q19 116 -34.5 177.5t-176.5 61.5h-133l-32 -201h186l-15 -92h-186l-31 -199h128z" />
    <glyph glyph-name="dcroat" unicode="&#x111;" horiz-adv-x="621" 
d="M607 626h60l-11 -72h-60l-88 -554h-95l12 79q-71 -92 -194 -92q-106 0 -162.5 76t-39.5 184q17 104 91.5 175t176.5 71q116 0 168 -83l24 144h-158l11 72h158l12 74h107zM256 81q54 0 100.5 30t72.5 73l20 118q-11 41 -46.5 69t-86.5 28q-68 0 -118.5 -44t-62.5 -117
q-11 -68 23.5 -112.5t97.5 -44.5z" />
    <glyph glyph-name="Emacron" unicode="&#x112;" horiz-adv-x="620" 
d="M150 700h482l-17 -104h-368l-30 -191h338l-16 -104h-338l-31 -197h373l-16 -104h-488zM266 869h312l-15 -90h-312z" />
    <glyph glyph-name="emacron" unicode="&#x113;" horiz-adv-x="545" 
d="M29 246q18 118 100 182.5t177 64.5q55 0 96.5 -17.5t65.5 -46.5t35 -67t8 -80t-19 -84h-362q-1 -61 46.5 -90.5t114.5 -29.5q94 0 165 37l-16 -96q-70 -32 -172 -32q-110 0 -183.5 69t-55.5 190zM409 278q12 44 -11.5 85t-92.5 41q-58 0 -104.5 -34.5t-58.5 -91.5h267z
M179 649h312l-15 -90h-312z" />
    <glyph glyph-name="Edotaccent" unicode="&#x116;" horiz-adv-x="620" 
d="M150 700h482l-17 -104h-368l-30 -191h338l-16 -104h-338l-31 -197h373l-16 -104h-488zM474 826q-5 -31 -25.5 -46.5t-48.5 -15.5q-32 0 -51 20t-13 56q5 30 25.5 45t48.5 15q32 0 51 -19.5t13 -54.5z" />
    <glyph glyph-name="edotaccent" unicode="&#x117;" horiz-adv-x="545" 
d="M29 246q18 118 100 182.5t177 64.5q55 0 96.5 -17.5t65.5 -46.5t35 -67t8 -80t-19 -84h-362q-1 -61 46.5 -90.5t114.5 -29.5q94 0 165 37l-16 -96q-70 -32 -172 -32q-110 0 -183.5 69t-55.5 190zM409 278q12 44 -11.5 85t-92.5 41q-58 0 -104.5 -34.5t-58.5 -91.5h267z
M387 606q-5 -31 -25.5 -46.5t-48.5 -15.5q-32 0 -51 20t-13 56q5 30 25.5 45t48.5 15q32 0 51 -19.5t13 -54.5z" />
    <glyph glyph-name="Eogonek" unicode="&#x118;" horiz-adv-x="620" 
d="M507 -139l-14 -82q-32 -13 -74 -13q-52 0 -76.5 29t-18.5 72q12 74 96 133h-381l111 700h482l-17 -104h-368l-30 -191h338l-16 -104h-338l-31 -197h373l-16 -104q-43 -26 -71.5 -58.5t-31.5 -57.5q-4 -35 33 -35q23 0 50 12z" />
    <glyph glyph-name="eogonek" unicode="&#x119;" horiz-adv-x="546" 
d="M392 -213q-37 -20 -82 -20q-53 -1 -77.5 28t-17.5 72q10 65 86 121q-5 0 -16 -0.5t-17 -0.5q-110 0 -183.5 69t-55.5 190q18 118 100 182.5t177 64.5q55 0 96.5 -17.5t65.5 -46.5t35 -67t8 -80t-19 -84h-362q-1 -61 46.5 -90.5t114.5 -29.5q94 0 165 37l-16 -96
q-117 -79 -126 -137q-2 -15 6.5 -24t26.5 -8q31 2 58 20zM305 404q-58 0 -104.5 -34.5t-58.5 -91.5h267q12 44 -11.5 85t-92.5 41z" />
    <glyph glyph-name="Ecaron" unicode="&#x11a;" horiz-adv-x="620" 
d="M150 700h482l-17 -104h-368l-30 -191h338l-16 -104h-338l-31 -197h373l-16 -104h-488zM601 911l-155 -150h-95l-108 150h107l55 -80l81 80h115z" />
    <glyph glyph-name="ecaron" unicode="&#x11b;" horiz-adv-x="545" 
d="M29 246q18 118 100 182.5t177 64.5q55 0 96.5 -17.5t65.5 -46.5t35 -67t8 -80t-19 -84h-362q-1 -61 46.5 -90.5t114.5 -29.5q94 0 165 37l-16 -96q-70 -32 -172 -32q-110 0 -183.5 69t-55.5 190zM409 278q12 44 -11.5 85t-92.5 41q-58 0 -104.5 -34.5t-58.5 -91.5h267z
M514 691l-155 -150h-95l-108 150h107l55 -80l81 80h115z" />
    <glyph glyph-name="Gbreve" unicode="&#x11e;" horiz-adv-x="704" 
d="M51 364q14 88 58 157t105 109.5t128 61.5t136 21q119 0 207 -47l-16 -107q-64 49 -181 49q-52 0 -102.5 -14.5t-97 -44t-79.5 -81t-43 -118.5q-11 -70 5.5 -122.5t53 -81t79 -42t89.5 -13.5q67 0 113 21l42 264h113l-54 -343q-109 -46 -227 -46q-71 0 -134.5 22.5
t-114 66.5t-73 118.5t-7.5 169.5zM627 805q-68 -43 -151 -43q-89 0 -144 43l14 93q63 -44 138 -44q82 0 157 44z" />
    <glyph glyph-name="gbreve" unicode="&#x11f;" horiz-adv-x="621" 
d="M509 2q-12 -81 -57.5 -135.5t-105 -77t-130.5 -22.5q-124 0 -202 49l15 95q71 -50 178 -50q77 0 130.5 36t64.5 110l10 57q-69 -77 -181 -77q-106 0 -162.5 76t-39.5 184q17 104 93 175t179 71q117 0 173 -95l14 82h97zM135 238q-11 -68 23.5 -112.5t97.5 -44.5
q54 0 100.5 28.5t72.5 70.5l21 123q-12 41 -47.5 68.5t-86.5 27.5q-68 0 -118.5 -44t-62.5 -117zM474 585q-68 -43 -151 -43q-89 0 -144 43l14 93q63 -44 138 -44q82 0 157 44z" />
    <glyph glyph-name="Gdotaccent" unicode="&#x120;" horiz-adv-x="704" 
d="M51 364q14 88 58 157t105 109.5t128 61.5t136 21q119 0 207 -47l-16 -107q-64 49 -181 49q-52 0 -102.5 -14.5t-97 -44t-79.5 -81t-43 -118.5q-11 -70 5.5 -122.5t53 -81t79 -42t89.5 -13.5q67 0 113 21l42 264h113l-54 -343q-109 -46 -227 -46q-71 0 -134.5 22.5
t-114 66.5t-73 118.5t-7.5 169.5zM545 826q-5 -31 -25.5 -46.5t-48.5 -15.5q-32 0 -51 20t-13 56q5 30 25.5 45t48.5 15q32 0 51 -19.5t13 -54.5z" />
    <glyph glyph-name="gdotaccent" unicode="&#x121;" horiz-adv-x="621" 
d="M509 2q-12 -81 -57.5 -135.5t-105 -77t-130.5 -22.5q-124 0 -202 49l15 95q71 -50 178 -50q77 0 130.5 36t64.5 110l10 57q-69 -77 -181 -77q-106 0 -162.5 76t-39.5 184q17 104 93 175t179 71q117 0 173 -95l14 82h97zM135 238q-11 -68 23.5 -112.5t97.5 -44.5
q54 0 100.5 28.5t72.5 70.5l21 123q-12 41 -47.5 68.5t-86.5 27.5q-68 0 -118.5 -44t-62.5 -117zM392 606q-5 -31 -25.5 -46.5t-48.5 -15.5q-32 0 -51 20t-13 56q5 30 25.5 45t48.5 15q32 0 51 -19.5t13 -54.5z" />
    <glyph glyph-name="Gcommaaccent" unicode="&#x122;" horiz-adv-x="704" 
d="M51 364q14 88 58 157t105 109.5t128 61.5t136 21q119 0 207 -47l-16 -107q-64 49 -181 49q-52 0 -102.5 -14.5t-97 -44t-79.5 -81t-43 -118.5q-11 -70 5.5 -122.5t53 -81t79 -42t89.5 -13.5q67 0 113 21l42 264h113l-54 -343q-109 -46 -227 -46q-71 0 -134.5 22.5
t-114 66.5t-73 118.5t-7.5 169.5zM364 -250h-90l56 193h103z" />
    <glyph glyph-name="gcommaaccent" unicode="&#x123;" horiz-adv-x="621" 
d="M365 543h-99l68 178h85zM509 2q-12 -81 -57.5 -135.5t-105 -77t-130.5 -22.5q-124 0 -202 49l15 95q71 -50 178 -50q77 0 130.5 36t64.5 110l10 57q-69 -77 -181 -77q-106 0 -162.5 76t-39.5 184q17 104 93 175t179 71q117 0 173 -95l14 82h97zM135 238
q-11 -68 23.5 -112.5t97.5 -44.5q54 0 100.5 28.5t72.5 70.5l21 123q-12 41 -47.5 68.5t-86.5 27.5q-68 0 -118.5 -44t-62.5 -117z" />
    <glyph glyph-name="Hbar" unicode="&#x126;" horiz-adv-x="774" 
d="M156 0h-114l80 500h-72l13 82h72l18 118h114l-18 -118h368l19 118h114l-18 -118h71l-13 -82h-71l-80 -500h-114l47 301h-368zM236 500l-16 -100h368l17 100h-369z" />
    <glyph glyph-name="hbar" unicode="&#x127;" horiz-adv-x="587" 
d="M194 423q77 70 167 70q89 0 134.5 -56.5t31.5 -143.5l-46 -293h-108l45 286q9 56 -15.5 84t-73.5 28q-42 0 -83 -24.5t-70 -59.5l-49 -314h-107l88 554h-60l11 72h60l12 74h107l-12 -74h157l-11 -72h-157z" />
    <glyph glyph-name="Imacron" unicode="&#x12a;" horiz-adv-x="284" 
d="M150 700h114l-111 -700h-114zM82 869h312l-15 -90h-312z" />
    <glyph glyph-name="imacron" unicode="&#x12b;" horiz-adv-x="245" 
d="M283 569h-232l14 86h232zM130 0h-107l76 480h107z" />
    <glyph glyph-name="Iogonek" unicode="&#x12e;" horiz-adv-x="285" 
d="M154 0q-36 -30 -59 -62t-26 -55q-2 -14 7 -24t25 -10q29 0 58 13l-13 -81q-32 -14 -82 -14t-75.5 28.5t-19.5 71.5q9 64 70 133l111 700h115z" />
    <glyph glyph-name="iogonek" unicode="&#x12f;" horiz-adv-x="245" 
d="M112 642q4 29 24 43.5t47 14.5q29 0 46.5 -19t12.5 -52q-10 -57 -70 -57q-30 0 -47.5 18.5t-12.5 51.5zM130 0h-1q-72 -70 -78 -115q-2 -15 6 -25t26 -10q27 0 53 16l-13 -83q-32 -16 -76 -16q-52 0 -76 31t-18 73q8 54 70 129l76 480h107z" />
    <glyph glyph-name="Idotaccent" unicode="&#x130;" horiz-adv-x="284" 
d="M150 700h114l-111 -700h-114zM290 826q-5 -31 -25.5 -46.5t-48.5 -15.5q-32 0 -51 20t-13 56q5 30 25.5 45t48.5 15q32 0 51 -19.5t13 -54.5z" />
    <glyph glyph-name="dotlessi" unicode="&#x131;" horiz-adv-x="245" 
d="M130 0h-107l76 480h107z" />
    <glyph glyph-name="IJ" unicode="&#x132;" horiz-adv-x="794" 
d="M150 700h114l-111 -700h-114zM469 700h311l-78 -493q-18 -115 -89.5 -167t-178.5 -52q-111 0 -177 42l17 106q56 -40 144 -40q151 0 172 128l58 371h-196z" />
    <glyph glyph-name="ij" unicode="&#x133;" horiz-adv-x="489" 
d="M130 0h-107l76 480h107zM242 629q-10 -57 -70 -57q-30 0 -47.5 18.5t-12.5 51.5q4 29 24 43.5t47 14.5q29 0 46.5 -19t12.5 -52zM361 -86q-23 -147 -170 -147q-45 0 -84 16l15 91q20 -11 50 -11q74 0 86 78l86 539h107zM486 629q-10 -57 -70 -57q-30 0 -47.5 18.5
t-12.5 51.5q4 29 24 43.5t47 14.5q29 0 46.5 -19t12.5 -52z" />
    <glyph glyph-name="Kcommaaccent" unicode="&#x136;" horiz-adv-x="675" 
d="M597 700h128l-284 -348l188 -352h-121l-163 303h-144l-48 -303h-114l111 700h114l-46 -292h139zM308 -240h-90l56 193h103z" />
    <glyph glyph-name="kcommaaccent" unicode="&#x137;" horiz-adv-x="530" 
d="M419 480h125l-213 -237l151 -243h-115l-127 206h-80l-33 -206h-107l111 700h107l-64 -403h82zM228 -240h-90l56 193h103z" />
    <glyph glyph-name="Lacute" unicode="&#x139;" horiz-adv-x="577" 
d="M150 700h114l-94 -594h368l-17 -106h-482zM276 767h-114l114 148h129z" />
    <glyph glyph-name="lacute" unicode="&#x13a;" horiz-adv-x="245" 
d="M139 730h107l-116 -730h-107zM255 773h-114l114 148h129z" />
    <glyph glyph-name="Lcommaaccent" unicode="&#x13b;" horiz-adv-x="577" 
d="M150 700h114l-94 -594h368l-17 -106h-482zM274 -240h-90l56 193h103z" />
    <glyph glyph-name="lcommaaccent" unicode="&#x13c;" horiz-adv-x="245" 
d="M139 730h107l-116 -730h-107zM53 -240h-90l56 193h103z" />
    <glyph glyph-name="Lcaron" unicode="&#x13d;" horiz-adv-x="578" 
d="M440 700h102l-64 -192h-85zM150 700h114l-94 -594h368l-17 -106h-482z" />
    <glyph glyph-name="lcaron" unicode="&#x13e;" horiz-adv-x="245" 
d="M316 730h101l-61 -192h-88zM139 730h107l-116 -730h-107z" />
    <glyph glyph-name="Ldot" unicode="&#x13f;" horiz-adv-x="582" 
d="M453 361q-4 -28 -23 -42t-45 -14q-29 0 -46.5 18t-12.5 51q4 28 23.5 42t45.5 14q29 0 46.5 -18.5t11.5 -50.5zM150 700h114l-94 -594h368l-17 -106h-482z" />
    <glyph glyph-name="ldot" unicode="&#x140;" horiz-adv-x="358" 
d="M139 730h107l-116 -730h-107zM377 343q-10 -58 -71 -58q-30 0 -48.5 19t-12.5 53q4 29 24 43.5t47 14.5q31 0 49 -19t12 -53z" />
    <glyph glyph-name="Lslash" unicode="&#x141;" horiz-adv-x="587" 
d="M531 0h-481l41 260l-85 -33l15 94l85 33l55 346h114l-48 -304l206 79l-15 -94l-206 -79l-31 -196h367z" />
    <glyph glyph-name="lslash" unicode="&#x142;" horiz-adv-x="333" 
d="M187 730h107l-47 -297l87 33l-14 -88l-87 -34l-55 -344h-107l48 302l-86 -33l14 88l87 34z" />
    <glyph glyph-name="Nacute" unicode="&#x143;" horiz-adv-x="767" 
d="M153 0h-114l111 700h96l308 -516q5 49 10 83l69 433h114l-111 -700h-96l-308 516q-3 -42 -9 -80zM500 767h-114l114 148h129z" />
    <glyph glyph-name="nacute" unicode="&#x144;" horiz-adv-x="587" 
d="M180 411q84 82 184 82q87 0 132 -56.5t31 -142.5l-47 -294h-107l45 286q9 57 -15.5 84.5t-73.5 27.5q-42 0 -83 -24.5t-70 -58.5l-49 -315h-107l76 480h95zM384 547h-114l114 148h129z" />
    <glyph glyph-name="Ncommaaccent" unicode="&#x145;" horiz-adv-x="767" 
d="M153 0h-114l111 700h96l308 -516q5 49 10 83l69 433h114l-111 -700h-96l-308 516q-3 -42 -9 -80zM333 -240h-90l56 193h103z" />
    <glyph glyph-name="ncommaaccent" unicode="&#x146;" horiz-adv-x="587" 
d="M180 411q84 82 184 82q87 0 132 -56.5t31 -142.5l-47 -294h-107l45 286q9 57 -15.5 84.5t-73.5 27.5q-42 0 -83 -24.5t-70 -58.5l-49 -315h-107l76 480h95zM236 -240h-90l56 193h103z" />
    <glyph glyph-name="Ncaron" unicode="&#x147;" horiz-adv-x="767" 
d="M153 0h-114l111 700h96l308 -516q5 49 10 83l69 433h114l-111 -700h-96l-308 516q-3 -42 -9 -80zM656 911l-155 -150h-95l-108 150h107l55 -80l81 80h115z" />
    <glyph glyph-name="ncaron" unicode="&#x148;" horiz-adv-x="587" 
d="M180 411q84 82 184 82q87 0 132 -56.5t31 -142.5l-47 -294h-107l45 286q9 57 -15.5 84.5t-73.5 27.5q-42 0 -83 -24.5t-70 -58.5l-49 -315h-107l76 480h95zM540 691l-155 -150h-95l-108 150h107l55 -80l81 80h115z" />
    <glyph glyph-name="Eng" unicode="&#x14a;" horiz-adv-x="767" 
d="M626 -68q-14 -82 -61 -123t-116 -41q-36 0 -80 13l15 98q20 -7 44 -7q72 0 86 79l12 72l-294 493q-3 -40 -9 -80l-70 -436h-114l111 700h96l308 -515q5 51 10 83l69 432h114z" />
    <glyph glyph-name="eng" unicode="&#x14b;" horiz-adv-x="587" 
d="M467 -86q-23 -147 -168 -147q-43 0 -79 16l15 90q23 -10 51 -10q65 0 77 78l55 345q9 57 -15.5 84.5t-73.5 27.5q-42 0 -83 -24.5t-70 -58.5l-49 -315h-107l76 480h95l-11 -69q84 82 184 82q87 0 132 -56.5t31 -142.5z" />
    <glyph glyph-name="Omacron" unicode="&#x14c;" horiz-adv-x="817" 
d="M786 343q-12 -70 -44 -132.5t-83.5 -113.5t-127.5 -80.5t-166 -29.5q-112 0 -190.5 53.5t-109 137t-15.5 179.5q11 70 44.5 133t85 113t127 80t163.5 30q165 0 252.5 -111t63.5 -259zM165 348q-16 -102 37 -178t170 -76q123 0 202 74t97 184q10 65 -7 121t-69 94.5
t-132 38.5q-123 0 -201.5 -74t-96.5 -184zM345 869h312l-15 -90h-312z" />
    <glyph glyph-name="omacron" unicode="&#x14d;" horiz-adv-x="591" 
d="M546 232q-18 -116 -104 -180.5t-191 -64.5q-107 0 -174 70t-48 191q19 116 104 180.5t191 64.5t174 -70.5t48 -190.5zM135 236q-11 -68 23.5 -109.5t101.5 -41.5q69 0 119 43.5t62 115.5q10 68 -24 109.5t-101 41.5q-68 0 -118.5 -43.5t-62.5 -115.5zM194 646h312
l-15 -90h-312z" />
    <glyph glyph-name="Ohungarumlaut" unicode="&#x150;" horiz-adv-x="817" 
d="M786 343q-12 -70 -44 -132.5t-83.5 -113.5t-127.5 -80.5t-166 -29.5q-112 0 -190.5 53.5t-109 137t-15.5 179.5q11 70 44.5 133t85 113t127 80t163.5 30q165 0 252.5 -111t63.5 -259zM165 348q-16 -102 37 -178t170 -76q123 0 202 74t97 184q10 65 -7 121t-69 94.5
t-132 38.5q-123 0 -201.5 -74t-96.5 -184zM619 777h-107l94 150h113zM451 777h-106l94 150h113z" />
    <glyph glyph-name="ohungarumlaut" unicode="&#x151;" horiz-adv-x="591" 
d="M546 232q-18 -116 -104 -180.5t-191 -64.5q-107 0 -174 70t-48 191q19 116 104 180.5t191 64.5t174 -70.5t48 -190.5zM135 236q-11 -68 23.5 -109.5t101.5 -41.5q69 0 119 43.5t62 115.5q10 68 -24 109.5t-101 41.5q-68 0 -118.5 -43.5t-62.5 -115.5zM468 554h-107
l94 150h113zM300 554h-106l94 150h113z" />
    <glyph glyph-name="OE" unicode="&#x152;" horiz-adv-x="1032" 
d="M483 -1q-49 -12 -105 -12q-116 0 -197.5 55t-113.5 142.5t-14 189.5q11 67 44.5 127t84.5 108t123.5 76t155.5 28q69 0 118 -14l466 1l-17 -104h-340l-30 -191h311l-17 -104h-311l-31 -197h346l-16 -104zM167 363q-20 -115 40 -192.5t180 -77.5q58 0 109 18l75 479
q-36 17 -113 17q-113 0 -192.5 -70t-98.5 -174z" />
    <glyph glyph-name="oe" unicode="&#x153;" horiz-adv-x="957" 
d="M473 97q-79 -110 -225 -110q-105 0 -171.5 71t-47.5 191q18 115 103 179.5t189 64.5q64 0 114.5 -27.5t74.5 -79.5q37 52 92 79.5t117 27.5q55 0 96.5 -17.5t65 -46.5t34.5 -67t7.5 -80t-19.5 -84h-362q-1 -61 46.5 -90.5t114.5 -29.5q91 0 165 37l-15 -96
q-74 -32 -176 -32q-69 0 -123.5 28t-79.5 82zM135 236q-10 -67 24 -109t99 -42q70 0 120.5 43.5t62.5 115.5q10 68 -24 109.5t-99 41.5q-70 0 -120.5 -43.5t-62.5 -115.5zM717 404q-58 0 -104.5 -34.5t-58.5 -91.5h267q12 44 -11.5 85t-92.5 41z" />
    <glyph glyph-name="Racute" unicode="&#x154;" horiz-adv-x="701" 
d="M153 0h-114l111 700h278q51 0 95 -11.5t80.5 -36.5t53.5 -71t7 -107q-25 -160 -201 -200l177 -274h-128l-167 262h-150zM249 596l-37 -233h169q65 0 111.5 29t57.5 91q10 62 -27 87.5t-102 25.5h-172zM447 767h-114l114 148h129z" />
    <glyph glyph-name="racute" unicode="&#x155;" horiz-adv-x="379" 
d="M179 403q71 100 216 87l-17 -107q-64 12 -119.5 -14.5t-85.5 -80.5l-46 -288h-107l76 480h95zM304 547h-114l114 148h129z" />
    <glyph glyph-name="Rcommaaccent" unicode="&#x156;" horiz-adv-x="701" 
d="M153 0h-114l111 700h278q51 0 95 -11.5t80.5 -36.5t53.5 -71t7 -107q-25 -160 -201 -200l177 -274h-128l-167 262h-150zM249 596l-37 -233h169q65 0 111.5 29t57.5 91q10 62 -27 87.5t-102 25.5h-172zM317 -240h-90l56 193h103z" />
    <glyph glyph-name="rcommaaccent" unicode="&#x157;" horiz-adv-x="379" 
d="M179 403q71 100 216 87l-17 -107q-64 12 -119.5 -14.5t-85.5 -80.5l-46 -288h-107l76 480h95zM50 -240h-90l56 193h103z" />
    <glyph glyph-name="Rcaron" unicode="&#x158;" horiz-adv-x="701" 
d="M153 0h-114l111 700h278q51 0 95 -11.5t80.5 -36.5t53.5 -71t7 -107q-25 -160 -201 -200l177 -274h-128l-167 262h-150zM249 596l-37 -233h169q65 0 111.5 29t57.5 91q10 62 -27 87.5t-102 25.5h-172zM603 911l-155 -150h-95l-108 150h107l55 -80l81 80h115z" />
    <glyph glyph-name="rcaron" unicode="&#x159;" horiz-adv-x="379" 
d="M179 403q71 100 216 87l-17 -107q-64 12 -119.5 -14.5t-85.5 -80.5l-46 -288h-107l76 480h95zM460 691l-155 -150h-95l-108 150h107l55 -80l81 80h115z" />
    <glyph glyph-name="Sacute" unicode="&#x15a;" horiz-adv-x="590" 
d="M86 532q14 89 91.5 135t179.5 46q127 0 212 -58l-16 -105q-77 61 -194 59q-146 0 -158 -86q-6 -40 30.5 -68t91.5 -48.5t109.5 -45t87.5 -72t22 -115.5q-8 -52 -35 -89.5t-67 -58t-84.5 -30t-96.5 -9.5q-145 0 -248 63l17 107q95 -66 229 -66q156 0 169 87q5 32 -12.5 57
t-50 41.5t-72 32t-79 34t-70.5 41.5t-47.5 61t-8.5 87zM402 767h-114l114 148h129z" />
    <glyph glyph-name="sacute" unicode="&#x15b;" horiz-adv-x="471" 
d="M49 358q10 70 71.5 102.5t139.5 32.5q96 0 171 -42l-14 -92q-68 46 -157 46q-40 0 -69 -13t-33 -40q-3 -25 25 -41.5t69 -28.5t81.5 -28.5t65.5 -49.5t17 -82q-22 -135 -224 -135q-113 0 -184 48l15 95q70 -53 172 -53q104 0 113 52q4 24 -24 40.5t-69 29t-81.5 29
t-66 49.5t-18.5 81zM306 547h-114l114 148h129z" />
    <glyph glyph-name="Scedilla" unicode="&#x15e;" horiz-adv-x="590" 
d="M369 -143q-7 -45 -47 -67.5t-97 -22.5t-106 19l12 75q38 -19 84 -19q67 0 72 30q3 21 -29 28t-73 -1l33 90q-125 9 -207 61l17 107q95 -66 229 -66q156 0 169 87q5 32 -12.5 57t-50 41.5t-72 32t-79 34t-70.5 41.5t-47.5 61t-8.5 87q14 89 91.5 135t179.5 46
q127 0 212 -58l-16 -105q-77 61 -194 59q-146 0 -158 -86q-6 -40 30.5 -68t91.5 -48.5t109.5 -45t87.5 -72t22 -115.5q-28 -169 -243 -186l-18 -42q46 -1 69.5 -24.5t18.5 -64.5z" />
    <glyph glyph-name="scedilla" unicode="&#x15f;" horiz-adv-x="471" 
d="M306 -143q-6 -45 -46.5 -67.5t-96.5 -22.5t-107 19l13 75q38 -19 84 -19q67 0 71 30q2 14 -12 22t-37.5 8.5t-51.5 -3.5l33 89q-89 7 -148 47l15 95q70 -53 172 -53q104 0 113 52q4 24 -24 40.5t-69 29t-81.5 29t-66 49.5t-18.5 81q10 70 71.5 102.5t139.5 32.5
q96 0 171 -42l-14 -92q-68 46 -157 46q-95 0 -102 -53q-3 -25 25 -41.5t69 -28.5t81.5 -28.5t65.5 -49.5t17 -82q-20 -118 -179 -133l-19 -43q46 -1 70 -24.5t18 -64.5z" />
    <glyph glyph-name="Scaron" unicode="&#x160;" horiz-adv-x="590" 
d="M86 532q14 89 91.5 135t179.5 46q127 0 212 -58l-16 -105q-77 61 -194 59q-146 0 -158 -86q-6 -40 30.5 -68t91.5 -48.5t109.5 -45t87.5 -72t22 -115.5q-8 -52 -35 -89.5t-67 -58t-84.5 -30t-96.5 -9.5q-145 0 -248 63l17 107q95 -66 229 -66q156 0 169 87q5 32 -12.5 57
t-50 41.5t-72 32t-79 34t-70.5 41.5t-47.5 61t-8.5 87zM558 911l-155 -150h-95l-108 150h107l55 -80l81 80h115z" />
    <glyph glyph-name="scaron" unicode="&#x161;" horiz-adv-x="471" 
d="M49 358q10 70 71.5 102.5t139.5 32.5q96 0 171 -42l-14 -92q-68 46 -157 46q-40 0 -69 -13t-33 -40q-3 -25 25 -41.5t69 -28.5t81.5 -28.5t65.5 -49.5t17 -82q-22 -135 -224 -135q-113 0 -184 48l15 95q70 -53 172 -53q104 0 113 52q4 24 -24 40.5t-69 29t-81.5 29
t-66 49.5t-18.5 81zM462 691l-155 -150h-95l-108 150h107l55 -80l81 80h115z" />
    <glyph glyph-name="Tcommaaccent" unicode="&#x162;" horiz-adv-x="602" 
d="M77 700h577l-17 -105h-231l-94 -595h-114l94 595h-232zM231 -240h-90l56 193h103z" />
    <glyph glyph-name="tcommaaccent" unicode="&#x163;" horiz-adv-x="411" 
d="M152 623l110 29l-27 -172h174l-15 -94h-174l-36 -224q-7 -46 11 -63.5t64 -17.5q52 0 103 23l-15 -94q-52 -23 -126 -23q-73 0 -115 41t-30 121l38 237h-86l15 94h86zM206 -240h-90l56 193h103z" />
    <glyph glyph-name="Tcaron" unicode="&#x164;" horiz-adv-x="602" 
d="M77 700h577l-17 -105h-231l-94 -595h-114l94 595h-232zM577 911l-155 -150h-95l-108 150h107l55 -80l81 80h115z" />
    <glyph glyph-name="tcaron" unicode="&#x165;" horiz-adv-x="411" 
d="M363 728h101l-60 -186h-88zM152 623l110 29l-27 -172h174l-15 -94h-174l-36 -224q-7 -46 11 -63.5t64 -17.5q52 0 103 23l-15 -94q-52 -23 -126 -23q-73 0 -115 41t-30 121l38 237h-86l15 94h86z" />
    <glyph glyph-name="Tbar" unicode="&#x166;" horiz-adv-x="612" 
d="M317 0h-114l47 299h-119l14 85h119l33 211h-232l17 105h577l-17 -105h-231l-33 -211h118l-13 -85h-119z" />
    <glyph glyph-name="tbar" unicode="&#x167;" horiz-adv-x="411" 
d="M410 480l-15 -91h-174l-14 -86h145l-12 -76h-145l-10 -65q-7 -46 10.5 -63.5t63.5 -17.5q52 0 103 23l-15 -94q-52 -23 -125 -23t-115.5 41.5t-29.5 120.5l12 78h-46l12 76h46l14 86h-86l14 91h86l23 143l111 29l-27 -172h174z" />
    <glyph glyph-name="Umacron" unicode="&#x16a;" horiz-adv-x="753" 
d="M626 700h114l-70 -444q-12 -74 -43.5 -127.5t-77.5 -83.5t-98 -44t-113 -14t-112 15t-91 46.5t-57.5 86.5t-5.5 128l70 437h114l-69 -438q-28 -169 153 -169q189 0 218 176zM306 869h312l-15 -90h-312z" />
    <glyph glyph-name="umacron" unicode="&#x16b;" horiz-adv-x="586" 
d="M442 480h107l-76 -480h-94l11 69q-32 -37 -78.5 -59.5t-97.5 -22.5q-90 0 -137.5 57t-33.5 144l46 292h107l-45 -286q-17 -112 90 -112q87 0 151 83zM190 649h312l-15 -90h-312z" />
    <glyph glyph-name="Uring" unicode="&#x16e;" horiz-adv-x="753" 
d="M626 700h114l-70 -444q-12 -74 -43.5 -127.5t-77.5 -83.5t-98 -44t-113 -14t-112 15t-91 46.5t-57.5 86.5t-5.5 128l70 437h114l-69 -438q-28 -169 153 -169q189 0 218 176zM577 849q-9 -51 -46.5 -80t-85.5 -29q-49 0 -82 34t-24 88q8 49 46 78t86 29t81 -34t25 -86z
M408 855q-4 -22 8.5 -36t31.5 -14q22 0 38.5 12.5t20.5 35.5q4 22 -8.5 36t-31.5 14q-22 0 -38.5 -12.5t-20.5 -35.5z" />
    <glyph glyph-name="uring" unicode="&#x16f;" horiz-adv-x="586" 
d="M442 480h107l-76 -480h-94l11 69q-32 -37 -78.5 -59.5t-97.5 -22.5q-90 0 -137.5 57t-33.5 144l46 292h107l-45 -286q-17 -112 90 -112q87 0 151 83zM461 629q-9 -51 -46.5 -80t-85.5 -29q-49 0 -82 34t-24 88q8 49 46 78t86 29t81 -34t25 -86zM292 635q-4 -22 8.5 -36
t31.5 -14q22 0 38.5 12.5t20.5 35.5q4 22 -8.5 36t-31.5 14q-22 0 -38.5 -12.5t-20.5 -35.5z" />
    <glyph glyph-name="Uhungarumlaut" unicode="&#x170;" horiz-adv-x="753" 
d="M626 700h114l-70 -444q-12 -74 -43.5 -127.5t-77.5 -83.5t-98 -44t-113 -14t-112 15t-91 46.5t-57.5 86.5t-5.5 128l70 437h114l-69 -438q-28 -169 153 -169q189 0 218 176zM580 777h-107l94 150h113zM412 777h-106l94 150h113z" />
    <glyph glyph-name="uhungarumlaut" unicode="&#x171;" horiz-adv-x="586" 
d="M442 480h107l-76 -480h-94l11 69q-32 -37 -78.5 -59.5t-97.5 -22.5q-90 0 -137.5 57t-33.5 144l46 292h107l-45 -286q-17 -112 90 -112q87 0 151 83zM464 557h-107l94 150h113zM296 557h-106l94 150h113z" />
    <glyph glyph-name="Uogonek" unicode="&#x172;" horiz-adv-x="753" 
d="M558 269l68 431h114l-70 -444q-21 -138 -117 -208q-69 -51 -101.5 -94t-35.5 -72q-2 -15 6.5 -24t26.5 -9q32 2 57 19l-13 -82q-38 -19 -84 -19q-52 0 -77.5 28.5t-18.5 71.5q10 59 80 124q-22 -4 -55 -4q-61 0 -112 15t-91 46.5t-57.5 86.5t-5.5 128l70 437h114
l-69 -438q-28 -169 153 -169q189 0 218 176z" />
    <glyph glyph-name="uogonek" unicode="&#x173;" horiz-adv-x="586" 
d="M549 480l-76 -480q-42 -25 -71 -59t-31 -59q-5 -32 32 -32q23 0 48 10l-13 -81q-30 -12 -71 -12q-52 0 -77.5 28.5t-18.5 72.5q12 71 110 145l9 56q-32 -37 -78.5 -59.5t-97.5 -22.5q-90 0 -137.5 57t-33.5 144l46 292h107l-45 -286q-17 -112 90 -112q87 0 151 83l50 315
h107z" />
    <glyph glyph-name="Wcircumflex" unicode="&#x174;" horiz-adv-x="1030" 
d="M958 700h124l-325 -700h-129l-76 513l-240 -513h-130l-107 700h118l75 -563l262 563h97l82 -556zM559 915h95l105 -150h-105l-54 76l-79 -76h-114z" />
    <glyph glyph-name="wcircumflex" unicode="&#x175;" horiz-adv-x="806" 
d="M705 480h117l-237 -480h-114l-58 343l-171 -343h-113l-84 480h107l56 -351l173 351h100l60 -351zM416 695h95l105 -150h-105l-54 76l-79 -76h-114z" />
    <glyph glyph-name="Ycircumflex" unicode="&#x176;" horiz-adv-x="676" 
d="M348 0h-114l42 257l-204 443h122l151 -336l258 336h132l-345 -443zM378 915h95l105 -150h-105l-54 76l-79 -76h-114z" />
    <glyph glyph-name="ycircumflex" unicode="&#x177;" horiz-adv-x="548" 
d="M251 116l194 364h121l-311 -548q-94 -164 -216 -164q-35 0 -68 11l14 88q21 -7 44 -7q40 0 72.5 28.5t66.5 88.5l18 27l-150 476h110zM273 695h95l105 -150h-105l-54 76l-79 -76h-114z" />
    <glyph glyph-name="Ydieresis" unicode="&#x178;" horiz-adv-x="676" 
d="M348 0h-114l42 257l-204 443h122l151 -336l258 336h132l-345 -443zM579 828q-4 -23 -23.5 -40t-44.5 -17q-28 0 -45 21.5t-13 49.5q5 24 24.5 40.5t43.5 16.5q28 0 45.5 -21t12.5 -50zM371 828q-4 -23 -23.5 -40t-44.5 -17q-28 0 -45 21.5t-13 49.5q5 24 24.5 40.5
t43.5 16.5q28 0 45.5 -21t12.5 -50z" />
    <glyph glyph-name="Zacute" unicode="&#x179;" horiz-adv-x="599" 
d="M520 0h-532l13 90l449 505h-355l16 105h506l-14 -91l-448 -503h382zM422 767h-114l114 148h129z" />
    <glyph glyph-name="zacute" unicode="&#x17a;" horiz-adv-x="472" 
d="M76 480h380l-13 -80l-305 -309h270l-14 -91h-407l13 80l305 309h-243zM322 547h-114l114 148h129z" />
    <glyph glyph-name="Zdotaccent" unicode="&#x17b;" horiz-adv-x="599" 
d="M520 0h-532l13 90l449 505h-355l16 105h506l-14 -91l-448 -503h382zM451 826q-5 -31 -25.5 -46.5t-48.5 -15.5q-32 0 -51 20t-13 56q5 30 25.5 45t48.5 15q32 0 51 -19.5t13 -54.5z" />
    <glyph glyph-name="zdotaccent" unicode="&#x17c;" horiz-adv-x="472" 
d="M76 480h380l-13 -80l-305 -309h270l-14 -91h-407l13 80l305 309h-243zM351 606q-5 -31 -25.5 -46.5t-48.5 -15.5q-32 0 -51 20t-13 56q5 30 25.5 45t48.5 15q32 0 51 -19.5t13 -54.5z" />
    <glyph glyph-name="Zcaron" unicode="&#x17d;" horiz-adv-x="599" 
d="M520 0h-532l13 90l449 505h-355l16 105h506l-14 -91l-448 -503h382zM578 911l-155 -150h-95l-108 150h107l55 -80l81 80h115z" />
    <glyph glyph-name="zcaron" unicode="&#x17e;" horiz-adv-x="472" 
d="M76 480h380l-13 -80l-305 -309h270l-14 -91h-407l13 80l305 309h-243zM478 691l-155 -150h-95l-108 150h107l55 -80l81 80h115z" />
    <glyph glyph-name="Scommaaccent" unicode="&#x218;" horiz-adv-x="590" 
d="M86 532q14 89 91.5 135t179.5 46q127 0 212 -58l-16 -105q-77 61 -194 59q-146 0 -158 -86q-6 -40 30.5 -68t91.5 -48.5t109.5 -45t87.5 -72t22 -115.5q-8 -52 -35 -89.5t-67 -58t-84.5 -30t-96.5 -9.5q-145 0 -248 63l17 107q95 -66 229 -66q156 0 169 87q5 32 -12.5 57
t-50 41.5t-72 32t-79 34t-70.5 41.5t-47.5 61t-8.5 87zM257 -240h-90l56 193h103z" />
    <glyph glyph-name="scommaaccent" unicode="&#x219;" horiz-adv-x="471" 
d="M49 358q10 70 71.5 102.5t139.5 32.5q96 0 171 -42l-14 -92q-68 46 -157 46q-40 0 -69 -13t-33 -40q-3 -25 25 -41.5t69 -28.5t81.5 -28.5t65.5 -49.5t17 -82q-22 -135 -224 -135q-113 0 -184 48l15 95q70 -53 172 -53q104 0 113 52q4 24 -24 40.5t-69 29t-81.5 29
t-66 49.5t-18.5 81zM191 -240h-90l56 193h103z" />
    <glyph glyph-name="uni021A" unicode="&#x21a;" horiz-adv-x="602" 
d="M77 700h577l-17 -105h-231l-94 -595h-114l94 595h-232zM231 -240h-90l56 193h103z" />
    <glyph glyph-name="uni021B" unicode="&#x21b;" horiz-adv-x="411" 
d="M152 623l110 29l-27 -172h174l-15 -94h-174l-36 -224q-7 -46 11 -63.5t64 -17.5q52 0 103 23l-15 -94q-52 -23 -126 -23q-73 0 -115 41t-30 121l38 237h-86l15 94h86zM206 -240h-90l56 193h103z" />
    <glyph glyph-name="circumflex" unicode="&#x2c6;" horiz-adv-x="347" 
d="M248 915h95l105 -150h-105l-54 76l-79 -76h-114z" />
    <glyph glyph-name="caron" unicode="&#x2c7;" horiz-adv-x="347" 
d="M477 911l-155 -150h-95l-108 150h107l55 -80l81 80h115z" />
    <glyph glyph-name="breve" unicode="&#x2d8;" horiz-adv-x="348" 
d="M428 805q-68 -43 -151 -43q-89 0 -144 43l14 93q63 -44 138 -44q82 0 157 44z" />
    <glyph glyph-name="dotaccent" unicode="&#x2d9;" horiz-adv-x="132" 
d="M245 826q-5 -31 -25.5 -46.5t-48.5 -15.5q-32 0 -51 20t-13 56q5 30 25.5 45t48.5 15q32 0 51 -19.5t13 -54.5z" />
    <glyph glyph-name="ring" unicode="&#x2da;" horiz-adv-x="234" 
d="M351 849q-9 -51 -46.5 -80t-85.5 -29q-49 0 -82 34t-24 88q8 49 46 78t86 29t81 -34t25 -86zM182 855q-4 -22 8.5 -36t31.5 -14q22 0 38.5 12.5t20.5 35.5q4 22 -8.5 36t-31.5 14q-22 0 -38.5 -12.5t-20.5 -35.5z" />
    <glyph glyph-name="ogonek" unicode="&#x2db;" horiz-adv-x="220" 
d="M63 0h107q-43 -26 -71.5 -58.5t-31.5 -57.5q-3 -35 33 -35q27 0 57 16l-13 -83q-35 -16 -82 -16q-52 0 -76.5 29t-18.5 72q12 74 96 133z" />
    <glyph glyph-name="tilde" unicode="&#x2dc;" horiz-adv-x="353" 
d="M464 880q2 -58 -27.5 -90t-72.5 -32q-34 0 -81.5 21t-61.5 21q-17 0 -25.5 -11t-7.5 -25h-83q-1 57 28 89.5t72 32.5q34 0 81.5 -21t61.5 -21q18 0 26.5 10.5t6.5 25.5h83z" />
    <glyph glyph-name="hungarumlaut" unicode="&#x2dd;" horiz-adv-x="400" 
d="M408 777h-107l94 150h113zM240 777h-106l94 150h113z" />
    <glyph glyph-name="uni0326" unicode="&#x326;" horiz-adv-x="152" 
d="M54 -240h-90l56 193h103z" />
    <glyph glyph-name="uni0401" unicode="&#x401;" horiz-adv-x="619" 
d="M576 828q-4 -23 -23.5 -40t-44.5 -17q-28 0 -45 21.5t-13 49.5q5 24 24.5 40.5t43.5 16.5q28 0 45.5 -21t12.5 -50zM368 828q-4 -23 -23.5 -40t-44.5 -17q-28 0 -45 21.5t-13 49.5q5 24 24.5 40.5t43.5 16.5q28 0 45.5 -21t12.5 -50zM150 700h482l-17 -104h-368l-30 -191
h338l-16 -104h-338l-31 -197h373l-16 -104h-488z" />
    <glyph glyph-name="uni0410" unicode="&#x410;" horiz-adv-x="729" 
d="M677 0h-117l-38 151h-352l-86 -151h-124l407 700h126zM396 547l-170 -296h272l-75 297q-4 15 -7 43q-10 -27 -20 -44z" />
    <glyph glyph-name="uni0411" unicode="&#x411;" horiz-adv-x="671" 
d="M221 428h173q50 0 92.5 -10.5t79.5 -34t53.5 -68.5t6.5 -108q-32 -207 -298 -207h-289l111 700h499l-17 -105h-385zM170 104h171q152 0 171 113q5 35 -4 57.5t-31 32.5t-43.5 13.5t-51.5 3.5h-177z" />
    <glyph glyph-name="uni0412" unicode="&#x412;" horiz-adv-x="691" 
d="M150 700h290q105 0 168 -48.5t49 -136.5q-10 -59 -46 -96t-87 -51q24 -7 44 -20.5t38 -34.5t25.5 -53.5t1.5 -72.5q-9 -55 -39 -94t-74 -58t-87.5 -27t-93.5 -8h-300zM521 209q5 26 -1.5 46t-18.5 30.5t-31.5 17t-36.5 8.5t-38 2h-192l-34 -213h171q33 0 58.5 3.5t53 14
t45.5 33.5t24 58zM542 507q9 50 -22.5 72t-96.5 22h-174l-30 -191l185 -1q55 0 92.5 24.5t45.5 73.5z" />
    <glyph glyph-name="uni0413" unicode="&#x413;" horiz-adv-x="574" 
d="M153 0h-114l111 700h474l-17 -105h-360z" />
    <glyph glyph-name="uni0414" unicode="&#x414;" horiz-adv-x="790" 
d="M56 -159h-104l41 263h86q147 208 207 596h449l-94 -596h88l-41 -263h-104l25 159h-528zM379 595q-70 -335 -176 -491h323l78 491h-225z" />
    <glyph glyph-name="uni0415" unicode="&#x415;" horiz-adv-x="619" 
d="M150 700h482l-17 -104h-368l-30 -191h338l-16 -104h-338l-31 -197h373l-16 -104h-488z" />
    <glyph glyph-name="uni0416" unicode="&#x416;" horiz-adv-x="960" 
d="M874 700h127l-256 -344l161 -356h-116l-138 303h-112l-48 -303h-115l48 303h-103l-235 -303h-129l279 359l-146 341h119l122 -292h110l46 292h115l-47 -292h105z" />
    <glyph glyph-name="uni0417" unicode="&#x417;" horiz-adv-x="614" 
d="M556 183q-11 -71 -60.5 -117t-111.5 -62.5t-137 -16.5q-133 0 -249 46l17 106q106 -48 230 -46q49 0 88 9.5t71.5 36.5t39.5 70q16 101 -138 101h-156l17 104h135q68 0 112 25.5t51 73.5q8 48 -31 71t-108 23q-122 0 -236 -54l17 111q109 49 235 49q114 0 183 -51.5
t55 -143.5q-9 -57 -45.5 -96t-91.5 -56q55 -14 90 -60t23 -123z" />
    <glyph glyph-name="uni0418" unicode="&#x418;" horiz-adv-x="768" 
d="M747 700l-111 -700h-114l70 438q4 37 14 74l-460 -512h-107l111 700h114l-69 -437q-6 -37 -15 -75l460 512h107z" />
    <glyph glyph-name="uni0419" unicode="&#x419;" horiz-adv-x="768" 
d="M747 700l-111 -700h-114l70 438q4 37 14 74l-460 -512h-107l111 700h114l-69 -437q-6 -37 -15 -75l460 512h107zM626 805q-68 -43 -151 -43q-89 0 -144 43l14 93q63 -44 138 -44q82 0 157 44z" />
    <glyph glyph-name="uni041A" unicode="&#x41a;" horiz-adv-x="676" 
d="M597 700h128l-284 -348l188 -352h-121l-163 303h-144l-48 -303h-114l111 700h114l-46 -292h139z" />
    <glyph glyph-name="uni041B" unicode="&#x41b;" horiz-adv-x="751" 
d="M277 700h453l-111 -700h-114l94 595h-231q-15 -69 -24 -107.5t-24.5 -99.5t-26.5 -96t-28.5 -83t-33 -75.5t-37 -58.5t-43.5 -47t-49.5 -27t-58.5 -11q-45 0 -81 14l17 105q21 -9 50 -9q22 1 42.5 14t39 41.5t34 58.5t31.5 79t27.5 89t26 103t24 104.5t23.5 110.5z" />
    <glyph glyph-name="uni041C" unicode="&#x41c;" horiz-adv-x="908" 
d="M770 700h117l-111 -700h-114l79 497l-269 -335h-75l-164 336l-80 -498h-114l111 700h103l196 -401z" />
    <glyph glyph-name="uni041D" unicode="&#x41d;" horiz-adv-x="768" 
d="M633 700h114l-111 -700h-114l47 298h-369l-47 -298h-114l111 700h114l-47 -297h369z" />
    <glyph glyph-name="uni041E" unicode="&#x41e;" horiz-adv-x="817" 
d="M786 343q-12 -70 -44 -132.5t-83.5 -113.5t-127.5 -80.5t-166 -29.5q-112 0 -190.5 53.5t-109 137t-15.5 179.5q11 70 44.5 133t85 113t127 80t163.5 30q165 0 252.5 -111t63.5 -259zM165 348q-16 -102 37 -178t170 -76q123 0 202 74t97 184q10 65 -7 121t-69 94.5
t-132 38.5q-123 0 -201.5 -74t-96.5 -184z" />
    <glyph glyph-name="uni041F" unicode="&#x41f;" horiz-adv-x="760" 
d="M153 0h-114l111 700h589l-111 -700h-115l95 595h-361z" />
    <glyph glyph-name="uni0420" unicode="&#x420;" horiz-adv-x="665" 
d="M150 700h255q59 0 107 -12t87 -38t56 -74t7 -113q-10 -63 -39 -108t-74.5 -69.5t-98 -35t-118.5 -10.5h-141l-38 -240h-114zM548 474q6 37 -4.5 62t-34 37.5t-50 17.5t-60.5 5h-151l-40 -252h141q179 0 199 130z" />
    <glyph glyph-name="uni0421" unicode="&#x421;" horiz-adv-x="652" 
d="M52 367q13 82 56.5 150t103.5 109.5t127.5 64t133.5 22.5q111 0 191 -49l-16 -106q-61 50 -161 50q-112 0 -206 -65.5t-114 -187.5q-11 -66 5.5 -118t51.5 -82.5t79.5 -46.5t92.5 -16q107 0 191 54l-18 -118q-83 -41 -200 -41q-67 0 -128.5 24t-110 69.5t-71 120
t-7.5 166.5z" />
    <glyph glyph-name="uni0422" unicode="&#x422;" horiz-adv-x="603" 
d="M78 700h577l-17 -105h-231l-94 -595h-114l94 595h-232z" />
    <glyph glyph-name="uni0423" unicode="&#x423;" horiz-adv-x="645" 
d="M372 156q-61 -95 -120 -132t-125 -37q-57 0 -104 18l16 100q36 -14 75 -14q80 0 139 80l19 25l-205 504h120l155 -403l243 403h127z" />
    <glyph glyph-name="uni0424" unicode="&#x424;" horiz-adv-x="871" 
d="M439 -38h-111l15 90q-148 7 -238.5 90t-69.5 218q21 134 127.5 208.5t273.5 79.5l15 90h111l-14 -90q91 -5 164.5 -41.5t114.5 -106.5t27 -160q-21 -134 -126.5 -208.5t-274.5 -79.5zM148 353q-12 -85 41 -140.5t168 -62.5l63 400q-243 -15 -272 -197zM532 550l-64 -400
q122 8 190 59t82 139q14 83 -41 139t-167 63z" />
    <glyph glyph-name="uni0425" unicode="&#x425;" horiz-adv-x="662" 
d="M91 0h-140l325 363l-193 337h127l143 -251l223 251h140l-307 -343l205 -357h-127l-154 271z" />
    <glyph glyph-name="uni0426" unicode="&#x426;" horiz-adv-x="794" 
d="M692 -159h-103l25 159h-575l111 700h114l-94 -594h362l94 594h114l-94 -594h88z" />
    <glyph glyph-name="uni0427" unicode="&#x427;" horiz-adv-x="690" 
d="M558 0h-115l42 263q-98 -34 -192 -32q-119 1 -180.5 63.5t-43.5 179.5l36 226h115l-37 -233q-11 -69 27 -99t118 -31q81 0 174 31l52 332h115z" />
    <glyph glyph-name="uni0428" unicode="&#x428;" horiz-adv-x="1059" 
d="M927 0h-888l111 700h114l-94 -594h273l94 594h114l-94 -594h272l94 594h115z" />
    <glyph glyph-name="uni0429" unicode="&#x429;" horiz-adv-x="1092" 
d="M990 -159h-104l25 159h-872l111 700h114l-94 -594h273l94 594h114l-94 -594h272l94 594h115l-94 -594h88z" />
    <glyph glyph-name="uni042A" unicode="&#x42a;" horiz-adv-x="765" 
d="M393 0h-253l94 595h-173l17 105h287l-38 -240h137q49 0 90 -7t77 -24.5t59 -44t33 -67.5t2 -94q-13 -84 -61.5 -135t-114 -69.5t-156.5 -18.5zM310 356l-40 -252h139q85 0 137.5 28.5t63.5 101.5q20 122 -152 122h-148z" />
    <glyph glyph-name="uni042B" unicode="&#x42b;" horiz-adv-x="903" 
d="M292 0h-253l111 700h114l-38 -240h138q61 0 110.5 -12t88 -38t55 -74t6.5 -113q-13 -84 -61 -135t-113.5 -69.5t-157.5 -18.5zM210 356l-40 -252h139q85 0 137.5 28.5t63.5 101.5q20 122 -152 122h-148zM771 0h-114l111 700h114z" />
    <glyph glyph-name="uni042C" unicode="&#x42c;" horiz-adv-x="665" 
d="M292 0h-253l111 700h114l-38 -240h138q61 0 110.5 -12t88 -38t55 -74t6.5 -113q-13 -84 -61 -135t-113.5 -69.5t-157.5 -18.5zM210 356l-40 -252h139q85 0 137.5 28.5t63.5 101.5q20 122 -152 122h-148z" />
    <glyph glyph-name="uni042D" unicode="&#x42d;" horiz-adv-x="652" 
d="M103 669q87 44 200 44q68 0 129 -23.5t109 -68t70 -119t7 -167.5q-18 -117 -82 -197.5t-148.5 -115.5t-184.5 -35q-115 0 -200 48l17 105q71 -47 175 -47q71 0 130 20t106 68t66 121l-343 -2l16 102l342 2q1 53 -18.5 94t-53.5 64t-74 34t-84 11q-111 2 -197 -51z" />
    <glyph glyph-name="uni042E" unicode="&#x42e;" horiz-adv-x="1098" 
d="M1067 343q-11 -70 -43 -132.5t-83.5 -113.5t-127.5 -80.5t-166 -29.5q-149 0 -233.5 90t-83.5 220h-130l-47 -297h-114l111 700h114l-47 -297h128q36 132 142.5 221t264.5 89q110 0 188.5 -53.5t110 -137t16.5 -179.5zM447 348q-16 -102 37 -178t170 -76q123 0 202 74
t97 184q10 65 -7 121t-69 94.5t-132 38.5q-123 0 -201.5 -74t-96.5 -184z" />
    <glyph glyph-name="uni042F" unicode="&#x42f;" horiz-adv-x="695" 
d="M108 0h-135l251 266q-74 25 -110.5 79.5t-22.5 133.5q18 114 103 167.5t211 53.5h269l-111 -700h-114l39 248h-146zM207 470q-19 -121 142 -121h156l39 247h-151q-76 0 -125.5 -30.5t-60.5 -95.5z" />
    <glyph glyph-name="uni0430" unicode="&#x430;" horiz-adv-x="620" 
d="M425 77q-77 -90 -194 -90q-106 0 -162.5 76t-39.5 184q17 104 92.5 175t179.5 71q116 0 175 -94l12 81h96l-76 -480h-96zM135 239q-11 -68 23.5 -113t97.5 -45q54 0 100.5 30t72.5 73l19 117q-10 42 -45.5 70t-86.5 28q-68 0 -118.5 -44t-62.5 -116z" />
    <glyph glyph-name="uni0431" unicode="&#x431;" horiz-adv-x="584" 
d="M535 216q-17 -109 -91.5 -169t-181.5 -60q-114 0 -177.5 74.5t-40.5 217.5q35 228 197 321q63 34 131.5 51t118 29t79.5 36l-15 -109q-28 -19 -69 -28.5t-92 -21.5t-96 -36q-89 -46 -131 -149q30 38 78 61t99 23q90 0 149 -67t42 -173zM141 222q-8 -61 24.5 -102
t100.5 -41q69 0 111 43t51 106q8 55 -25 96t-93 41q-68 0 -114 -42.5t-55 -100.5z" />
    <glyph glyph-name="uni0432" unicode="&#x432;" horiz-adv-x="546" 
d="M297 0h-277l76 480h264q75 0 113 -37.5t28 -97.5q-12 -76 -85 -104q33 -11 51.5 -41.5t11.5 -74.5q-9 -57 -53 -91t-129 -34zM159 204l-19 -123h140q85 0 96 65q5 32 -13 45t-50 13h-154zM191 399l-19 -119h140q72 0 81 63q5 31 -12.5 43.5t-51.5 12.5h-138z" />
    <glyph glyph-name="uni0433" unicode="&#x433;" horiz-adv-x="440" 
d="M127 0h-107l76 480h358l-15 -94h-251z" />
    <glyph glyph-name="uni0434" unicode="&#x434;" horiz-adv-x="641" 
d="M58 -129h-101l34 217h68q104 147 139 392h372l-62 -392h71l-34 -217h-101l20 129h-385zM283 391q-33 -184 -112 -303h232l48 303h-168z" />
    <glyph glyph-name="uni0435" unicode="&#x435;" horiz-adv-x="544" 
d="M29 246q18 118 100 182.5t177 64.5q55 0 96.5 -17.5t65.5 -46.5t35 -67t8 -80t-19 -84h-362q-1 -61 46.5 -90.5t114.5 -29.5q94 0 165 37l-16 -96q-70 -32 -172 -32q-110 0 -183.5 69t-55.5 190zM409 278q12 44 -11.5 85t-92.5 41q-58 0 -104.5 -34.5t-58.5 -91.5h267z
" />
    <glyph glyph-name="uni0436" unicode="&#x436;" horiz-adv-x="770" 
d="M78 0h-121l222 245l-122 235h108l103 -198h63l31 198h107l-31 -198h64l159 198h118l-200 -247l139 -233h-112l-116 191h-67l-30 -191h-107l31 191h-66z" />
    <glyph glyph-name="uni0437" unicode="&#x437;" horiz-adv-x="488" 
d="M423 124q-22 -136 -247 -137q-104 -1 -181 40l14 90q66 -41 157 -41q142 0 153 72q3 23 -11.5 36.5t-33.5 16.5t-46 3h-108l13 80h100q98 0 106 60q5 30 -24.5 45.5t-80.5 15.5q-92 0 -177 -40l14 92q82 37 180 37q106 -1 156.5 -42.5t40.5 -105.5q-6 -40 -33 -66
t-68 -35q40 -12 61.5 -44t14.5 -77z" />
    <glyph glyph-name="uni0438" unicode="&#x438;" horiz-adv-x="588" 
d="M114 0h-94l76 480h107l-48 -308l304 308h93l-76 -480h-107l48 307z" />
    <glyph glyph-name="uni0439" unicode="&#x439;" horiz-adv-x="588" 
d="M490 590q-66 -43 -151 -43q-87 0 -144 43l13 87q65 -44 138 -44q81 0 157 44zM114 0h-94l76 480h107l-48 -308l304 308h93l-76 -480h-107l48 307z" />
    <glyph glyph-name="uni043A" unicode="&#x43a;" horiz-adv-x="532" 
d="M127 0h-107l76 480h107l-29 -183h82l164 183h125l-214 -237l151 -243h-115l-127 206h-80z" />
    <glyph glyph-name="uni043B" unicode="&#x43b;" horiz-adv-x="590" 
d="M271 389q-17 -81 -30.5 -132.5t-33.5 -107.5t-41.5 -87t-53 -51t-70.5 -20q-45 0 -74 12l13 88q14 -9 43 -9q29 1 52.5 27.5t42.5 85t33.5 121t32.5 164.5h369l-76 -480h-107l62 389h-162z" />
    <glyph glyph-name="uni043C" unicode="&#x43c;" horiz-adv-x="680" 
d="M126 0h-106l76 480h103l127 -253l203 253h115l-76 -480h-106l53 326l-165 -204h-68l-104 204z" />
    <glyph glyph-name="uni043D" unicode="&#x43d;" horiz-adv-x="586" 
d="M127 0h-107l76 480h107l-30 -193h239l31 193h107l-76 -480h-107l30 193h-239z" />
    <glyph glyph-name="uni043E" unicode="&#x43e;" horiz-adv-x="591" 
d="M546 232q-18 -116 -104 -180.5t-191 -64.5q-107 0 -174 70t-48 191q19 116 104 180.5t191 64.5t174 -70.5t48 -190.5zM135 236q-11 -68 23.5 -109.5t101.5 -41.5q69 0 119 43.5t62 115.5q10 68 -24 109.5t-101 41.5q-68 0 -118.5 -43.5t-62.5 -115.5z" />
    <glyph glyph-name="uni043F" unicode="&#x43f;" horiz-adv-x="586" 
d="M127 0h-107l76 480h454l-76 -480h-107l61 386h-240z" />
    <glyph glyph-name="uni0440" unicode="&#x440;" horiz-adv-x="619" 
d="M179 402q76 91 194 91q105 0 162 -76t39 -184q-15 -104 -91 -175t-180 -71q-113 0 -165 86l-46 -293h-107l111 700h95zM469 242q11 68 -23.5 112.5t-97.5 44.5q-55 0 -101 -30t-73 -74l-19 -117q12 -42 47 -69.5t86 -27.5q67 0 118 44.5t63 116.5z" />
    <glyph glyph-name="uni0441" unicode="&#x441;" horiz-adv-x="498" 
d="M30 247q10 64 41 113t74 77t90 42t95 14q86 0 150 -42l-16 -94q-48 41 -124 41q-74 0 -132 -39.5t-71 -120.5q-12 -77 30 -116.5t115 -39.5q70 0 150 40l-16 -102q-74 -33 -159 -33q-52 0 -96.5 16t-78 47t-48 82t-4.5 115z" />
    <glyph glyph-name="uni0442" unicode="&#x442;" horiz-adv-x="470" 
d="M243 0h-107l61 386h-166l15 94h438l-15 -94h-165z" />
    <glyph glyph-name="uni0443" unicode="&#x443;" horiz-adv-x="548" 
d="M251 116l194 364h121l-311 -548q-94 -164 -216 -164q-35 0 -68 11l14 88q21 -7 44 -7q40 0 72.5 28.5t66.5 88.5l18 27l-150 476h110z" />
    <glyph glyph-name="uni0444" unicode="&#x444;" horiz-adv-x="732" 
d="M337 -220h-103l33 207q-113 4 -184.5 76t-54.5 184q18 110 105.5 176t213.5 70l33 207h103l-33 -207q113 -4 184.5 -75.5t53.5 -184.5q-17 -110 -105 -176t-214 -70zM133 240q-11 -69 28 -113.5t120 -48.5l52 324q-81 -4 -135 -47.5t-65 -114.5zM435 402l-51 -324
q81 4 135 47.5t65 114.5q11 69 -28.5 113.5t-120.5 48.5z" />
    <glyph glyph-name="uni0445" unicode="&#x445;" horiz-adv-x="507" 
d="M86 0h-126l227 249l-138 231h117l91 -159l140 159h126l-217 -237l148 -243h-117l-100 171z" />
    <glyph glyph-name="uni0446" unicode="&#x446;" horiz-adv-x="612" 
d="M515 -129h-101l20 129h-414l76 480h107l-61 -386h229l61 386h107l-61 -388h72z" />
    <glyph glyph-name="uni0447" unicode="&#x447;" horiz-adv-x="528" 
d="M416 0h-107l25 157q-57 -21 -132 -21q-82 0 -129.5 45.5t-33.5 131.5l26 167h107l-26 -163q-7 -49 16.5 -68t74.5 -19q55 0 112 21l36 229h107z" />
    <glyph glyph-name="uni0448" unicode="&#x448;" horiz-adv-x="814" 
d="M702 0h-682l76 480h107l-61 -386h181l61 386h107l-61 -386h180l61 386h107z" />
    <glyph glyph-name="uni0449" unicode="&#x449;" horiz-adv-x="850" 
d="M753 -129h-101l20 129h-652l76 480h107l-61 -386h181l61 386h107l-61 -386h180l61 386h107l-61 -388h71z" />
    <glyph glyph-name="uni044A" unicode="&#x44a;" horiz-adv-x="597" 
d="M338 0h-241l62 392h-127l14 88h234l-24 -160h135q82 0 126 -47.5t33 -119.5q-11 -68 -66 -110.5t-146 -42.5zM241 236l-23 -151h108q104 0 117 79q5 34 -17 53t-64 19h-121z" />
    <glyph glyph-name="uni044B" unicode="&#x44b;" horiz-adv-x="753" 
d="M261 0h-241l76 480h107l-25 -160h136q82 0 125.5 -47.5t32.5 -119.5q-11 -68 -66 -110.5t-145 -42.5zM164 236l-23 -151h108q104 0 117 79q5 34 -17 53t-64 19h-121zM641 0h-107l76 480h107z" />
    <glyph glyph-name="uni044C" unicode="&#x44c;" horiz-adv-x="519" 
d="M261 0h-241l76 480h107l-25 -160h136q82 0 125.5 -47.5t32.5 -119.5q-11 -68 -66 -110.5t-145 -42.5zM164 236l-23 -151h108q104 0 117 79q5 34 -17 53t-64 19h-121z" />
    <glyph glyph-name="uni044D" unicode="&#x44d;" horiz-adv-x="503" 
d="M457 225q-19 -120 -100.5 -179t-186.5 -59q-96 0 -170 44l14 87q60 -42 138 -42q159 0 194 123l-231 -2l14 88l231 2q0 61 -45 89t-107 28q-82 0 -156 -44l14 92q73 41 159 41q49 0 94 -16t80.5 -47.5t52 -84.5t5.5 -120z" />
    <glyph glyph-name="uni044E" unicode="&#x44e;" horiz-adv-x="828" 
d="M783 232q-12 -78 -59 -135t-108.5 -83.5t-128.5 -26.5q-91 0 -156 55.5t-67 152.5h-106l-31 -195h-107l76 480h107l-31 -195h104q29 99 109.5 153.5t174.5 54.5q106 0 174 -70.5t49 -190.5zM371 236q-11 -68 23.5 -109.5t101.5 -41.5q69 0 119 43.5t62 115.5
q10 68 -24 109.5t-101 41.5q-68 0 -118.5 -43.5t-62.5 -115.5z" />
    <glyph glyph-name="uni044F" unicode="&#x44f;" horiz-adv-x="544" 
d="M98 0h-122l162 175q-100 43 -83 152q11 65 65.5 109t145.5 44h242l-76 -480h-107l25 157h-106zM162 314q-5 -33 17.5 -52.5t66.5 -19.5h118l24 150h-113q-48 0 -78 -20.5t-35 -57.5z" />
    <glyph glyph-name="uni0451" unicode="&#x451;" horiz-adv-x="544" 
d="M489 608q-4 -23 -23.5 -40t-44.5 -17q-28 0 -45 21.5t-13 49.5q5 24 24.5 40.5t43.5 16.5q28 0 45.5 -21t12.5 -50zM281 608q-4 -23 -23.5 -40t-44.5 -17q-28 0 -45 21.5t-13 49.5q5 24 24.5 40.5t43.5 16.5q28 0 45.5 -21t12.5 -50zM29 246q18 118 100 182.5t177 64.5
q55 0 96.5 -17.5t65.5 -46.5t35 -67t8 -80t-19 -84h-362q-1 -61 46.5 -90.5t114.5 -29.5q94 0 165 37l-16 -96q-70 -32 -172 -32q-110 0 -183.5 69t-55.5 190zM409 278q12 44 -11.5 85t-92.5 41q-58 0 -104.5 -34.5t-58.5 -91.5h267z" />
    <glyph glyph-name="Wgrave" unicode="&#x1e80;" horiz-adv-x="1030" 
d="M958 700h124l-325 -700h-129l-76 513l-240 -513h-130l-107 700h118l75 -563l262 563h97l82 -556zM660 767h-109l-83 148h125z" />
    <glyph glyph-name="wgrave" unicode="&#x1e81;" horiz-adv-x="806" 
d="M705 480h117l-237 -480h-114l-58 343l-171 -343h-113l-84 480h107l56 -351l173 351h100l60 -351zM517 547h-109l-83 148h125z" />
    <glyph glyph-name="Wacute" unicode="&#x1e82;" horiz-adv-x="1030" 
d="M958 700h124l-325 -700h-129l-76 513l-240 -513h-130l-107 700h118l75 -563l262 563h97l82 -556zM629 767h-114l114 148h129z" />
    <glyph glyph-name="wacute" unicode="&#x1e83;" horiz-adv-x="806" 
d="M705 480h117l-237 -480h-114l-58 343l-171 -343h-113l-84 480h107l56 -351l173 351h100l60 -351zM486 547h-114l114 148h129z" />
    <glyph glyph-name="Wdieresis" unicode="&#x1e84;" horiz-adv-x="1030" 
d="M958 700h124l-325 -700h-129l-76 513l-240 -513h-130l-107 700h118l75 -563l262 563h97l82 -556zM760 828q-4 -23 -23.5 -40t-44.5 -17q-28 0 -45 21.5t-13 49.5q5 24 24.5 40.5t43.5 16.5q28 0 45.5 -21t12.5 -50zM552 828q-4 -23 -23.5 -40t-44.5 -17q-28 0 -45 21.5
t-13 49.5q5 24 24.5 40.5t43.5 16.5q28 0 45.5 -21t12.5 -50z" />
    <glyph glyph-name="wdieresis" unicode="&#x1e85;" horiz-adv-x="806" 
d="M705 480h117l-237 -480h-114l-58 343l-171 -343h-113l-84 480h107l56 -351l173 351h100l60 -351zM617 608q-4 -23 -23.5 -40t-44.5 -17q-28 0 -45 21.5t-13 49.5q5 24 24.5 40.5t43.5 16.5q28 0 45.5 -21t12.5 -50zM409 608q-4 -23 -23.5 -40t-44.5 -17q-28 0 -45 21.5
t-13 49.5q5 24 24.5 40.5t43.5 16.5q28 0 45.5 -21t12.5 -50z" />
    <glyph glyph-name="Ygrave" unicode="&#x1ef2;" horiz-adv-x="676" 
d="M348 0h-114l42 257l-204 443h122l151 -336l258 336h132l-345 -443zM479 767h-109l-83 148h125z" />
    <glyph glyph-name="ygrave" unicode="&#x1ef3;" horiz-adv-x="548" 
d="M251 116l194 364h121l-311 -548q-94 -164 -216 -164q-35 0 -68 11l14 88q21 -7 44 -7q40 0 72.5 28.5t66.5 88.5l18 27l-150 476h110zM374 547h-109l-83 148h125z" />
    <glyph glyph-name="endash" unicode="&#x2013;" horiz-adv-x="577" 
d="M502 198h-456l15 96h457z" />
    <glyph glyph-name="emdash" unicode="&#x2014;" horiz-adv-x="769" 
d="M694 198h-648l15 96h648z" />
    <glyph glyph-name="quoteleft" unicode="&#x2018;" horiz-adv-x="243" 
d="M177 452h-115l125 248h88z" />
    <glyph glyph-name="quoteright" unicode="&#x2019;" horiz-adv-x="239" 
d="M155 452h-88l98 248h115z" />
    <glyph glyph-name="quotesinglbase" unicode="&#x201a;" horiz-adv-x="239" 
d="M32 -148h-88l99 248h114z" />
    <glyph glyph-name="quotedblleft" unicode="&#x201c;" horiz-adv-x="407" 
d="M341 452h-115l125 248h88zM177 452h-115l125 248h88z" />
    <glyph glyph-name="quotedblright" unicode="&#x201d;" horiz-adv-x="403" 
d="M319 452h-88l98 248h115zM155 452h-88l98 248h115z" />
    <glyph glyph-name="quotedblbase" unicode="&#x201e;" horiz-adv-x="403" 
d="M196 -148h-88l99 248h114zM32 -148h-88l99 248h114z" />
    <glyph glyph-name="dagger" unicode="&#x2020;" horiz-adv-x="528" 
d="M241 -220h-115l95 595h-176l17 105h175l35 220h115l-35 -220h174l-17 -105h-174z" />
    <glyph glyph-name="daggerdbl" unicode="&#x2021;" horiz-adv-x="579" 
d="M267 -220h-114l43 272h-177l17 104h177l34 220h-176l16 104h177l35 220h114l-35 -220h177l-17 -104h-177l-34 -220h177l-17 -104h-177z" />
    <glyph glyph-name="bullet" unicode="&#x2022;" horiz-adv-x="355" 
d="M84 357q7 45 38.5 68.5t72.5 23.5q46 0 72.5 -27.5t18.5 -78.5q-7 -46 -38 -69t-74 -23q-45 0 -71.5 27.5t-18.5 78.5z" />
    <glyph glyph-name="ellipsis" unicode="&#x2026;" horiz-adv-x="656" 
d="M573 48q-4 -29 -24 -44t-47 -15q-30 0 -48.5 19t-12.5 53q4 29 24 43.5t47 14.5q31 0 49 -18.5t12 -52.5zM146 48q-4 -29 -24 -44t-47 -15q-30 0 -48.5 19t-12.5 53q4 29 24 43.5t47 14.5q31 0 49 -18.5t12 -52.5zM360 48q-4 -29 -24 -44t-47 -15q-30 0 -48.5 19
t-12.5 53q4 29 24 43.5t47 14.5q31 0 49 -18.5t12 -52.5z" />
    <glyph glyph-name="perthousand" unicode="&#x2030;" horiz-adv-x="1306" 
d="M240 -60h-91l539 820h91zM415 542q-11 -74 -66 -115.5t-125 -41.5q-72 0 -117.5 46t-33.5 125q12 74 67 115.5t125 41.5q71 0 116.5 -46t33.5 -125zM163 546q-4 -32 12 -54t53 -22q40 0 65 23.5t31 58.5q3 32 -13 54t-51 22q-41 0 -66.5 -23.5t-30.5 -58.5zM854 144
q-11 -74 -66 -115.5t-125 -41.5q-71 0 -117 46.5t-34 124.5q12 74 67 115.5t126 41.5t116 -46.5t33 -124.5zM603 148q-4 -32 12 -54t53 -22q40 0 65 23.5t30 58.5q4 32 -12 54t-51 22q-41 0 -66.5 -23.5t-30.5 -58.5zM1252 144q-11 -74 -66 -115.5t-125 -41.5
q-71 0 -117 46.5t-34 124.5q12 74 67 115.5t126 41.5t116 -46.5t33 -124.5zM1001 148q-4 -32 12 -54t53 -22q40 0 65 23.5t30 58.5q4 32 -12 54t-51 22q-41 0 -66.5 -23.5t-30.5 -58.5z" />
    <glyph glyph-name="guilsinglleft" unicode="&#x2039;" horiz-adv-x="317" 
d="M234 53h-109l-97 177l4 23l150 174h114l-164 -187z" />
    <glyph glyph-name="guilsinglright" unicode="&#x203a;" horiz-adv-x="318" 
d="M118 53h-113l163 187l-101 187h108l98 -177l-3 -23z" />
    <glyph glyph-name="fraction" unicode="&#x2044;" horiz-adv-x="176" 
d="M-168 -14h-41l573 727h42z" />
    <glyph glyph-name="Euro" unicode="&#x20ac;" horiz-adv-x="723" 
d="M704 539q-68 49 -169 49q-86 0 -157.5 -34.5t-110.5 -106.5h304l-13 -79h-320q-7 -30 -7 -56h319l-13 -79h-296q21 -66 78 -103.5t131 -37.5q115 0 199 52l-18 -116q-91 -41 -201 -41q-117 0 -204 66t-107 180h-92l13 79h75q0 24 6 56h-73l13 79h82q48 121 155.5 183.5
t232.5 62.5q104 0 190 -50z" />
    <glyph glyph-name="trademark" unicode="&#x2122;" horiz-adv-x="675" 
d="M390 444h-62l41 256h63l64 -129l101 129h71l-41 -256h-61l26 161l-84 -101h-40l-52 101zM206 444h-62l32 200h-81l9 56h224l-9 -56h-81z" />
    <glyph glyph-name="oneeighth" unicode="&#x215b;" horiz-adv-x="932" 
d="M572 311q7 42 50 73.5t116 31.5q72 0 111.5 -36.5t33.5 -86.5q-7 -52 -62 -92q57 -34 47 -99q-8 -47 -52.5 -78.5t-128.5 -31.5q-83 0 -125 38t-33 91q9 58 76 100q-41 33 -33 90zM719 171q-33 7 -54 16q-50 -28 -55 -66q-4 -29 17 -44t66 -15q38 0 64 12t30 36
q3 16 -6.5 28t-20 16.5t-33.5 13.5q-5 2 -8 3zM803 291q3 24 -14 39.5t-54 15.5q-34 0 -57 -11.5t-27 -32.5q-3 -17 7.5 -30t22 -18t35.5 -14q7 -2 22 -5.5t21 -5.5q39 29 44 62zM195 -14h-41l573 727h42zM218 680h60l-53 -334h72l-11 -74h-240l12 74h87l39 251l-89 -32
l13 77z" />
    <glyph glyph-name="threeeighths" unicode="&#x215c;" horiz-adv-x="953" 
d="M593 311q7 42 50 73.5t116 31.5q72 0 111.5 -36.5t33.5 -86.5q-7 -52 -62 -92q57 -34 47 -99q-8 -47 -52.5 -78.5t-128.5 -31.5q-83 0 -125 38t-33 91q9 58 76 100q-41 33 -33 90zM740 171q-33 7 -54 16q-50 -28 -55 -66q-4 -29 17 -44t66 -15q38 0 64 12t30 36
q3 16 -6.5 28t-20 16.5t-33.5 13.5q-5 2 -8 3zM824 291q3 24 -14 39.5t-54 15.5q-34 0 -57 -11.5t-27 -32.5q-3 -17 7.5 -30t22 -18t35.5 -14q7 -2 22 -5.5t21 -5.5q39 29 44 62zM226 -14h-41l573 727h42zM372 574q-9 -60 -72 -84q29 -10 47 -37t11 -70q-9 -57 -56.5 -85.5
t-116.5 -28.5q-81 0 -140 29l13 77q53 -31 122 -31q94 0 103 57q4 27 -13 38t-52 11h-70l12 74h54q72 0 81 51q4 21 -15 32t-52 11q-67 0 -131 -34l12 80q61 29 130 29q61 0 101.5 -33t31.5 -86z" />
    <glyph glyph-name="fiveeighths" unicode="&#x215d;" horiz-adv-x="949" 
d="M589 311q7 42 50 73.5t116 31.5q72 0 111.5 -36.5t33.5 -86.5q-7 -52 -62 -92q57 -34 47 -99q-8 -47 -52.5 -78.5t-128.5 -31.5q-83 0 -125 38t-33 91q9 58 76 100q-41 33 -33 90zM736 171q-33 7 -54 16q-50 -28 -55 -66q-4 -29 17 -44t66 -15q38 0 64 12t30 36
q3 16 -6.5 28t-20 16.5t-33.5 13.5q-5 2 -8 3zM820 291q3 24 -14 39.5t-54 15.5q-34 0 -57 -11.5t-27 -32.5q-3 -17 7.5 -30t22 -18t35.5 -14q7 -2 22 -5.5t21 -5.5q39 29 44 62zM222 -14h-41l573 727h42zM128 680h256l-12 -74h-181l-17 -75q19 5 47 5q64 0 106.5 -35.5
t31.5 -106.5q-11 -64 -63 -97t-123 -33q-75 0 -131 29l12 73q45 -27 110 -27q103 0 113 67q6 34 -18.5 48t-71.5 14t-107 -21z" />
    <glyph glyph-name="seveneighths" unicode="&#x215e;" horiz-adv-x="870" 
d="M134 -14h-41l573 727h42zM509 311q7 42 50 73.5t116 31.5q72 0 111.5 -36.5t33.5 -86.5q-7 -52 -62 -92q57 -34 47 -99q-8 -47 -52.5 -78.5t-128.5 -31.5q-83 0 -125 38t-33 91q9 58 76 100q-41 33 -33 90zM656 171q-33 7 -54 16q-50 -28 -55 -66q-4 -29 17 -44t66 -15
q38 0 64 12t30 36q3 16 -6.5 28t-20 16.5t-33.5 13.5q-5 2 -8 3zM740 291q3 24 -14 39.5t-54 15.5q-34 0 -57 -11.5t-27 -32.5q-3 -17 7.5 -30t22 -18t35.5 -14q7 -2 22 -5.5t21 -5.5q39 29 44 62zM175 272h-90l207 334h-208l12 74h300l-10 -67z" />
    <glyph glyph-name="partialdiff" unicode="&#x2202;" horiz-adv-x="587" 
d="M541 273q-21 -139 -100.5 -212.5t-195.5 -73.5q-107 0 -170 67.5t-47 173.5q15 95 86.5 155.5t161.5 60.5q63 0 110.5 -26t63.5 -67q4 16 3 32q-3 63 -30 110t-70.5 72t-94 35.5t-106.5 6.5l13 98q55 0 105 -9.5t97.5 -31t83.5 -55t62 -81.5t32.5 -111.5t-4.5 -143.5z
M134 212q-8 -57 23 -95t97 -38q67 0 108 38t57 98q8 58 -24 98.5t-97 40.5q-66 0 -110 -41.5t-54 -100.5z" />
    <glyph glyph-name="emptyset" unicode="&#x2205;" horiz-adv-x="808" 
d="M776 340q-24 -148 -145 -250.5t-270 -102.5q-120 0 -208 74l-62 -61h-67l97 95q-95 112 -70 265q23 148 144.5 250.5t270.5 102.5q119 0 207 -75l62 62h67l-97 -94q96 -113 71 -266zM105 347q-18 -124 56 -213l473 466q-71 58 -169 58q-130 0 -235.5 -90.5t-124.5 -220.5
zM193 101q72 -59 170 -59q129 0 234.5 91t124.5 220q18 126 -55 214z" />
    <glyph glyph-name="product" unicode="&#x220f;" horiz-adv-x="770" 
d="M161 -220h-114l130 821h-92l16 99h698l-16 -99h-92l-130 -821h-114l130 821h-286z" />
    <glyph glyph-name="summation" unicode="&#x2211;" horiz-adv-x="574" 
d="M479 0h-487l10 65l298 289l-206 286l9 60h485l-17 -105h-312l167 -234l-5 -28l-233 -227h308z" />
    <glyph glyph-name="minus" unicode="&#x2212;" horiz-adv-x="520" 
d="M455 299h-390l15 95h391z" />
    <glyph glyph-name="radical" unicode="&#x221a;" horiz-adv-x="754" 
d="M339 0h-97l-104 375h-103l17 105h166l90 -349l406 649h121z" />
    <glyph glyph-name="infinity" unicode="&#x221e;" horiz-adv-x="864" 
d="M451 432q51 56 100.5 86.5t110.5 30.5q74 0 122.5 -54.5t34.5 -143.5q-13 -85 -72 -134.5t-135 -49.5q-110 0 -180 117q-104 -117 -211 -117q-74 0 -122.5 54.5t-34.5 143.5q13 85 72 134.5t135 49.5q110 0 180 -117zM389 363q-26 45 -50 68t-58 23q-44 0 -76 -23.5
t-40 -72.5q-7 -46 15 -71t62 -25q39 0 73 26t74 75zM718 362q7 46 -15 69t-61 23t-73.5 -26t-74.5 -75q25 -45 50 -68t59 -23q43 0 75 25t40 75z" />
    <glyph glyph-name="integral" unicode="&#x222b;" horiz-adv-x="440" 
d="M221 631q14 88 68 125t124 37q51 0 94 -18l-15 -95q-28 15 -66 15q-88 0 -101 -81l-109 -685q-14 -86 -68.5 -124t-123.5 -38q-48 0 -94 18l15 95q25 -15 60 -15q95 0 108 82z" />
    <glyph glyph-name="approxequal" unicode="&#x2248;" horiz-adv-x="596" 
d="M567 511q-1 -68 -38 -104t-94 -36q-39 0 -112.5 27t-100.5 27q-20 0 -33 -12t-13 -34h-95q2 69 39.5 104.5t91.5 35.5q42 0 113.5 -26.5t100.5 -26.5q46 0 46 45h95zM541 340q-1 -68 -38 -104t-94 -36q-39 0 -112.5 27t-100.5 27q-20 0 -33 -12t-13 -34h-95
q2 69 39.5 104.5t91.5 35.5q42 0 113.5 -26.5t100.5 -26.5q46 0 46 45h95z" />
    <glyph glyph-name="notequal" unicode="&#x2260;" horiz-adv-x="568" 
d="M158 107h-87l74 101h-94l15 95h149l70 94h-204l15 96h259l74 100h87l-74 -100h94l-15 -96h-148l-71 -94h204l-15 -95h-258z" />
    <glyph glyph-name="lessequal" unicode="&#x2264;" horiz-adv-x="526" 
d="M448 277l-15 -99l-363 149l17 107l410 149l-16 -101l-303 -103zM404 0h-386l15 95h386z" />
    <glyph glyph-name="greaterequal" unicode="&#x2265;" horiz-adv-x="522" 
d="M468 330l-410 -150l16 100l303 105l-270 101l15 100l363 -149zM415 0h-386l15 95h386z" />
    <glyph glyph-name="lozenge" unicode="&#x25ca;" horiz-adv-x="579" 
d="M303 0h-119l-141 350l250 350h119l142 -350zM156 339l97 -238l186 260l-97 238z" />
    <glyph glyph-name="i.loclTRK" horiz-adv-x="245" 
d="M130 0h-107l76 480h107zM236 606q-5 -31 -25.5 -46.5t-48.5 -15.5q-32 0 -51 20t-13 56q5 30 25.5 45t48.5 15q32 0 51 -19.5t13 -54.5z" />
    <glyph glyph-name="a.ss01" horiz-adv-x="547" 
d="M445 108q-5 -31 26 -31q20 0 37 6l-12 -79q-28 -11 -64 -11q-73 0 -91 57q-74 -63 -179 -63q-70 0 -116.5 42t-40.5 112q4 44 26.5 75.5t57 48t70 23.5t73.5 7q67 0 135 -15l3 23q15 97 -123 97q-78 0 -167 -38l16 101q84 30 167 30q243 0 210 -212zM194 69q87 0 148 59
l13 81q-45 10 -107 10q-23 0 -44 -3.5t-41 -11.5t-33.5 -24.5t-15.5 -38.5q-3 -33 19.5 -52.5t60.5 -19.5z" />
    <glyph glyph-name="aacute.ss01" horiz-adv-x="547" 
d="M445 108q-5 -31 26 -31q20 0 37 6l-12 -79q-28 -11 -64 -11q-73 0 -91 57q-74 -63 -179 -63q-70 0 -116.5 42t-40.5 112q4 44 26.5 75.5t57 48t70 23.5t73.5 7q67 0 135 -15l3 23q15 97 -123 97q-78 0 -167 -38l16 101q84 30 167 30q243 0 210 -212zM194 69q87 0 148 59
l13 81q-45 10 -107 10q-23 0 -44 -3.5t-41 -11.5t-33.5 -24.5t-15.5 -38.5q-3 -33 19.5 -52.5t60.5 -19.5zM335 547h-114l114 148h129z" />
    <glyph glyph-name="abreve.ss01" horiz-adv-x="547" 
d="M445 108q-5 -31 26 -31q20 0 37 6l-12 -79q-28 -11 -64 -11q-73 0 -91 57q-74 -63 -179 -63q-70 0 -116.5 42t-40.5 112q4 44 26.5 75.5t57 48t70 23.5t73.5 7q67 0 135 -15l3 23q15 97 -123 97q-78 0 -167 -38l16 101q84 30 167 30q243 0 210 -212zM194 69q87 0 148 59
l13 81q-45 10 -107 10q-23 0 -44 -3.5t-41 -11.5t-33.5 -24.5t-15.5 -38.5q-3 -33 19.5 -52.5t60.5 -19.5zM446 585q-68 -43 -151 -43q-89 0 -144 43l14 93q63 -44 138 -44q82 0 157 44z" />
    <glyph glyph-name="acircumflex.ss01" horiz-adv-x="547" 
d="M445 108q-5 -31 26 -31q20 0 37 6l-12 -79q-28 -11 -64 -11q-73 0 -91 57q-74 -63 -179 -63q-70 0 -116.5 42t-40.5 112q4 44 26.5 75.5t57 48t70 23.5t73.5 7q67 0 135 -15l3 23q15 97 -123 97q-78 0 -167 -38l16 101q84 30 167 30q243 0 210 -212zM194 69q87 0 148 59
l13 81q-45 10 -107 10q-23 0 -44 -3.5t-41 -11.5t-33.5 -24.5t-15.5 -38.5q-3 -33 19.5 -52.5t60.5 -19.5zM265 695h95l105 -150h-105l-54 76l-79 -76h-114z" />
    <glyph glyph-name="adieresis.ss01" horiz-adv-x="547" 
d="M445 108q-5 -31 26 -31q20 0 37 6l-12 -79q-28 -11 -64 -11q-73 0 -91 57q-74 -63 -179 -63q-70 0 -116.5 42t-40.5 112q4 44 26.5 75.5t57 48t70 23.5t73.5 7q67 0 135 -15l3 23q15 97 -123 97q-78 0 -167 -38l16 101q84 30 167 30q243 0 210 -212zM194 69q87 0 148 59
l13 81q-45 10 -107 10q-23 0 -44 -3.5t-41 -11.5t-33.5 -24.5t-15.5 -38.5q-3 -33 19.5 -52.5t60.5 -19.5zM466 608q-4 -23 -23.5 -40t-44.5 -17q-28 0 -45 21.5t-13 49.5q5 24 24.5 40.5t43.5 16.5q28 0 45.5 -21t12.5 -50zM258 608q-4 -23 -23.5 -40t-44.5 -17
q-28 0 -45 21.5t-13 49.5q5 24 24.5 40.5t43.5 16.5q28 0 45.5 -21t12.5 -50z" />
    <glyph glyph-name="agrave.ss01" horiz-adv-x="547" 
d="M445 108q-5 -31 26 -31q20 0 37 6l-12 -79q-28 -11 -64 -11q-73 0 -91 57q-74 -63 -179 -63q-70 0 -116.5 42t-40.5 112q4 44 26.5 75.5t57 48t70 23.5t73.5 7q67 0 135 -15l3 23q15 97 -123 97q-78 0 -167 -38l16 101q84 30 167 30q243 0 210 -212zM194 69q87 0 148 59
l13 81q-45 10 -107 10q-23 0 -44 -3.5t-41 -11.5t-33.5 -24.5t-15.5 -38.5q-3 -33 19.5 -52.5t60.5 -19.5zM366 547h-109l-83 148h125z" />
    <glyph glyph-name="amacron.ss01" horiz-adv-x="547" 
d="M445 108q-5 -31 26 -31q20 0 37 6l-12 -79q-28 -11 -64 -11q-73 0 -91 57q-74 -63 -179 -63q-70 0 -116.5 42t-40.5 112q4 44 26.5 75.5t57 48t70 23.5t73.5 7q67 0 135 -15l3 23q15 97 -123 97q-78 0 -167 -38l16 101q84 30 167 30q243 0 210 -212zM194 69q87 0 148 59
l13 81q-45 10 -107 10q-23 0 -44 -3.5t-41 -11.5t-33.5 -24.5t-15.5 -38.5q-3 -33 19.5 -52.5t60.5 -19.5zM156 649h312l-15 -90h-312z" />
    <glyph glyph-name="aogonek.ss01" horiz-adv-x="547" 
d="M508 83l-12 -79q-43 -26 -72 -59.5t-31 -59.5q-2 -15 6 -23t26 -8q27 0 48 10l-13 -81q-30 -12 -71 -12q-52 0 -77.5 28.5t-18.5 72.5q10 63 93 129q-35 14 -45 49q-74 -63 -179 -63q-70 0 -116.5 42t-40.5 112q4 44 26.5 75.5t57 48t70 23.5t73.5 7q67 0 135 -15l3 23
q15 97 -123 97q-78 0 -167 -38l16 101q84 30 167 30q243 0 210 -212l-28 -173q-5 -31 26 -31q20 0 37 6zM194 69q87 0 148 59l13 81q-45 10 -107 10q-23 0 -44 -3.5t-41 -11.5t-33.5 -24.5t-15.5 -38.5q-3 -33 19.5 -52.5t60.5 -19.5z" />
    <glyph glyph-name="aring.ss01" horiz-adv-x="547" 
d="M445 108q-5 -31 26 -31q20 0 37 6l-12 -79q-28 -11 -64 -11q-73 0 -91 57q-74 -63 -179 -63q-70 0 -116.5 42t-40.5 112q4 44 26.5 75.5t57 48t70 23.5t73.5 7q67 0 135 -15l3 23q15 97 -123 97q-78 0 -167 -38l16 101q84 30 167 30q243 0 210 -212zM194 69q87 0 148 59
l13 81q-45 10 -107 10q-23 0 -44 -3.5t-41 -11.5t-33.5 -24.5t-15.5 -38.5q-3 -33 19.5 -52.5t60.5 -19.5zM427 629q-9 -51 -46.5 -80t-85.5 -29q-49 0 -82 34t-24 88q8 49 46 78t86 29t81 -34t25 -86zM258 635q-4 -22 8.5 -36t31.5 -14q22 0 38.5 12.5t20.5 35.5
q4 22 -8.5 36t-31.5 14q-22 0 -38.5 -12.5t-20.5 -35.5z" />
    <glyph glyph-name="atilde.ss01" horiz-adv-x="547" 
d="M445 108q-5 -31 26 -31q20 0 37 6l-12 -79q-28 -11 -64 -11q-73 0 -91 57q-74 -63 -179 -63q-70 0 -116.5 42t-40.5 112q4 44 26.5 75.5t57 48t70 23.5t73.5 7q67 0 135 -15l3 23q15 97 -123 97q-78 0 -167 -38l16 101q84 30 167 30q243 0 210 -212zM194 69q87 0 148 59
l13 81q-45 10 -107 10q-23 0 -44 -3.5t-41 -11.5t-33.5 -24.5t-15.5 -38.5q-3 -33 19.5 -52.5t60.5 -19.5zM472 660q2 -58 -27.5 -90t-72.5 -32q-34 0 -81.5 21t-61.5 21q-17 0 -25.5 -11t-7.5 -25h-83q-1 57 28 89.5t72 32.5q34 0 81.5 -21t61.5 -21q18 0 26.5 10.5
t6.5 25.5h83z" />
    <glyph glyph-name="ae.ss01" horiz-adv-x="872" 
d="M399 69q-99 -82 -230 -82q-76 0 -123.5 42t-40.5 113q4 44 26.5 75t58 47.5t72 23.5t77.5 7q60 0 128 -15l3 23q7 47 -22.5 72t-93.5 25q-81 0 -174 -38l16 101q90 30 174 30q140 0 173 -84q39 40 91.5 62t105.5 22q63 0 109 -25.5t66 -67t23 -94.5t-20 -108h-362
q-1 -62 45 -91t118 -29q92 0 163 37l-15 -96q-72 -32 -174 -32q-133 0 -194 82zM113 141q-3 -32 21.5 -52t62.5 -20q83 0 170 63q-12 38 -8 76q-52 11 -105 11q-132 0 -141 -78zM631 404q-58 0 -104.5 -35t-58.5 -92h267q12 45 -11.5 86t-92.5 41z" />
    <glyph glyph-name="y.ss01" horiz-adv-x="586" 
d="M474 2q-22 -125 -100 -180t-184 -55q-117 0 -186 42l15 95q63 -43 162 -43q165 0 187 146l7 47q-71 -67 -161 -67q-93 0 -139 56.5t-31 143.5l46 293h107l-46 -286q-9 -60 13.5 -86t76.5 -26q81 0 151 81l50 317h108z" />
    <glyph glyph-name="yacute.ss01" horiz-adv-x="586" 
d="M474 2q-22 -125 -100 -180t-184 -55q-117 0 -186 42l15 95q63 -43 162 -43q165 0 187 146l7 47q-71 -67 -161 -67q-93 0 -139 56.5t-31 143.5l46 293h107l-46 -286q-9 -60 13.5 -86t76.5 -26q81 0 151 81l50 317h108zM368 547h-114l114 148h129z" />
    <glyph glyph-name="ycircumflex.ss01" horiz-adv-x="586" 
d="M474 2q-22 -125 -100 -180t-184 -55q-117 0 -186 42l15 95q63 -43 162 -43q165 0 187 146l7 47q-71 -67 -161 -67q-93 0 -139 56.5t-31 143.5l46 293h107l-46 -286q-9 -60 13.5 -86t76.5 -26q81 0 151 81l50 317h108zM298 695h95l105 -150h-105l-54 76l-79 -76h-114z" />
    <glyph glyph-name="ydieresis.ss01" horiz-adv-x="586" 
d="M474 2q-22 -125 -100 -180t-184 -55q-117 0 -186 42l15 95q63 -43 162 -43q165 0 187 146l7 47q-71 -67 -161 -67q-93 0 -139 56.5t-31 143.5l46 293h107l-46 -286q-9 -60 13.5 -86t76.5 -26q81 0 151 81l50 317h108zM499 608q-4 -23 -23.5 -40t-44.5 -17q-28 0 -45 21.5
t-13 49.5q5 24 24.5 40.5t43.5 16.5q28 0 45.5 -21t12.5 -50zM291 608q-4 -23 -23.5 -40t-44.5 -17q-28 0 -45 21.5t-13 49.5q5 24 24.5 40.5t43.5 16.5q28 0 45.5 -21t12.5 -50z" />
    <glyph glyph-name="ygrave.ss01" horiz-adv-x="586" 
d="M474 2q-22 -125 -100 -180t-184 -55q-117 0 -186 42l15 95q63 -43 162 -43q165 0 187 146l7 47q-71 -67 -161 -67q-93 0 -139 56.5t-31 143.5l46 293h107l-46 -286q-9 -60 13.5 -86t76.5 -26q81 0 151 81l50 317h108zM399 547h-109l-83 148h125z" />
    <glyph glyph-name="f_b" horiz-adv-x="979" 
d="M552 416q77 77 181 77q105 0 162 -76t39 -184q-16 -105 -89.5 -175.5t-181.5 -70.5q-116 0 -173 92l-15 -79h-95l95 598q-45 21 -98 21q-108 0 -123 -92l-8 -47h140l-15 -94h-140l-61 -386h-107l61 386h-87l15 94h87l9 55q14 86 75 132t145 46q72 0 137 -30l93 19z
M646 81q72 0 121 43t61 116q10 69 -24 114t-96 45q-56 0 -101.5 -29.5t-72.5 -73.5l-20 -117q13 -43 47 -70.5t85 -27.5z" />
    <glyph glyph-name="f_f_b" horiz-adv-x="1296" 
d="M869 416q77 77 181 77q105 0 162 -76t39 -184q-16 -105 -89.5 -175.5t-181.5 -70.5q-116 0 -173 92l-15 -79h-95l97 608q-45 21 -96 21q-110 0 -127 -99l-8 -50h141l-15 -94h-141l-61 -386h-107l61 386h-210l-61 -386h-107l61 386h-87l15 94h87l7 46q14 86 76 131.5
t147 45.5q81 0 155 -42q61 62 160 62q75 0 140 -30l93 19zM456 480l9 58q5 31 12 46q-43 27 -102 27q-48 0 -82.5 -23.5t-41.5 -69.5l-6 -38h211zM963 81q72 0 121 43t61 116q10 69 -24 114t-96 45q-56 0 -101.5 -29.5t-72.5 -73.5l-20 -117q13 -43 47 -70.5t85 -27.5z" />
    <glyph glyph-name="f_f_h" horiz-adv-x="1264" 
d="M871 423q77 70 167 70q89 0 134.5 -56.5t31.5 -143.5l-46 -293h-108l45 286q9 56 -15.5 84t-73.5 28q-42 0 -83 -24.5t-70 -59.5l-49 -314h-107l97 608q-45 21 -96 21q-110 0 -127 -99l-8 -50h141l-15 -94h-141l-61 -386h-107l61 386h-210l-61 -386h-107l61 386h-87
l15 94h87l7 46q14 86 76 131.5t147 45.5q81 0 155 -42q61 62 160 62q75 0 140 -30l93 19zM456 480l9 58q5 31 12 46q-43 27 -102 27q-48 0 -82.5 -23.5t-41.5 -69.5l-6 -38h211z" />
    <glyph glyph-name="f_f_j" horiz-adv-x="909" 
d="M781 -86q-13 -79 -59 -113t-108 -34q-43 0 -79 16l14 90q23 -10 48 -10q69 0 81 78l70 445h-200l-61 -386h-107l61 386h-210l-61 -386h-107l61 386h-87l15 94h87l7 46q14 87 76 132t150 45q80 0 152 -42q65 65 173 65q78 0 153 -35l-15 -95q-60 36 -131 36
q-115 0 -132 -101l-9 -51h307zM251 518l-6 -38h211l9 58q5 31 12 46q-45 27 -102 27q-50 0 -83.5 -23.5t-40.5 -69.5z" />
    <glyph glyph-name="f_f_k" horiz-adv-x="1209" 
d="M1099 480h124l-213 -238l150 -242h-115l-127 206h-80l-33 -206h-107l96 608q-45 21 -96 21q-110 0 -127 -99l-8 -50h141l-15 -94h-141l-61 -386h-107l61 386h-210l-61 -386h-107l61 386h-87l15 94h87l7 46q14 86 76 131.5t147 45.5q81 0 155 -42q61 62 160 62
q75 0 140 -30l94 19l-66 -415h84zM456 480l9 58q5 31 12 46q-43 27 -102 27q-48 0 -82.5 -23.5t-41.5 -69.5l-6 -38h211z" />
    <glyph glyph-name="f_h" horiz-adv-x="947" 
d="M554 423q77 70 167 70q89 0 134.5 -56.5t31.5 -143.5l-46 -293h-108l45 286q9 56 -15.5 84t-73.5 28q-42 0 -83 -24.5t-70 -59.5l-49 -314h-107l95 598q-45 21 -98 21q-108 0 -123 -92l-8 -47h140l-15 -94h-140l-61 -386h-107l61 386h-87l15 94h87l9 55q14 86 75 132
t145 46q72 0 137 -30l93 19z" />
    <glyph glyph-name="f_i" horiz-adv-x="586" 
d="M170 0h-107l61 386h-87l15 94h87l8 52q15 89 76 135t152 46q82 0 157 -35l-16 -94q-63 35 -132 35q-116 0 -131 -94l-7 -45h301l-76 -480h-107l61 386h-194z" />
    <glyph glyph-name="f_j" horiz-adv-x="585" 
d="M457 -86q-23 -147 -167 -147q-42 0 -79 16l15 90q22 -10 47 -10q69 0 81 78l71 445h-194l-61 -386h-107l61 386h-87l15 94h87l8 52q15 89 76 135t152 46q82 0 157 -35l-16 -94q-63 35 -132 35q-116 0 -131 -94l-7 -45h301z" />
    <glyph glyph-name="f_k" horiz-adv-x="892" 
d="M782 480h124l-214 -238l151 -242h-116l-127 206h-80l-33 -206h-107l95 598q-45 21 -98 21q-108 0 -123 -92l-8 -47h140l-15 -94h-140l-61 -386h-107l61 386h-87l15 94h87l9 55q14 86 75 132t145 46q72 0 137 -30l93 19l-64 -405h85z" />
    <glyph glyph-name="f_l" horiz-adv-x="602" 
d="M368 713q72 0 137 -30l93 19l-111 -702h-107l95 598q-45 21 -98 21q-108 0 -123 -92l-8 -47h140l-15 -94h-140l-61 -386h-107l61 386h-87l15 94h87l9 55q14 86 75 132t145 46z" />
    <glyph glyph-name="uni0414.loclBGR" horiz-adv-x="807" 
d="M58 -159h-104l42 263h78l330 596h127l143 -596h78l-42 -263h-104l25 159h-548zM454 577l-255 -473h361z" />
    <glyph glyph-name="uni041B.loclBGR" horiz-adv-x="696" 
d="M-39 0l393 700h118l171 -700h-121l-126 563l-308 -563h-127z" />
    <glyph glyph-name="uni0424.loclBGR" horiz-adv-x="908" 
d="M448 -97h-110l15 94q-157 9 -241 112t-61 251q23 145 133.5 240.5t280.5 102.5l15 94h110l-15 -94q156 -10 239.5 -113t60.5 -250q-23 -145 -132.5 -240.5t-279.5 -102.5zM164 353q-15 -97 34.5 -171t170.5 -82l80 500q-124 -8 -196.5 -77.5t-88.5 -169.5zM558 600
l-79 -499q122 8 195 79t88 170q16 97 -34 169.5t-170 80.5z" />
    <glyph glyph-name="uni0432.loclBGR" horiz-adv-x="585" 
d="M363 713q88 0 138 -53.5t38 -126.5q-13 -91 -112 -138q60 -20 89.5 -73.5t18.5 -123.5q-15 -95 -87 -153t-179 -58q-116 0 -178 70t-40 209l20 129q25 156 98.5 237t193.5 81zM307 421q111 22 125 110q6 35 -14 61t-64 26q-140 0 -175 -225zM272 84q63 0 105.5 32.5
t50.5 87.5q10 61 -26 101.5t-106 25.5l-131 -28l-6 -40q-29 -179 113 -179z" />
    <glyph glyph-name="uni0433.loclBGR" horiz-adv-x="480" 
d="M396 33q-82 -46 -199 -46q-94 0 -148 37t-43 114q7 50 42 81t81.5 43t92 20.5t79.5 24t38 43.5q5 28 -20 41t-65 13q-95 0 -183 -49l14 93q90 45 190 45q82 0 133.5 -37t39.5 -113q-8 -51 -44 -83t-82.5 -44t-92 -20.5t-78.5 -23t-37 -41.5q-5 -31 22 -42.5t84 -11.5
q106 0 190 55z" />
    <glyph glyph-name="uni0434.loclBGR" horiz-adv-x="621" 
d="M509 2q-12 -81 -57.5 -135.5t-105 -77t-130.5 -22.5q-124 0 -202 49l15 95q71 -50 178 -50q77 0 130.5 36t64.5 110l10 57q-69 -77 -181 -77q-106 0 -162.5 76t-39.5 184q17 104 93 175t179 71q117 0 173 -95l14 82h97zM135 238q-11 -68 23.5 -112.5t97.5 -44.5
q54 0 100.5 28.5t72.5 70.5l21 123q-12 41 -47.5 68.5t-86.5 27.5q-68 0 -118.5 -44t-62.5 -117z" />
    <glyph glyph-name="uni0436.loclBGR" horiz-adv-x="770" 
d="M78 0h-121l222 245l-122 235h108l103 -198h63l66 418h107l-66 -418h64l159 198h118l-200 -247l139 -233h-112l-116 191h-67l-30 -191h-107l31 191h-66z" />
    <glyph glyph-name="uni0438.loclBGR" horiz-adv-x="586" 
d="M442 480h107l-76 -480h-94l11 69q-32 -37 -78.5 -59.5t-97.5 -22.5q-90 0 -137.5 57t-33.5 144l46 292h107l-45 -286q-17 -112 90 -112q87 0 151 83z" />
    <glyph glyph-name="uni0439.loclBGR" horiz-adv-x="586" 
d="M481 590q-66 -43 -151 -43q-87 0 -144 43l13 87q65 -44 138 -44q81 0 157 44zM442 480h107l-76 -480h-94l11 69q-32 -37 -78.5 -59.5t-97.5 -22.5q-90 0 -137.5 57t-33.5 144l46 292h107l-45 -286q-17 -112 90 -112q87 0 151 83z" />
    <glyph glyph-name="uni043A.loclBGR" horiz-adv-x="532" 
d="M419 480h125l-213 -237l151 -243h-115l-127 206h-80l-33 -206h-107l111 700h107l-64 -403h82z" />
    <glyph glyph-name="uni043B.loclBGR" horiz-adv-x="545" 
d="M360 480l128 -480h-111l-88 364l-204 -364h-120l281 480h114z" />
    <glyph glyph-name="uni043F.loclBGR" horiz-adv-x="587" 
d="M180 411q84 82 184 82q87 0 132 -56.5t31 -142.5l-47 -294h-107l45 286q9 57 -15.5 84.5t-73.5 27.5q-42 0 -83 -24.5t-70 -58.5l-49 -315h-107l76 480h95z" />
    <glyph glyph-name="uni0442.loclBGR" horiz-adv-x="882" 
d="M488 418q90 75 179 75t128 -57.5t27 -139.5l-47 -296h-107l48 302q7 45 -14 70.5t-63 25.5q-69 0 -133 -69q0 -17 -3 -33l-47 -296h-107l48 302q7 45 -14 70.5t-63 25.5q-73 0 -142 -78l-51 -320h-107l76 480h95l-11 -63q29 30 74.5 53t96.5 23q100 0 137 -75z" />
    <glyph glyph-name="uni0446.loclBGR" horiz-adv-x="622" 
d="M490 108q-3 -18 4.5 -24.5t25.5 -6.5h39l-33 -206h-98l20 125q-55 12 -64 67q-71 -76 -170 -76q-90 0 -137.5 57t-33.5 144l46 292h107l-45 -286q-17 -112 90 -112q87 0 151 83l50 315h107z" />
    <glyph glyph-name="uni0448.loclBGR" horiz-adv-x="881" 
d="M686 153l51 327h107l-76 -480h-95l9 61q-72 -74 -165 -74q-101 0 -140 79q-83 -79 -179 -79q-88 0 -128 58t-27 139l47 296h107l-48 -300q-7 -47 13 -72.5t62 -25.5q68 0 135 69q0 1 3 37l46 292h107l-47 -300q-7 -47 13 -72.5t62 -25.5q79 0 143 71z" />
    <glyph glyph-name="uni0449.loclBGR" horiz-adv-x="917" 
d="M785 104q-2 -16 5 -21.5t24 -5.5h40l-33 -206h-98l20 125q-52 10 -64 61q-70 -70 -162 -70q-101 0 -140 79q-84 -79 -179 -79q-88 0 -128 58t-27 139l46 296h108l-48 -300q-7 -47 13 -72.5t62 -25.5q72 0 135 70q0 16 3 32l47 296h107l-48 -300q-7 -47 13 -72.5t62 -25.5
q79 0 143 71l51 327h107z" />
    <glyph glyph-name="uni044E.loclBGR" horiz-adv-x="828" 
d="M783 232q-12 -78 -59 -135t-108.5 -83.5t-128.5 -26.5q-91 0 -156 55.5t-67 152.5h-106l-31 -195h-107l111 700h107l-66 -415h104q29 99 109.5 153.5t174.5 54.5q106 0 174 -70.5t49 -190.5zM371 236q-11 -68 23.5 -109.5t101.5 -41.5q69 0 119 43.5t62 115.5
q10 68 -24 109.5t-101 41.5q-68 0 -118.5 -43.5t-62.5 -115.5z" />
    <glyph glyph-name="uni0430.ss01" horiz-adv-x="554" 
d="M445 108q-5 -31 26 -31q20 0 37 6l-12 -79q-28 -11 -64 -11q-73 0 -91 57q-74 -63 -179 -63q-70 0 -116.5 42t-40.5 112q4 44 26.5 75.5t57 48t70 23.5t73.5 7q67 0 135 -15l3 23q15 97 -123 97q-78 0 -167 -38l16 101q84 30 167 30q243 0 210 -212zM194 69q87 0 148 59
l13 81q-45 10 -107 10q-23 0 -44 -3.5t-41 -11.5t-33.5 -24.5t-15.5 -38.5q-3 -33 19.5 -52.5t60.5 -19.5z" />
    <glyph glyph-name="uni0437.ss01" horiz-adv-x="466" 
d="M395 -30q-11 -70 -53 -117t-99 -66.5t-129 -19.5q-107 0 -175 45l15 96q64 -49 149 -49q73 0 123.5 30.5t61.5 94.5q10 63 -26.5 102.5t-108.5 24.5l-67 -15l13 91l77 16q102 25 116 109q7 43 -21.5 66.5t-74.5 23.5q-82 0 -162 -51l15 102q83 41 169 41
q83 0 138.5 -50.5t42.5 -131.5q-13 -93 -111 -138q59 -21 88.5 -78t18.5 -126z" />
    <glyph glyph-name="uni0443.ss01" horiz-adv-x="586" 
d="M474 2q-22 -125 -100 -180t-184 -55q-117 0 -186 42l15 95q63 -43 162 -43q165 0 187 146l7 47q-71 -67 -161 -67q-93 0 -139 56.5t-31 143.5l46 293h107l-46 -286q-9 -60 13.5 -86t76.5 -26q81 0 151 81l50 317h108z" />
    <glyph glyph-name="zero.osf" horiz-adv-x="659" 
d="M612 251q-17 -106 -103 -185t-219 -79q-93 0 -155.5 43t-85 105.5t-11.5 132.5q17 105 104.5 185t217.5 80q137 0 203 -85.5t49 -196.5zM152 259q-11 -69 25.5 -118.5t115.5 -49.5q83 0 138.5 49t67.5 121q10 69 -26.5 118.5t-115.5 49.5q-84 0 -139 -49t-66 -121z" />
    <glyph glyph-name="one.osf" horiz-adv-x="445" 
d="M254 520h84l-65 -417h120l-16 -103h-370l17 103h136l47 300l-144 -51l17 105z" />
    <glyph glyph-name="two.osf" horiz-adv-x="542" 
d="M449 0h-453l10 60q3 18 9 34t12 28.5t18.5 25t20.5 21t25 19t25.5 15.5t29.5 14.5t29 13t31 12.5t30 12q91 36 116 54q30 23 35 52q6 33 -20 51t-75 18q-97 0 -214 -63l18 113q107 53 215 53q92 0 147.5 -48t42.5 -130q-6 -33 -24 -60t-49 -48t-53.5 -33t-61.5 -29
q-11 -5 -41 -17.5t-42 -18t-31 -15t-28.5 -17t-14.5 -14.5h310z" />
    <glyph glyph-name="three.osf" horiz-adv-x="547" 
d="M487 340q-7 -50 -40 -88.5t-83 -55.5q50 -17 81 -61t19 -116q-14 -94 -94 -143t-181 -49q-118 0 -214 45l17 105q80 -47 195 -47q65 1 114 28.5t58 82.5q15 98 -109 98h-101l17 103l82 -1q53 -1 88 26.5t43 70.5q7 43 -23.5 67.5t-88.5 24.5q-100 0 -199 -50l18 108
q96 45 202 45q97 0 154.5 -54t44.5 -139z" />
    <glyph glyph-name="four.osf" horiz-adv-x="604" 
d="M388 520h119l-69 -442h109l-15 -99h-110l-22 -139h-110l22 139h-339l14 97zM328 78l46 289l-261 -289h215z" />
    <glyph glyph-name="five.osf" horiz-adv-x="540" 
d="M121 520h389l-16 -102h-286l-34 -163q41 11 90 11q41 0 79.5 -13t70.5 -38.5t46.5 -70.5t5.5 -102q-16 -103 -99 -159t-193 -56t-197 46l16 102q78 -45 174 -45q74 0 126 32.5t61 91.5q10 63 -30.5 90.5t-110.5 27.5q-82 0 -172 -32z" />
    <glyph glyph-name="six.osf" horiz-adv-x="604" 
d="M558 554q-61 38 -137 38q-47 0 -91 -18.5t-86 -66.5t-63 -121q86 46 177 46q89 0 151 -61t45 -164q-16 -105 -93 -162.5t-177 -57.5q-137 0 -196 93.5t-33 257.5q14 90 51 160t87 111.5t106.5 62.5t116.5 21q89 0 158 -41zM283 86q59 0 103 32.5t55 96.5q7 44 -10 71.5
t-43.5 37t-62.5 9.5q-84 0 -164 -59q-6 -96 27 -142t95 -46z" />
    <glyph glyph-name="seven.osf" horiz-adv-x="506" 
d="M54 520h472l-14 -90l-361 -590h-125l354 578h-342z" />
    <glyph glyph-name="eight.osf" horiz-adv-x="623" 
d="M106 518q11 70 79.5 122.5t181.5 52.5q108 0 168.5 -58.5t49.5 -137.5q-13 -97 -116 -162q107 -54 89 -164q-12 -77 -85 -130.5t-201 -53.5t-191.5 60.5t-50.5 146.5q8 49 43.5 95.5t95.5 79.5q-78 54 -63 149zM322 299q-23 8 -73 26q-44 -23 -71.5 -57.5t-33.5 -70.5
q-8 -52 29 -82t107 -30q66 0 112.5 27t53.5 70q2 10 2 18t-2 15t-4 13t-7.5 11.5l-10 10t-14 10t-16.5 9.5t-20.5 9.5t-24 9.5t-27.5 11zM475 496q6 42 -26 71t-89 29t-98 -26.5t-46 -64.5q-7 -39 18 -64.5t88 -48.5q51 -15 63 -18q79 50 90 122z" />
    <glyph glyph-name="nine.osf" horiz-adv-x="593" 
d="M34 316q17 105 93.5 161t176.5 56q135 0 195 -94t35 -257q-14 -90 -51 -160t-86.5 -111.5t-105 -62.5t-114.5 -21q-88 0 -162 42l15 97q63 -38 143 -38q72 0 137.5 50t96.5 156q-80 -45 -174 -45q-93 0 -154 61.5t-45 165.5zM303 432q-60 0 -102.5 -29.5t-52.5 -93.5
q-10 -63 25 -93t90 -30q87 0 164 60q6 95 -27.5 140.5t-96.5 45.5z" />
    <glyph glyph-name="zero.sinf" horiz-adv-x="433" 
d="M371 97q-15 -91 -70 -148t-142 -57q-93 0 -132 61.5t-24 157.5q15 91 70 148t142 57q93 0 132 -61t24 -158zM84 104q-22 -137 78 -137q106 0 129 137q22 137 -78 137q-106 0 -129 -137z" />
    <glyph glyph-name="one.sinf" horiz-adv-x="289" 
d="M143 308h60l-53 -334h72l-11 -74h-240l12 74h87l39 251l-89 -32l13 77z" />
    <glyph glyph-name="two.sinf" horiz-adv-x="362" 
d="M42 276q64 40 140 40q61 0 101.5 -33.5t29.5 -91.5q-8 -43 -40.5 -74.5t-89.5 -61.5q-35 -19 -51.5 -28.5t-33.5 -24.5t-20 -28h202l-12 -74h-300l6 41q5 35 19 62t40.5 48.5t44.5 32.5t53 29q48 24 72.5 44t28.5 44q4 21 -12 31t-44 10q-72 0 -147 -49z" />
    <glyph glyph-name="three.sinf" horiz-adv-x="362" 
d="M301 197q-9 -60 -72 -84q29 -10 47 -37t11 -70q-9 -57 -56.5 -85.5t-116.5 -28.5q-81 0 -140 29l13 77q53 -31 122 -31q94 0 103 57q4 27 -13 38t-52 11h-70l12 74h54q72 0 81 51q4 21 -15 32t-52 11q-67 0 -131 -34l12 80q61 29 130 29q61 0 101.5 -33t31.5 -86z" />
    <glyph glyph-name="four.sinf" horiz-adv-x="400" 
d="M232 308h85l-41 -257h66l-12 -72h-65l-12 -79h-79l12 79h-216l11 71zM198 51l24 149l-145 -149h121z" />
    <glyph glyph-name="five.sinf" horiz-adv-x="360" 
d="M60 308h256l-12 -74h-181l-17 -75q19 5 47 5q64 0 106.5 -35.5t31.5 -106.5q-11 -64 -63 -97t-123 -33q-75 0 -131 29l12 73q45 -27 110 -27q103 0 113 67q6 34 -18.5 48t-71.5 14t-107 -21z" />
    <glyph glyph-name="six.sinf" horiz-adv-x="391" 
d="M92 141q50 21 106 21q58 0 97.5 -37t29.5 -101t-58 -98t-113 -34q-90 0 -129.5 58t-22.5 160q16 101 77.5 153.5t141.5 52.5q57 0 109 -26l-11 -71q-35 24 -92 24q-43 0 -79.5 -24.5t-55.5 -77.5zM151 -37q82 0 92 65q6 33 -14 47.5t-55 14.5q-53 0 -98 -29
q-5 -98 75 -98z" />
    <glyph glyph-name="seven.sinf" horiz-adv-x="335" 
d="M99 -100h-90l207 334h-208l12 74h300l-10 -67z" />
    <glyph glyph-name="eight.sinf" horiz-adv-x="403" 
d="M31 211q7 42 50 73.5t116 31.5q72 0 111.5 -36.5t33.5 -86.5q-7 -52 -62 -92q57 -34 47 -99q-8 -47 -52.5 -78.5t-128.5 -31.5q-83 0 -125 38t-33 91q9 58 76 100q-41 33 -33 90zM178 71q-33 7 -54 16q-50 -28 -55 -66q-4 -29 17 -44t66 -15q38 0 64 12t30 36
q5 31 -36 49q-5 2 -32 12zM262 191q3 24 -14 39.5t-54 15.5q-34 0 -57 -11.5t-27 -32.5q-3 -17 7.5 -30t22 -18t35.5 -14q7 -2 22 -5.5t21 -5.5q39 29 44 62z" />
    <glyph glyph-name="nine.sinf" horiz-adv-x="392" 
d="M6 184q11 64 59 98t112 34q92 0 130.5 -57.5t22.5 -160.5q-16 -101 -78 -153.5t-142 -52.5q-60 0 -110 26l11 72q41 -25 97 -25q97 0 131 102q-49 -21 -106 -21t-97 37.5t-30 100.5zM179 245q-82 0 -92 -64q-5 -33 15 -48t55 -15q53 0 97 28q5 99 -75 99z" />
    <glyph glyph-name="zero.sups" horiz-adv-x="432" 
d="M446 574q-15 -91 -70 -148t-142 -57q-93 0 -132 61.5t-24 157.5q15 91 70 148t142 57q93 0 132 -61t24 -158zM159 581q-22 -137 78 -137q106 0 129 137q22 137 -78 137q-106 0 -129 -137z" />
    <glyph glyph-name="one.sups" horiz-adv-x="289" 
d="M218 780h60l-53 -334h72l-11 -74h-240l12 74h87l39 251l-89 -32l13 77z" />
    <glyph glyph-name="two.sups" horiz-adv-x="363" 
d="M118 753q64 40 140 40q61 0 101.5 -33.5t29.5 -91.5q-8 -43 -40.5 -74.5t-89.5 -61.5q-35 -19 -51.5 -28.5t-33.5 -24.5t-20 -28h202l-12 -74h-300l6 41q5 35 19 62t40.5 48.5t44.5 32.5t53 29q48 24 72.5 44t28.5 44q4 21 -12 31t-44 10q-72 0 -147 -49z" />
    <glyph glyph-name="three.sups" horiz-adv-x="363" 
d="M377 674q-9 -60 -72 -84q29 -10 47 -37t11 -70q-9 -57 -56.5 -85.5t-116.5 -28.5q-81 0 -140 29l13 77q53 -31 122 -31q94 0 103 57q4 27 -13 38t-52 11h-70l12 74h54q72 0 81 51q4 21 -15 32t-52 11q-67 0 -131 -34l12 80q61 29 130 29q61 0 101.5 -33t31.5 -86z" />
    <glyph glyph-name="four.sups" horiz-adv-x="401" 
d="M307 780h85l-41 -257h66l-12 -72h-65l-12 -79h-79l12 79h-216l11 71zM273 523l24 149l-145 -149h121z" />
    <glyph glyph-name="five.sups" horiz-adv-x="361" 
d="M135 780h256l-12 -74h-181l-17 -75q19 5 47 5q64 0 106.5 -35.5t31.5 -106.5q-11 -64 -63 -97t-123 -33q-75 0 -131 29l12 73q45 -27 110 -27q103 0 113 67q6 34 -18.5 48t-71.5 14q-48 0 -107 -21z" />
    <glyph glyph-name="six.sups" horiz-adv-x="392" 
d="M168 618q50 21 106 21q58 0 97.5 -37t29.5 -101t-58 -98t-113 -34q-90 0 -129.5 58t-22.5 160q16 101 77.5 153.5t141.5 52.5q57 0 109 -26l-11 -71q-35 24 -92 24q-43 0 -79.5 -24.5t-55.5 -77.5zM227 440q82 0 92 65q6 33 -14 47.5t-55 14.5q-53 0 -98 -29
q-5 -98 75 -98z" />
    <glyph glyph-name="seven.sups" horiz-adv-x="334" 
d="M173 372h-90l207 334h-208l12 74h300l-10 -67z" />
    <glyph glyph-name="eight.sups" horiz-adv-x="402" 
d="M106 688q7 42 50 73.5t116 31.5q72 0 111.5 -36.5t33.5 -86.5q-7 -52 -62 -92q57 -34 47 -99q-8 -47 -52.5 -78.5t-128.5 -31.5q-83 0 -125 38t-33 91q9 58 76 100q-41 33 -33 90zM253 548q-33 7 -54 16q-50 -28 -55 -66q-4 -29 17 -44t66 -15q38 0 64 12t30 36
q3 16 -6.5 28t-20 16.5t-33.5 13.5q-5 2 -8 3zM337 668q3 24 -14 39.5t-54 15.5q-34 0 -57 -11.5t-27 -32.5q-3 -17 7.5 -30t22 -18t35.5 -14q7 -2 22 -5.5t21 -5.5q39 29 44 62z" />
    <glyph glyph-name="nine.sups" horiz-adv-x="392" 
d="M82 661q11 64 59 98t112 34q92 0 130.5 -57.5t22.5 -160.5q-16 -101 -78 -153.5t-142 -52.5q-60 0 -110 26l11 72q41 -25 97 -25q97 0 131 102q-49 -21 -106 -21t-97 37.5t-30 100.5zM255 722q-82 0 -92 -64q-5 -33 15 -48t55 -15q53 0 97 28q5 99 -75 99z" />
    <glyph glyph-name="zero.tf" 
d="M43 347q24 154 111 250t222 96q134 0 196 -102t37 -258q-24 -153 -111 -249.5t-223 -96.5q-134 0 -195.5 102t-36.5 258zM497 340q18 118 -14.5 183.5t-112.5 65.5q-84 0 -140 -64.5t-75 -184.5q-18 -118 14.5 -183.5t111.5 -65.5q85 0 141 64t75 185z" />
    <glyph glyph-name="one.tf" 
d="M373 680h84l-92 -577h202l-16 -103h-532l17 103h216l73 460l-195 -69l17 105z" />
    <glyph glyph-name="two.tf" 
d="M135 625q122 68 242 68q109 0 173 -55t49 -150q-6 -39 -24 -70.5t-52.5 -59t-63.5 -45.5t-83 -46q-11 -6 -38 -20t-38 -20l-33 -18t-32 -19.5t-25.5 -19.5t-23 -21.5t-14.5 -21.5t-10 -24h381l-17 -103h-513l9 56q9 56 32 99t60.5 74.5t73.5 53.5t89 49q6 2 8.5 3.5t7 4
t8.5 4.5q7 4 36.5 19t38 20t31 18.5t31 22t21.5 21t19 25.5t8 28q7 43 -25.5 67.5t-99.5 24.5q-111 0 -237 -79z" />
    <glyph glyph-name="three.tf" 
d="M583 500q-8 -51 -41 -89.5t-84 -54.5q51 -16 82 -60.5t20 -116.5q-16 -95 -98.5 -143.5t-197.5 -48.5q-139 0 -241 47l16 104q89 -49 222 -48q78 1 131 28t62 84q8 53 -26.5 75t-107.5 22h-123l17 101h102q69 0 109.5 26t47.5 70q7 45 -27 69.5t-108 24.5
q-114 0 -227 -57l17 111q101 49 232 49q109 0 172.5 -53t50.5 -140z" />
    <glyph glyph-name="four.tf" 
d="M443 680h120l-71 -442h109l-15 -99h-109l-22 -139h-112l23 139h-369l14 97zM381 238l46 292l-284 -292h238z" />
    <glyph glyph-name="five.tf" 
d="M169 680h438l-16 -102h-335l-37 -163q47 11 112 11q109 0 180 -57t53 -170q-16 -103 -104 -157.5t-210 -54.5q-134 0 -223 47l16 102q75 -46 200 -46q88 0 143.5 31t64.5 91q10 63 -34 91.5t-132 28.5q-103 0 -197 -32z" />
    <glyph glyph-name="six.tf" 
d="M180 380q97 52 200 52q93 0 157 -60.5t48 -163.5q-17 -105 -95.5 -163t-185.5 -58q-148 0 -210.5 94t-35.5 260q28 176 128 264t238 88q94 0 172 -42l-16 -99q-65 40 -152 40q-85 0 -152 -50.5t-96 -161.5zM302 85q66 0 112.5 31.5t56.5 97.5q10 62 -27 90t-101 28
q-95 0 -181 -60q-12 -187 140 -187z" />
    <glyph glyph-name="seven.tf" 
d="M108 680h542l-14 -90l-375 -590h-125l368 578h-413z" />
    <glyph glyph-name="eight.tf" 
d="M579 166q-12 -78 -86 -128.5t-210 -50.5q-135 0 -204.5 60.5t-55.5 147.5q7 48 42.5 94.5t95.5 79.5q-78 60 -63 149q12 72 81 123.5t194 51.5q115 0 179 -61.5t54 -140.5q-12 -91 -115 -156q105 -59 88 -169zM136 201q-8 -53 34 -85t125 -32q70 0 116.5 25.5t53.5 67.5
q3 22 -4 39.5t-15.5 27.5t-33.5 21.5t-36.5 15.5t-46.5 15q-53 15 -89 29q-92 -51 -104 -124zM330 394q34 -9 76 -23q77 53 88 120q6 44 -27 74.5t-102 30.5q-67 0 -109 -24t-48 -63q-4 -25 4 -44t30 -33t39 -20.5t49 -17.5z" />
    <glyph glyph-name="nine.tf" 
d="M65 472q17 105 96 163t186 58q147 0 209.5 -93.5t36.5 -260.5q-28 -176 -127.5 -264t-238.5 -88q-96 0 -173 41l16 100q64 -40 152 -40q87 0 152.5 50.5t95.5 161.5q-95 -51 -199 -51q-94 0 -158 60t-48 163zM347 595q-65 0 -111 -33t-57 -98q-10 -63 26.5 -89.5
t102.5 -26.5q96 0 180 60q12 187 -141 187z" />
    <glyph glyph-name="zero.tosf" 
d="M600 253q-8 -49 -32.5 -95.5t-64 -85t-97.5 -62t-126 -23.5q-135 0 -203 85.5t-51 194.5q8 50 33 96.5t64 85t97.5 61.5t126.5 23q135 0 202.5 -85t50.5 -195zM140 258q-11 -68 26 -117.5t117 -49.5q83 0 137.5 49.5t66.5 121.5q10 68 -27.5 117.5t-116.5 49.5
q-83 0 -137.5 -49t-65.5 -122z" />
    <glyph glyph-name="one.tosf" 
d="M345 520h84l-66 -417h202l-16 -103h-532l17 103h216l48 300l-195 -69l17 105z" />
    <glyph glyph-name="two.tosf" 
d="M523 0h-506l10 60q8 45 31 78.5t66 56t69.5 32t79.5 24.5q12 3 17 5q84 24 123 46t45 59q6 35 -25 52t-87 17q-123 0 -248 -76l18 113q118 66 243 66q106 0 166 -48.5t46 -133.5q-10 -62 -60.5 -100t-138.5 -65q-163 -48 -187 -83h354z" />
    <glyph glyph-name="three.tosf" 
d="M554 340q-8 -51 -41 -89.5t-84 -54.5q51 -16 82 -60.5t20 -116.5q-16 -96 -98 -144t-198 -48q-132 0 -234 47l16 104q89 -49 215 -48q79 0 131.5 27.5t61.5 84.5q8 53 -26 75t-105 22h-119l17 101h98q67 0 107 26t47 70q7 45 -27 69.5t-108 24.5q-108 0 -220 -57l17 111
q101 49 225 49q109 0 172.5 -53t50.5 -140z" />
    <glyph glyph-name="four.tosf" 
d="M416 513h119l-71 -442h116l-15 -99h-116l-22 -139h-111l22 139h-369l15 97zM354 71l46 292l-284 -292h238z" />
    <glyph glyph-name="five.tosf" 
d="M147 520h431l-16 -102h-328l-37 -163q47 11 105 11q52 0 96 -13t79 -39t51 -71t7 -104q-17 -104 -103.5 -158t-210.5 -54q-127 0 -216 47l16 102q75 -46 193 -46q89 0 144 30.5t64 91.5q11 62 -33.5 91t-132.5 29q-92 1 -189 -32z" />
    <glyph glyph-name="six.tosf" 
d="M180 380q97 52 200 52q91 0 156 -60.5t49 -163.5q-17 -105 -95.5 -163t-185.5 -58q-146 0 -209.5 94t-36.5 260q28 176 128 264t238 88q94 0 172 -42l-16 -99q-65 40 -152 40q-85 0 -152 -50.5t-96 -161.5zM302 85q66 0 112.5 31.5t56.5 97.5q10 62 -27 90t-101 28
q-95 0 -181 -60q-12 -187 140 -187z" />
    <glyph glyph-name="seven.tosf" 
d="M87 520h535l-14 -90l-378 -590h-125l371 578h-406z" />
    <glyph glyph-name="eight.tosf" 
d="M579 166q-12 -77 -86.5 -128t-209.5 -51q-137 0 -205.5 62t-54.5 149q7 47 42.5 92.5t95.5 78.5q-78 60 -63 149q12 72 80 123.5t192 51.5q115 0 180.5 -61.5t55.5 -140.5q-12 -91 -115 -156q105 -59 88 -169zM136 201q-8 -53 34 -85t125 -32q70 0 116.5 25.5t53.5 67.5
q3 22 -4 39.5t-15.5 27.5t-33.5 21.5t-36.5 15.5t-46.5 15q-53 15 -89 29q-92 -51 -104 -124zM330 394q34 -9 76 -23q77 53 88 120q6 44 -28.5 74.5t-103.5 30.5q-66 0 -107 -24t-47 -63q-4 -25 4 -44t30 -33t39 -20.5t49 -17.5z" />
    <glyph glyph-name="nine.tosf" 
d="M41 312q17 105 96 163t186 58q145 0 208.5 -94t36.5 -260q-28 -176 -127.5 -264t-238.5 -88q-95 0 -172 41l15 100q64 -40 153 -40q88 0 153.5 50t95.5 162q-99 -51 -198 -51q-43 0 -83.5 14.5t-72 41t-46.5 70.5t-6 97zM321 434q-65 0 -110 -31t-56 -95q-10 -64 27 -92
t102 -28q94 0 180 60q11 186 -143 186z" />
    <glyph glyph-name="zero.dnom" horiz-adv-x="432" 
d="M386 197q-15 -91 -70 -148t-142 -57q-93 0 -132 61.5t-24 157.5q15 91 70 148t142 57q93 0 132 -61t24 -158zM99 204q-22 -137 78 -137q106 0 129 137q22 137 -78 137q-106 0 -129 -137z" />
    <glyph glyph-name="one.dnom" horiz-adv-x="289" 
d="M159 408h60l-53 -334h72l-11 -74h-240l12 74h87l39 251l-89 -32l13 77z" />
    <glyph glyph-name="two.dnom" horiz-adv-x="362" 
d="M58 376q64 40 140 40q61 0 101.5 -33.5t29.5 -91.5q-8 -43 -40.5 -74.5t-89.5 -61.5q-35 -19 -51.5 -28.5t-33.5 -24.5t-20 -28h202l-12 -74h-300l6 41q5 35 19 62t40.5 48.5t44.5 32.5t53 29q48 24 72.5 44t28.5 44q4 21 -12 31t-44 10q-72 0 -147 -49z" />
    <glyph glyph-name="three.dnom" horiz-adv-x="362" 
d="M317 297q-9 -60 -72 -84q29 -10 47 -37t11 -70q-9 -57 -56.5 -85.5t-116.5 -28.5q-81 0 -140 29l13 77q53 -31 122 -31q94 0 103 57q4 27 -13 38t-52 11h-70l12 74h54q72 0 81 51q4 21 -15 32t-52 11q-67 0 -131 -34l12 80q61 29 130 29q61 0 101.5 -33t31.5 -86z" />
    <glyph glyph-name="four.dnom" horiz-adv-x="401" 
d="M248 408h85l-41 -257h66l-12 -72h-65l-12 -79h-79l12 79h-216l11 71zM214 151l24 149l-145 -149h121z" />
    <glyph glyph-name="five.dnom" horiz-adv-x="361" 
d="M76 408h256l-12 -74h-181l-17 -75q19 5 47 5q64 0 106.5 -35.5t31.5 -106.5q-11 -64 -63 -97t-123 -33q-75 0 -131 29l12 73q45 -27 110 -27q103 0 113 67q6 34 -18.5 48t-71.5 14t-107 -21z" />
    <glyph glyph-name="six.dnom" horiz-adv-x="391" 
d="M108 241q50 21 106 21q58 0 97.5 -37t29.5 -101t-58 -98t-113 -34q-90 0 -129.5 58t-22.5 160q16 101 77.5 153.5t141.5 52.5q57 0 109 -26l-11 -71q-35 24 -92 24q-43 0 -79.5 -24.5t-55.5 -77.5zM167 63q82 0 92 65q6 33 -14 47.5t-55 14.5q-53 0 -98 -29
q-5 -98 75 -98z" />
    <glyph glyph-name="seven.dnom" horiz-adv-x="334" 
d="M114 0h-90l207 334h-208l12 74h300l-10 -67z" />
    <glyph glyph-name="eight.dnom" horiz-adv-x="402" 
d="M46 311q7 42 50 73.5t116 31.5q72 0 111.5 -36.5t33.5 -86.5q-7 -52 -62 -92q57 -34 47 -99q-8 -47 -52.5 -78.5t-128.5 -31.5q-83 0 -125 38t-33 91q9 58 76 100q-41 33 -33 90zM193 171q-33 7 -54 16q-50 -28 -55 -66q-4 -29 17 -44t66 -15q38 0 64 12t30 36
q3 16 -6.5 28t-20 16.5t-33.5 13.5q-5 2 -8 3zM277 291q3 24 -14 39.5t-54 15.5q-34 0 -57 -11.5t-27 -32.5q-3 -17 7.5 -30t22 -18t35.5 -14q7 -2 22 -5.5t21 -5.5q39 29 44 62z" />
    <glyph glyph-name="nine.dnom" horiz-adv-x="392" 
d="M22 284q11 64 59 98t112 34q92 0 130.5 -57.5t22.5 -160.5q-16 -101 -78 -153.5t-142 -52.5q-60 0 -110 26l11 72q41 -25 97 -25q97 0 131 102q-49 -21 -106 -21t-97 37.5t-30 100.5zM195 345q-82 0 -92 -64q-5 -33 15 -48t55 -15q53 0 97 28q5 99 -75 99z" />
    <glyph glyph-name="zero.numr" horiz-adv-x="432" 
d="M430 474q-15 -91 -70 -148t-142 -57q-93 0 -132 61.5t-24 157.5q15 91 70 148t142 57q93 0 132 -61t24 -158zM143 481q-22 -137 78 -137q106 0 129 137q22 137 -78 137q-106 0 -129 -137z" />
    <glyph glyph-name="one.numr" horiz-adv-x="289" 
d="M202 680h60l-53 -334h72l-11 -74h-240l12 74h87l39 251l-89 -32l13 77z" />
    <glyph glyph-name="two.numr" horiz-adv-x="363" 
d="M102 653q64 40 140 40q61 0 101.5 -33.5t29.5 -91.5q-8 -43 -40.5 -74.5t-89.5 -61.5q-35 -19 -51.5 -28.5t-33.5 -24.5t-20 -28h202l-12 -74h-300l6 41q5 35 19 62t40.5 48.5t44.5 32.5t53 29q48 24 72.5 44t28.5 44q4 21 -12 31t-44 10q-72 0 -147 -49z" />
    <glyph glyph-name="three.numr" horiz-adv-x="363" 
d="M361 574q-9 -60 -72 -84q29 -10 47 -37t11 -70q-9 -57 -56.5 -85.5t-116.5 -28.5q-81 0 -140 29l13 77q53 -31 122 -31q94 0 103 57q4 27 -13 38t-52 11h-70l12 74h54q72 0 81 51q4 21 -15 32t-52 11q-67 0 -131 -34l12 80q61 29 130 29q61 0 101.5 -33t31.5 -86z" />
    <glyph glyph-name="four.numr" horiz-adv-x="401" 
d="M291 680h85l-41 -257h66l-12 -72h-65l-12 -79h-79l12 79h-216l11 71zM257 423l24 149l-145 -149h121z" />
    <glyph glyph-name="five.numr" horiz-adv-x="360" 
d="M119 680h256l-12 -74h-181l-17 -75q19 5 47 5q64 0 106.5 -35.5t31.5 -106.5q-11 -64 -63 -97t-123 -33q-75 0 -131 29l12 73q45 -27 110 -27q103 0 113 67q6 34 -18.5 48t-71.5 14q-48 0 -107 -21z" />
    <glyph glyph-name="six.numr" horiz-adv-x="392" 
d="M152 518q50 21 106 21q58 0 97.5 -37t29.5 -101t-58 -98t-113 -34q-90 0 -129.5 58t-22.5 160q16 101 77.5 153.5t141.5 52.5q57 0 109 -26l-11 -71q-35 24 -92 24q-43 0 -79.5 -24.5t-55.5 -77.5zM211 340q82 0 92 65q6 33 -14 47.5t-55 14.5q-53 0 -98 -29
q-5 -98 75 -98z" />
    <glyph glyph-name="seven.numr" horiz-adv-x="335" 
d="M158 272h-90l207 334h-208l12 74h300l-10 -67z" />
    <glyph glyph-name="eight.numr" horiz-adv-x="402" 
d="M90 588q7 42 50 73.5t116 31.5q72 0 111.5 -36.5t33.5 -86.5q-7 -52 -62 -92q57 -34 47 -99q-8 -47 -52.5 -78.5t-128.5 -31.5q-83 0 -125 38t-33 91q9 58 76 100q-41 33 -33 90zM237 448q-33 7 -54 16q-50 -28 -55 -66q-4 -29 17 -44t66 -15q38 0 64 12t30 36
q3 16 -6.5 28t-20 16.5t-33.5 13.5q-5 2 -8 3zM321 568q3 24 -14 39.5t-54 15.5q-34 0 -57 -11.5t-27 -32.5q-3 -17 7.5 -30t22 -18t35.5 -14q7 -2 22 -5.5t21 -5.5q39 29 44 62z" />
    <glyph glyph-name="nine.numr" horiz-adv-x="392" 
d="M66 561q11 64 59 98t112 34q92 0 130.5 -57.5t22.5 -160.5q-16 -101 -78 -153.5t-142 -52.5q-60 0 -110 26l11 72q41 -25 97 -25q97 0 131 102q-49 -21 -106 -21t-97 37.5t-30 100.5zM239 622q-82 0 -92 -64q-5 -33 15 -48t55 -15q53 0 97 28q5 99 -75 99z" />
    <glyph glyph-name="emdash.case" horiz-adv-x="778" 
d="M714 302h-648l15 96h648z" />
    <glyph glyph-name="endash.case" horiz-adv-x="587" 
d="M522 302h-456l15 96h457z" />
    <glyph glyph-name="hyphen.case" horiz-adv-x="494" 
d="M81 398h364l-15 -96h-364z" />
    <glyph glyph-name="guillemotleft.case" horiz-adv-x="542" 
d="M466 163h-109l-97 177l4 23l150 174h114l-163 -187zM260 163h-109l-97 177l4 23l150 174h114l-164 -187z" />
    <glyph glyph-name="guillemotright.case" horiz-adv-x="541" 
d="M351 163h-113l163 187l-101 187h108l98 -177l-3 -23zM145 163h-113l163 187l-101 187h108l98 -177l-3 -23z" />
    <glyph glyph-name="guilsinglleft.case" horiz-adv-x="336" 
d="M260 163h-109l-97 177l4 23l150 174h114l-164 -187z" />
    <glyph glyph-name="guilsinglright.case" horiz-adv-x="335" 
d="M145 163h-113l163 187l-101 187h108l98 -177l-3 -23z" />
    <glyph glyph-name="cent.tf" 
d="M547 451l-16 -94q-41 35 -104 40l-50 -313q57 5 122 38l-16 -102q-60 -27 -121 -31l-17 -109h-79l17 110q-94 12 -149 78t-37 179q9 58 35.5 104.5t64 74.5t79.5 44.5t87 20.5l17 109h79l-17 -110q59 -9 105 -39zM347 391q-56 -14 -94.5 -51.5t-48.5 -101.5
q-10 -62 16.5 -100t78.5 -50z" />
    <glyph glyph-name="currency.tf" 
d="M198 183l-75 -65l-55 64l70 62q-25 49 -15 113q11 64 49 106l-49 57l69 61l53 -62q49 25 107 25q57 0 104 -27l75 65l55 -63l-72 -63q25 -48 15 -113q-11 -62 -49 -106l50 -57l-69 -61l-54 62q-46 -25 -106 -25t-103 27zM220 343q-6 -44 17 -70t70 -26q51 0 85 30.5
t41 79.5q7 44 -16.5 70.5t-70.5 26.5q-51 0 -85 -30.5t-41 -80.5z" />
    <glyph glyph-name="dollar.tf" 
d="M297 -130h-88l18 120q-115 11 -196 60l17 108q92 -67 232 -67q154 0 169 87q6 40 -31 68t-93 47.5t-111 43.5t-89.5 70.5t-23.5 114.5q13 76 80 119.5t157 49.5l19 119h88l-19 -120q98 -13 160 -52l-16 -104q-79 55 -204 55q-61 0 -102.5 -18.5t-47.5 -57.5
q-5 -30 13.5 -53.5t51.5 -39.5t73.5 -30.5t80.5 -32.5t72 -41t48.5 -60t8.5 -85q-14 -90 -82.5 -134t-165.5 -49z" />
    <glyph glyph-name="Euro.tf" 
d="M637 571q-44 17 -118 17q-86 0 -156.5 -35t-108.5 -106h274l-13 -79h-290q-5 -25 -7 -56h288l-13 -79h-265q20 -67 77 -104t133 -37q71 0 134 20l-16 -106q-63 -19 -138 -19q-114 0 -202 65.5t-108 180.5h-94l13 79h76q1 27 6 56h-73l13 79h82q46 121 152.5 183.5
t233.5 62.5q74 0 135 -22z" />
    <glyph glyph-name="sterling.tf" 
d="M542 0h-536l16 100h29q32 0 56 25t29 62l16 101h-82l14 94h83l12 78q20 121 94.5 177t177.5 56q87 0 156 -39l-14 -95q-61 40 -138 40q-64 0 -109 -36t-58 -113l-11 -68h208l-14 -94h-209l-17 -108q-11 -64 -52 -82l365 2z" />
    <glyph glyph-name="yen.tf" 
d="M558 680h127l-262 -344h123l-13 -82h-165l-9 -54h165l-13 -82h-165l-20 -118h-114l20 118h-165l13 82h165l9 54h-165l13 82h124l-155 344h120l133 -320z" />
    </font>
</defs>
</svg>
